<?xml version="1.0" encoding="UTF-8"?>
<svg xmlns="http://www.w3.org/2000/svg" viewBox="0 0 535 552">
  <defs>
    <style>
      .cls-1, .cls-2, .cls-3, .cls-4 {
        fill: #fff;
      }

      .cls-2 {
        stroke-width: .75px;
      }

      .cls-2, .cls-3 {
        stroke-linecap: round;
      }

      .cls-2, .cls-3, .cls-5, .cls-4, .cls-6, .cls-7 {
        stroke: #334155;
        stroke-miterlimit: 10;
      }

      .cls-8, .cls-7 {
        fill: #334155;
      }

      .cls-6 {
        fill: none;
      }
    </style>
  </defs>
  <g id="_圖層_2" data-name="圖層 2">
    <g>
      <path class="cls-7" d="M448.39,81.31l76.43,18.04c2.21,.52,1.96,3.75-.3,3.92l-29.61,7.11c-.74,.06-1.26,.76-1.1,1.48l-1.82,32.89c.48,2.14-2.36,3.37-3.59,1.55l-42.11-61.94c-1.02-1.5,.34-3.48,2.1-3.06Z"/>
      <path class="cls-4" d="M449.39,79.31l76.43,18.04c2.21,.52,1.96,3.75-.3,3.92l-29.61,7.11c-.74,.06-1.26,.76-1.1,1.48l-1.82,32.89c.48,2.14-2.36,3.37-3.59,1.55l-42.11-61.94c-1.02-1.5,.34-3.48,2.1-3.06Z"/>
    </g>
  </g>
  <g id="_圖層_3" data-name="圖層 3">
    <g>
      <g>
        <path class="cls-1" d="M282.29,453.81c-1.55-.57-1.59-1.6-.09-2.29l71.48-33.04c1.5-.69,3.98-.76,5.51-.16l13.55,5.33c1.54,.6,1.57,1.66,.07,2.36l-70.89,32.77c-1.5,.69-3.99,.79-5.54,.22l-14.1-5.19Z"/>
        <path class="cls-6" d="M282.29,453.81c-1.55-.57-1.59-1.6-.09-2.29l71.48-33.04c1.5-.69,3.98-.76,5.51-.16l13.55,5.33c1.54,.6,1.57,1.66,.07,2.36l-70.89,32.77c-1.5,.69-3.99,.79-5.54,.22l-14.1-5.19Z"/>
      </g>
      <line class="cls-3" x1="374" y1="411.5" x2="374" y2="424.5"/>
      <path class="cls-2" d="M281.5,439l-8,12c-1.01,.83-1.14,1.66,0,1.5l26.71-5.79v12.11c0,.68-.51,1.26-1.17,1.33l-25.71-3.07c-.71,.08-1.33-.5-1.33-1.23v-3.25"/>
      <g>
        <path class="cls-1" d="M272.85,452.75c-.35,0-.62-.08-.7-.21-.07-.11,0-.3,.07-.44l8.87-12.81,18.08,7.17s-26.22,6.28-26.23,6.28c-.01,0-.05,0-.09,0Z"/>
        <path class="cls-8" d="M281.18,439.61l17.16,6.81-25.42,6.09s-.04,0-.07,0c-.3,0-.46-.06-.48-.06,0,0,0-.05,.06-.19l8.75-12.64m-.18-.61l-9,13c-.45,.92,.48,1,.85,1,.09,0,.15,0,.15,0l27-6.47-19-7.53h0Z"/>
      </g>
      <g>
        <path class="cls-1" d="M282.29,440.81c-1.55-.57-1.59-1.6-.09-2.29l71.48-33.04c1.5-.69,3.98-.76,5.51-.16l13.55,5.33c1.54,.6,1.57,1.66,.07,2.36l-70.89,32.77c-1.5,.69-3.99,.79-5.54,.22l-14.1-5.19Z"/>
        <path class="cls-6" d="M282.29,440.81c-1.55-.57-1.59-1.6-.09-2.29l71.48-33.04c1.5-.69,3.98-.76,5.51-.16l13.55,5.33c1.54,.6,1.57,1.66,.07,2.36l-70.89,32.77c-1.5,.69-3.99,.79-5.54,.22l-14.1-5.19Z"/>
      </g>
      <path class="cls-7" d="M301.11,446.15l72.03-33.29c.21-.1,.45,.05,.46,.28l.38,11.14c.01,.44-.23,.84-.63,1.03l-73.17,34.61c-.08,.04-.17-.02-.17-.11l.47-12.7c.02-.41,.26-.78,.63-.95Z"/>
    </g>
    <g>
      <line class="cls-4" x1="358" y1="312.9" x2="167.39" y2="417.39"/>
      <g>
        <path class="cls-1" d="M219.09,89.39c-.05-3.3,2.44-5.07,5.54-3.94l226.46,82.52c3.1,1.13,5.64,4.75,5.64,8.05v135.39c0,3.3-2.53,5.05-5.62,3.89l-224.23-84.2c-3.09-1.16-5.66-4.81-5.71-8.11l-2.08-133.61Z"/>
        <path class="cls-6" d="M219.09,89.39c-.05-3.3,2.44-5.07,5.54-3.94l226.46,82.52c3.1,1.13,5.64,4.75,5.64,8.05v135.39c0,3.3-2.53,5.05-5.62,3.89l-224.23-84.2c-3.09-1.16-5.66-4.81-5.71-8.11l-2.08-133.61Z"/>
      </g>
      <line class="cls-3" x1="428.74" y1="326.41" x2="454.74" y2="315.41"/>
      <g>
        <path class="cls-1" d="M297.13,317.07c1-.46,2.66-.53,3.69-.15l53.8,19.88c1.03,.38,1.06,1.08,.07,1.56l-15.01,7.17c-.99,.47-2.65,.55-3.68,.17l-54.27-19.96c-1.03-.38-1.06-1.07-.06-1.53l15.45-7.14Z"/>
        <path class="cls-6" d="M297.13,317.07c1-.46,2.66-.53,3.69-.15l53.8,19.88c1.03,.38,1.06,1.08,.07,1.56l-15.01,7.17c-.99,.47-2.65,.55-3.68,.17l-54.27-19.96c-1.03-.38-1.06-1.07-.06-1.53l15.45-7.14Z"/>
      </g>
      <g>
        <path class="cls-1" d="M297.13,301.07c1-.46,2.66-.53,3.69-.15l54.17,19.92c1.03,.38,1.06,1.07,.06,1.54l-15.36,7.17c-1,.47-2.66,.54-3.69,.16l-54.27-19.96c-1.03-.38-1.06-1.07-.06-1.53l15.45-7.14Z"/>
        <path class="cls-6" d="M297.13,301.07c1-.46,2.66-.53,3.69-.15l54.17,19.92c1.03,.38,1.06,1.07,.06,1.54l-15.36,7.17c-1,.47-2.66,.54-3.69,.16l-54.27-19.96c-1.03-.38-1.06-1.07-.06-1.53l15.45-7.14Z"/>
      </g>
      <path class="cls-4" d="M315,312.05v-33.48l18.18,6.83,.31,31.99c0,.54-.52,.92-1.03,.74l-17.46-6.08Z"/>
      <g>
        <path class="cls-1" d="M193.09,100.39c-.05-3.3,2.44-5.07,5.54-3.94l226.46,82.52c3.1,1.13,5.64,4.75,5.64,8.05v135.39c0,3.3-2.53,5.05-5.62,3.89l-224.23-84.2c-3.09-1.16-5.66-4.81-5.71-8.11l-2.08-133.61Z"/>
        <path class="cls-6" d="M193.09,100.39c-.05-3.3,2.44-5.07,5.54-3.94l226.46,82.52c3.1,1.13,5.64,4.75,5.64,8.05v135.39c0,3.3-2.53,5.05-5.62,3.89l-224.23-84.2c-3.09-1.16-5.66-4.81-5.71-8.11l-2.08-133.61Z"/>
      </g>
      <path class="cls-4" d="M307,313.87v-31.02c0-.41,.41-.69,.79-.53l17.35,7.03c.22,.09,.36,.3,.36,.53v29.81c0,.39-.39,.67-.76,.55l-17.35-5.83c-.23-.08-.39-.3-.39-.55Z"/>
      <line class="cls-3" x1="325.52" y1="320.05" x2="332.5" y2="318"/>
      <polyline class="cls-6" points="176.18 173.95 176.18 233.18 228 203.57"/>
      <circle class="cls-5" cx="176" cy="174" r="2"/>
      <circle class="cls-8" cx="459" cy="398" r="3"/>
      <circle class="cls-8" cx="287" cy="477.5" r="3"/>
      <circle class="cls-8" cx="379" cy="369" r="3"/>
      <circle class="cls-8" cx="85.5" cy="308.5" r="3"/>
      <g>
        <path class="cls-1" d="M222.38,425.59c-1.82,0-3.52-.27-4.8-.76l-163.43-62.38c-1.27-.49-2.02-1.14-2.04-1.8-.02-.66,.67-1.36,1.91-1.94l103.75-47.96c1.56-.72,3.77-1.14,6.05-1.14,1.75,0,3.4,.25,4.64,.71l167.38,61.67c1.26,.46,2.02,1.11,2.04,1.74,.02,.63-.69,1.33-1.91,1.89l-107.71,48.88c-1.52,.69-3.67,1.09-5.88,1.09Z"/>
        <path class="cls-8" d="M163.82,310.11h0c1.69,0,3.28,.24,4.47,.68l167.38,61.67c1.17,.43,1.71,.96,1.72,1.29,.01,.33-.48,.9-1.62,1.41l-107.71,48.88c-1.46,.66-3.53,1.04-5.67,1.04-1.76,0-3.4-.26-4.63-.73l-163.43-62.39c-1.25-.48-1.71-1.03-1.72-1.35-.01-.33,.41-.9,1.62-1.46l103.75-47.96c1.5-.69,3.63-1.09,5.84-1.09m0-1c-2.26,0-4.58,.4-6.26,1.18l-103.75,47.96c-3,1.38-2.92,3.48,.16,4.66l163.43,62.39c1.39,.53,3.17,.79,4.98,.79,2.2,0,4.44-.38,6.09-1.13l107.71-48.88c3.01-1.36,2.93-3.41-.17-4.55l-167.38-61.67c-1.35-.5-3.06-.74-4.81-.74h0Z"/>
      </g>
      <g>
        <path class="cls-1" d="M222.38,422.59c-1.82,0-3.52-.27-4.8-.76l-163.43-62.38c-1.27-.49-2.02-1.14-2.04-1.8-.02-.66,.67-1.36,1.91-1.94l103.75-47.96c1.56-.72,3.77-1.14,6.05-1.14,1.75,0,3.4,.25,4.64,.71l167.38,61.67c1.26,.46,2.02,1.11,2.04,1.74,.02,.63-.69,1.33-1.91,1.89l-107.71,48.88c-1.52,.69-3.67,1.09-5.88,1.09Z"/>
        <path class="cls-8" d="M163.82,307.11h0c1.69,0,3.28,.24,4.47,.68l167.38,61.67c1.17,.43,1.71,.96,1.72,1.29,.01,.33-.48,.9-1.62,1.41l-107.71,48.88c-1.46,.66-3.53,1.04-5.67,1.04-1.76,0-3.4-.26-4.63-.73l-163.43-62.39c-1.25-.48-1.71-1.03-1.72-1.35-.01-.33,.41-.9,1.62-1.46l103.75-47.96c1.5-.69,3.63-1.09,5.84-1.09m0-1c-2.26,0-4.58,.4-6.26,1.18l-103.75,47.96c-3,1.38-2.92,3.48,.16,4.66l163.43,62.39c1.39,.53,3.17,.79,4.98,.79,2.2,0,4.44-.38,6.09-1.13l107.71-48.88c3.01-1.36,2.93-3.41-.17-4.55l-167.38-61.67c-1.35-.5-3.06-.74-4.81-.74h0Z"/>
      </g>
      <line class="cls-3" x1="52" y1="358" x2="52" y2="361"/>
      <line class="cls-3" x1="338" y1="371.5" x2="338" y2="374.5"/>
      <line class="cls-4" x1="203" y1="254" x2="4" y2="346.39"/>
      <line class="cls-4" x1="26.03" y1="286.21" x2="123.77" y2="322.91"/>
      <line class="cls-4" x1="10.38" y1="375.48" x2="373.46" y2="509.01"/>
      <line class="cls-4" x1="268" y1="486.07" x2="477.58" y2="388.92"/>
      <line class="cls-4" x1="359.5" y1="361.5" x2="507.21" y2="415.67"/>
      <line class="cls-4" x1="304.21" y1="404.35" x2="459.9" y2="331.31"/>
      <path class="cls-7" d="M428.74,326.41l26.82-11.1s.95-.81,.95-3.81V175.52s-1-2.02-2-4.02l-25,11s1,1,1,3l.24,136.73s.24,3.09-2,4.18Z"/>
      <path class="cls-8" d="M337.88,330.39l18.12-8.39v15.31c0,.42-.25,.8-.63,.97l-17.37,7.72-.12-15.61Z"/>
      <polygon class="cls-8" points="280.5 309.05 336.5 330.5 336.5 345.5 280.5 325.05 280.5 309.05"/>
      <path class="cls-8" d="M224.5,422.18v3.39s1.31,.43,4.9-1.07l108.6-49.5s1-.64,1-1.32v-1.82l-2,1.14-110,49s-1,.37-2.5,.18Z"/>
      <path class="cls-8" d="M52,358v3s1,1,3,2l161.32,61.44s2.18,2.14,6.68,1.56v-3s-1.5,.5-5.5-1.5l-163-62s-2-1-2.5-1.5Z"/>
      <path class="cls-8" d="M195,96l26-11s2.33-.4,3.92,.55l226.43,82.51s.89,.09,1.65,.94l-26,11s-.19-.88-2.35-1.19L198.5,96.5s-1.5-.5-3.5-.5Z"/>
      <polygon class="cls-8" points="325.19 289.04 333.25 292.11 333 318 325 320 325.19 289.04"/>
    </g>
    <g>
      <line class="cls-4" x1="183" y1="85.39" x2="209" y2="74.39"/>
      <g>
        <path class="cls-1" d="M90.03,16.78c0-3.3,2.53-5.07,5.63-3.93l175.07,64.39c3.1,1.14,5.6,4.77,5.55,8.07l-1.21,94.76c-.04,3.3-2.63,5.11-5.74,4.03L95.7,123.62c-3.12-1.09-5.67-4.67-5.67-7.97V16.78Z"/>
        <path class="cls-6" d="M90.03,16.78c0-3.3,2.53-5.07,5.63-3.93l175.07,64.39c3.1,1.14,5.6,4.77,5.55,8.07l-1.21,94.76c-.04,3.3-2.63,5.11-5.74,4.03L95.7,123.62c-3.12-1.09-5.67-4.67-5.67-7.97V16.78Z"/>
      </g>
      <g>
        <path class="cls-1" d="M80.03,22.78c0-3.3,2.53-5.07,5.63-3.93l175.07,64.39c3.1,1.14,5.6,4.77,5.55,8.07l-1.21,94.76c-.04,3.3-2.63,5.11-5.74,4.03l-173.63-60.47c-3.12-1.09-5.67-4.67-5.67-7.97V22.78Z"/>
        <path class="cls-6" d="M80.03,22.78c0-3.3,2.53-5.07,5.63-3.93l175.07,64.39c3.1,1.14,5.6,4.77,5.55,8.07l-1.21,94.76c-.04,3.3-2.63,5.11-5.74,4.03l-173.63-60.47c-3.12-1.09-5.67-4.67-5.67-7.97V22.78Z"/>
      </g>
      <line class="cls-6" x1="82.53" y1="18.86" x2="92.53" y2="12.86"/>
      <line class="cls-6" x1="264.49" y1="86.43" x2="274.49" y2="80.43"/>
      <line class="cls-6" x1="263.56" y1="189.54" x2="273.56" y2="183.54"/>
      <path class="cls-4" d="M94.66,35l152.43,56s5.59,5.48,0,9.49L94.66,44.34s-4.84-7.84,0-9.34Z"/>
      <path class="cls-4" d="M91.87,113l96.56,35.06s3.54,3.43,0,5.94l-96.56-35.15s-3.07-4.91,0-5.85Z"/>
      <polygon class="cls-4" points="92.51 50.96 216.99 97.78 216.5 135.5 93.5 89.5 92.51 50.96"/>
      <path class="cls-7" d="M264.32,188.68c-.11,.16,.07,.36,.24,.26l9.81-5.98s.31,.3,.72-3.58,1.2-93.99,1.2-93.99c0,0-.47-4.03-1.63-4.96l-9.95,5.87s1.4,1.56,1.6,3.88l-1.22,95.49s.39,1.39-.76,3.01Z"/>
      <path class="cls-7" d="M83.61,18.32c-.05,0-.07-.06-.03-.09l8.95-5.37s1.1-.68,3.78,.23l171.96,63.24s4.05,.54,6.39,4.1l-9.95,5.87s-1.67-1.94-3.44-2.87L87.76,19.62s-3.02-1.27-4.15-1.3Z"/>
    </g>
  </g>
</svg>