<?xml version="1.0" encoding="UTF-8"?>
<svg id="_圖層_2" data-name="圖層 2" xmlns="http://www.w3.org/2000/svg" viewBox="0 0 512 512">
  <defs>
    <style>
      .cls-1 {
        fill: #fff;
      }

      .cls-1, .cls-2 {
        stroke: #334155;
        stroke-miterlimit: 10;
      }

      .cls-2 {
        fill: #334155;
      }
    </style>
  </defs>
  <path class="cls-2" d="M201.39,224.31l76.43,18.04c2.21,.52,1.96,3.75-.3,3.92l-29.61,7.11c-.74,.06-1.26,.76-1.1,1.48l-1.82,32.89c.48,2.14-2.36,3.37-3.59,1.55l-42.11-61.94c-1.02-1.5,.34-3.48,2.1-3.06Z"/>
  <path class="cls-1" d="M202.39,222.31l76.43,18.04c2.21,.52,1.96,3.75-.3,3.92l-29.61,7.11c-.74,.06-1.26,.76-1.1,1.48l-1.82,32.89c.48,2.14-2.36,3.37-3.59,1.55l-42.11-61.94c-1.02-1.5,.34-3.48,2.1-3.06Z"/>
</svg>