<?xml version="1.0" encoding="UTF-8"?>
<svg id="_圖層_3" data-name="圖層 3" xmlns="http://www.w3.org/2000/svg" viewBox="0 0 512 512">
  <defs>
    <style>
      .cls-1, .cls-2, .cls-3 {
        fill: #fff;
      }

      .cls-2 {
        stroke-width: .75px;
      }

      .cls-2, .cls-3 {
        stroke-linecap: round;
      }

      .cls-2, .cls-3, .cls-4, .cls-5 {
        stroke: #334155;
        stroke-miterlimit: 10;
      }

      .cls-6, .cls-5 {
        fill: #334155;
      }

      .cls-4 {
        fill: none;
      }
    </style>
  </defs>
  <g>
    <path class="cls-1" d="M214.29,291.81c-1.55-.57-1.59-1.6-.09-2.29l71.48-33.04c1.5-.69,3.98-.76,5.51-.16l13.55,5.33c1.54,.6,1.57,1.66,.07,2.36l-70.89,32.77c-1.5,.69-3.99,.79-5.54,.22l-14.1-5.19Z"/>
    <path class="cls-4" d="M214.29,291.81c-1.55-.57-1.59-1.6-.09-2.29l71.48-33.04c1.5-.69,3.98-.76,5.51-.16l13.55,5.33c1.54,.6,1.57,1.66,.07,2.36l-70.89,32.77c-1.5,.69-3.99,.79-5.54,.22l-14.1-5.19Z"/>
  </g>
  <line class="cls-3" x1="306" y1="249.5" x2="306" y2="262.5"/>
  <path class="cls-2" d="M213.5,277l-8,12c-1.01,.83-1.14,1.66,0,1.5l26.71-5.79v12.11c0,.68-.51,1.26-1.17,1.33l-25.71-3.07c-.71,.08-1.33-.5-1.33-1.23v-3.25"/>
  <g>
    <path class="cls-1" d="M204.85,290.75c-.35,0-.62-.08-.7-.21-.07-.11,0-.3,.07-.44l8.87-12.81,18.08,7.17s-26.22,6.28-26.23,6.28c-.01,0-.05,0-.09,0Z"/>
    <path class="cls-6" d="M213.18,277.61l17.16,6.81-25.42,6.09s-.04,0-.07,0c-.3,0-.46-.06-.48-.06,0,0,0-.05,.06-.19l8.75-12.64m-.18-.61l-9,13c-.45,.92,.48,1,.85,1,.09,0,.15,0,.15,0l27-6.47-19-7.53h0Z"/>
  </g>
  <g>
    <path class="cls-1" d="M214.29,278.81c-1.55-.57-1.59-1.6-.09-2.29l71.48-33.04c1.5-.69,3.98-.76,5.51-.16l13.55,5.33c1.54,.6,1.57,1.66,.07,2.36l-70.89,32.77c-1.5,.69-3.99,.79-5.54,.22l-14.1-5.19Z"/>
    <path class="cls-4" d="M214.29,278.81c-1.55-.57-1.59-1.6-.09-2.29l71.48-33.04c1.5-.69,3.98-.76,5.51-.16l13.55,5.33c1.54,.6,1.57,1.66,.07,2.36l-70.89,32.77c-1.5,.69-3.99,.79-5.54,.22l-14.1-5.19Z"/>
  </g>
  <path class="cls-5" d="M233.11,284.15l72.03-33.29c.21-.1,.45,.05,.46,.28l.38,11.14c.01,.44-.23,.84-.63,1.03l-73.17,34.61c-.08,.04-.17-.02-.17-.11l.47-12.7c.02-.41,.26-.78,.63-.95Z"/>
</svg>