<?xml version="1.0" encoding="UTF-8"?>
<svg id="_圖層_3" data-name="圖層 3" xmlns="http://www.w3.org/2000/svg" viewBox="0 0 512 512">
  <defs>
    <style>
      .cls-1, .cls-2, .cls-3 {
        fill: #fff;
      }

      .cls-2 {
        stroke-linecap: round;
      }

      .cls-2, .cls-4, .cls-3, .cls-5, .cls-6 {
        stroke: #334155;
        stroke-miterlimit: 10;
      }

      .cls-7, .cls-6 {
        fill: #334155;
      }

      .cls-5 {
        fill: none;
      }
    </style>
  </defs>
  <line class="cls-3" x1="354" y1="331.9" x2="163.39" y2="436.39"/>
  <g>
    <path class="cls-1" d="M215.09,108.39c-.05-3.3,2.44-5.07,5.54-3.94l226.46,82.52c3.1,1.13,5.64,4.75,5.64,8.05v135.39c0,3.3-2.53,5.05-5.62,3.89l-224.23-84.2c-3.09-1.16-5.66-4.81-5.71-8.11l-2.08-133.61Z"/>
    <path class="cls-5" d="M215.09,108.39c-.05-3.3,2.44-5.07,5.54-3.94l226.46,82.52c3.1,1.13,5.64,4.75,5.64,8.05v135.39c0,3.3-2.53,5.05-5.62,3.89l-224.23-84.2c-3.09-1.16-5.66-4.81-5.71-8.11l-2.08-133.61Z"/>
  </g>
  <line class="cls-2" x1="424.74" y1="345.41" x2="450.74" y2="334.41"/>
  <g>
    <path class="cls-1" d="M293.13,336.07c1-.46,2.66-.53,3.69-.15l53.8,19.88c1.03,.38,1.06,1.08,.07,1.56l-15.01,7.17c-.99,.47-2.65,.55-3.68,.17l-54.27-19.96c-1.03-.38-1.06-1.07-.06-1.53l15.45-7.14Z"/>
    <path class="cls-5" d="M293.13,336.07c1-.46,2.66-.53,3.69-.15l53.8,19.88c1.03,.38,1.06,1.08,.07,1.56l-15.01,7.17c-.99,.47-2.65,.55-3.68,.17l-54.27-19.96c-1.03-.38-1.06-1.07-.06-1.53l15.45-7.14Z"/>
  </g>
  <g>
    <path class="cls-1" d="M293.13,320.07c1-.46,2.66-.53,3.69-.15l54.17,19.92c1.03,.38,1.06,1.07,.06,1.54l-15.36,7.17c-1,.47-2.66,.54-3.69,.16l-54.27-19.96c-1.03-.38-1.06-1.07-.06-1.53l15.45-7.14Z"/>
    <path class="cls-5" d="M293.13,320.07c1-.46,2.66-.53,3.69-.15l54.17,19.92c1.03,.38,1.06,1.07,.06,1.54l-15.36,7.17c-1,.47-2.66,.54-3.69,.16l-54.27-19.96c-1.03-.38-1.06-1.07-.06-1.53l15.45-7.14Z"/>
  </g>
  <path class="cls-3" d="M311,331.05v-33.48l18.18,6.83,.31,31.99c0,.54-.52,.92-1.03,.74l-17.46-6.08Z"/>
  <g>
    <path class="cls-1" d="M189.09,119.39c-.05-3.3,2.44-5.07,5.54-3.94l226.46,82.52c3.1,1.13,5.64,4.75,5.64,8.05v135.39c0,3.3-2.53,5.05-5.62,3.89l-224.23-84.2c-3.09-1.16-5.66-4.81-5.71-8.11l-2.08-133.61Z"/>
    <path class="cls-5" d="M189.09,119.39c-.05-3.3,2.44-5.07,5.54-3.94l226.46,82.52c3.1,1.13,5.64,4.75,5.64,8.05v135.39c0,3.3-2.53,5.05-5.62,3.89l-224.23-84.2c-3.09-1.16-5.66-4.81-5.71-8.11l-2.08-133.61Z"/>
  </g>
  <path class="cls-3" d="M303,332.87v-31.02c0-.41,.41-.69,.79-.53l17.35,7.03c.22,.09,.36,.3,.36,.53v29.81c0,.39-.39,.67-.76,.55l-17.35-5.83c-.23-.08-.39-.3-.39-.55Z"/>
  <line class="cls-2" x1="321.52" y1="339.05" x2="328.5" y2="337"/>
  <polyline class="cls-5" points="172.18 192.95 172.18 252.18 224 222.57"/>
  <circle class="cls-4" cx="172" cy="193" r="2"/>
  <circle class="cls-7" cx="455" cy="417" r="3"/>
  <circle class="cls-7" cx="283" cy="496.5" r="3"/>
  <circle class="cls-7" cx="375" cy="388" r="3"/>
  <circle class="cls-7" cx="81.5" cy="327.5" r="3"/>
  <g>
    <path class="cls-1" d="M218.38,444.59c-1.82,0-3.52-.27-4.8-.76l-163.43-62.38c-1.27-.49-2.02-1.14-2.04-1.8-.02-.66,.67-1.36,1.91-1.94l103.75-47.96c1.56-.72,3.77-1.14,6.05-1.14,1.75,0,3.4,.25,4.64,.71l167.38,61.67c1.26,.46,2.02,1.11,2.04,1.74,.02,.63-.69,1.33-1.91,1.89l-107.71,48.88c-1.52,.69-3.67,1.09-5.88,1.09Z"/>
    <path class="cls-7" d="M159.82,329.11h0c1.69,0,3.28,.24,4.47,.68l167.38,61.67c1.17,.43,1.71,.96,1.72,1.29,.01,.33-.48,.9-1.62,1.41l-107.71,48.88c-1.46,.66-3.53,1.04-5.67,1.04-1.76,0-3.4-.26-4.63-.73l-163.43-62.39c-1.25-.48-1.71-1.03-1.72-1.35-.01-.33,.41-.9,1.62-1.46l103.75-47.96c1.5-.69,3.63-1.09,5.84-1.09m0-1c-2.26,0-4.58,.4-6.26,1.18l-103.75,47.96c-3,1.38-2.92,3.48,.16,4.66l163.43,62.39c1.39,.53,3.17,.79,4.98,.79,2.2,0,4.44-.38,6.09-1.13l107.71-48.88c3.01-1.36,2.93-3.41-.17-4.55l-167.38-61.67c-1.35-.5-3.06-.74-4.81-.74h0Z"/>
  </g>
  <g>
    <path class="cls-1" d="M218.38,441.59c-1.82,0-3.52-.27-4.8-.76l-163.43-62.38c-1.27-.49-2.02-1.14-2.04-1.8-.02-.66,.67-1.36,1.91-1.94l103.75-47.96c1.56-.72,3.77-1.14,6.05-1.14,1.75,0,3.4,.25,4.64,.71l167.38,61.67c1.26,.46,2.02,1.11,2.04,1.74,.02,.63-.69,1.33-1.91,1.89l-107.71,48.88c-1.52,.69-3.67,1.09-5.88,1.09Z"/>
    <path class="cls-7" d="M159.82,326.11h0c1.69,0,3.28,.24,4.47,.68l167.38,61.67c1.17,.43,1.71,.96,1.72,1.29,.01,.33-.48,.9-1.62,1.41l-107.71,48.88c-1.46,.66-3.53,1.04-5.67,1.04-1.76,0-3.4-.26-4.63-.73l-163.43-62.39c-1.25-.48-1.71-1.03-1.72-1.35-.01-.33,.41-.9,1.62-1.46l103.75-47.96c1.5-.69,3.63-1.09,5.84-1.09m0-1c-2.26,0-4.58,.4-6.26,1.18l-103.75,47.96c-3,1.38-2.92,3.48,.16,4.66l163.43,62.39c1.39,.53,3.17,.79,4.98,.79,2.2,0,4.44-.38,6.09-1.13l107.71-48.88c3.01-1.36,2.93-3.41-.17-4.55l-167.38-61.67c-1.35-.5-3.06-.74-4.81-.74h0Z"/>
  </g>
  <line class="cls-2" x1="48" y1="377" x2="48" y2="380"/>
  <line class="cls-2" x1="334" y1="390.5" x2="334" y2="393.5"/>
  <line class="cls-3" x1="199" y1="273" y2="365.39"/>
  <line class="cls-3" x1="22.03" y1="305.21" x2="119.77" y2="341.91"/>
  <line class="cls-3" x1="6.38" y1="394.48" x2="369.46" y2="528.01"/>
  <line class="cls-3" x1="264" y1="505.07" x2="473.58" y2="407.92"/>
  <line class="cls-3" x1="355.5" y1="380.5" x2="503.21" y2="434.67"/>
  <line class="cls-3" x1="300.21" y1="423.35" x2="455.9" y2="350.31"/>
  <path class="cls-6" d="M424.74,345.41l26.82-11.1s.95-.81,.95-3.81V194.52s-1-2.02-2-4.02l-25,11s1,1,1,3l.24,136.73s.24,3.09-2,4.18Z"/>
  <path class="cls-7" d="M333.88,349.39l18.12-8.39v15.31c0,.42-.25,.8-.63,.97l-17.37,7.72-.12-15.61Z"/>
  <polygon class="cls-7" points="276.5 328.05 332.5 349.5 332.5 364.5 276.5 344.05 276.5 328.05"/>
  <path class="cls-7" d="M220.5,441.18v3.39s1.31,.43,4.9-1.07l108.6-49.5s1-.64,1-1.32v-1.82l-2,1.14-110,49s-1,.37-2.5,.18Z"/>
  <path class="cls-7" d="M48,377v3s1,1,3,2l161.32,61.44s2.18,2.14,6.68,1.56v-3s-1.5,.5-5.5-1.5l-163-62s-2-1-2.5-1.5Z"/>
  <path class="cls-7" d="M191,115l26-11s2.33-.4,3.92,.55l226.43,82.51s.89,.09,1.65,.94l-26,11s-.19-.88-2.35-1.19L194.5,115.5s-1.5-.5-3.5-.5Z"/>
  <polygon class="cls-7" points="321.19 308.04 329.25 311.11 329 337 321 339 321.19 308.04"/>
</svg>