<?xml version="1.0" encoding="UTF-8"?>
<svg id="_圖層_3" data-name="圖層 3" xmlns="http://www.w3.org/2000/svg" viewBox="0 0 512 512">
  <defs>
    <style>
      .cls-1, .cls-2 {
        fill: #fff;
      }

      .cls-2, .cls-3, .cls-4 {
        stroke: #334155;
        stroke-miterlimit: 10;
      }

      .cls-3 {
        fill: none;
      }

      .cls-4 {
        fill: #334155;
      }
    </style>
  </defs>
  <line class="cls-2" x1="272" y1="240.39" x2="298" y2="229.39"/>
  <g>
    <path class="cls-1" d="M179.03,171.78c0-3.3,2.53-5.07,5.63-3.93l175.07,64.39c3.1,1.14,5.6,4.77,5.55,8.07l-1.21,94.76c-.04,3.3-2.63,5.11-5.74,4.03l-173.63-60.47c-3.12-1.09-5.67-4.67-5.67-7.97v-98.87Z"/>
    <path class="cls-3" d="M179.03,171.78c0-3.3,2.53-5.07,5.63-3.93l175.07,64.39c3.1,1.14,5.6,4.77,5.55,8.07l-1.21,94.76c-.04,3.3-2.63,5.11-5.74,4.03l-173.63-60.47c-3.12-1.09-5.67-4.67-5.67-7.97v-98.87Z"/>
  </g>
  <g>
    <path class="cls-1" d="M169.03,177.78c0-3.3,2.53-5.07,5.63-3.93l175.07,64.39c3.1,1.14,5.6,4.77,5.55,8.07l-1.21,94.76c-.04,3.3-2.63,5.11-5.74,4.03l-173.63-60.47c-3.12-1.09-5.67-4.67-5.67-7.97v-98.87Z"/>
    <path class="cls-3" d="M169.03,177.78c0-3.3,2.53-5.07,5.63-3.93l175.07,64.39c3.1,1.14,5.6,4.77,5.55,8.07l-1.21,94.76c-.04,3.3-2.63,5.11-5.74,4.03l-173.63-60.47c-3.12-1.09-5.67-4.67-5.67-7.97v-98.87Z"/>
  </g>
  <line class="cls-3" x1="171.53" y1="173.86" x2="181.53" y2="167.86"/>
  <line class="cls-3" x1="353.49" y1="241.43" x2="363.49" y2="235.43"/>
  <line class="cls-3" x1="352.56" y1="344.54" x2="362.56" y2="338.54"/>
  <path class="cls-2" d="M183.66,190l152.43,56s5.59,5.48,0,9.49l-152.43-56.15s-4.84-7.84,0-9.34Z"/>
  <path class="cls-2" d="M180.87,268l96.56,35.06s3.54,3.43,0,5.94l-96.56-35.15s-3.07-4.91,0-5.85Z"/>
  <polygon class="cls-2" points="181.51 205.96 305.99 252.78 305.5 290.5 182.5 244.5 181.51 205.96"/>
  <path class="cls-4" d="M353.32,343.68c-.11,.16,.07,.36,.24,.26l9.81-5.98s.31,.3,.72-3.58,1.2-93.99,1.2-93.99c0,0-.47-4.03-1.63-4.96l-9.95,5.87s1.4,1.56,1.6,3.88l-1.22,95.49s.39,1.39-.76,3.01Z"/>
  <path class="cls-4" d="M172.61,173.32c-.05,0-.07-.06-.03-.09l8.95-5.37s1.1-.68,3.78,.23l171.96,63.24s4.05,.54,6.39,4.1l-9.95,5.87s-1.67-1.94-3.44-2.87l-173.51-63.81s-3.02-1.27-4.15-1.3Z"/>
</svg>