<?xml version="1.0" encoding="UTF-8"?>
<svg id="_圖層_1" data-name="圖層 1" xmlns="http://www.w3.org/2000/svg" viewBox="0 0 340 222">
  <defs>
    <style>
      .cls-1, .cls-2 {
        fill: #fff;
      }

      .cls-3 {
        fill: #202933;
      }

      .cls-4 {
        letter-spacing: .1em;
      }

      .cls-5 {
        fill: #334155;
        font-family: Calibri-Bold, Calibri;
        font-size: 24px;
        font-weight: 700;
      }

      .cls-2, .cls-6, .cls-7 {
        stroke: #334155;
        stroke-miterlimit: 10;
      }

      .cls-8 {
        letter-spacing: .02em;
      }

      .cls-6, .cls-9 {
        fill: #10b981;
      }

      .cls-7 {
        fill: none;
      }

      .cls-10 {
        fill: #f59e0b;
      }

      .cls-11 {
        fill: #4c617a;
      }

      .cls-12 {
        letter-spacing: .1em;
      }
    </style>
  </defs>
  <path class="cls-3" d="M312.42,104.9c-15.51-29.91-40.6-47.66-56.04-39.66-6.82,3.54-10.61,11.51-11.39,21.88l-48.61,10.69c-5.06-9.09-11.85-14.73-19.52-15.08-17.38-.79-32.7,25.86-34.23,59.51-1.53,33.65,11.33,61.58,28.7,62.36,12.69,.58,24.28-13.48,30.2-34.21l69.23-15.23c14.08,16.33,30.49,24.22,41.77,18.38,15.44-8.01,15.4-38.74-.11-68.65Z"/>
  <text class="cls-5" transform="translate(55.49 49.17) rotate(3.75)"><tspan class="cls-4" x="0" y="0">PL</tspan><tspan class="cls-8" x="27.72" y="0">A</tspan><tspan class="cls-12" x="42.71" y="0">Y</tspan></text>
  <path class="cls-10" d="M116.07,136.66c1.42,7.54,5.32,11.91,13.07,12.49-.18,.38-.37,.76-.55,1.15-2.92,1.21-6.5,1.77-8.56,3.83-2,2-2.43,5.56-4.19,8.82-1.42-7.11-4.99-11.86-13.01-12.91,7.62-1.51,11.77-5.8,13.24-13.39Z"/>
  <path class="cls-10" d="M271.29,57.23c-1.89-1.83-4.26-4.12-6.1-5.91,1.89-1.81,4.21-4.02,6.28-5.99,1.69,1.7,4,4.03,6.02,6.06-1.8,1.69-4.18,3.94-6.2,5.84Z"/>
  <path class="cls-2" d="M307.87,102.83c-15.51-29.91-40.6-47.66-56.04-39.66-6.82,3.54-10.61,11.51-11.39,21.88l-48.61,10.69c-5.06-9.09-11.85-14.73-19.52-15.08-17.38-.79-32.7,25.86-34.23,59.51-1.53,33.65,11.33,61.58,28.7,62.36,12.69,.58,24.28-13.48,30.2-34.21l69.23-15.23c14.08,16.33,30.49,24.22,41.77,18.38,15.44-8.01,15.4-38.74-.11-68.65Z"/>
  <circle class="cls-7" cx="274.72" cy="107.72" r="22"/>
  <circle class="cls-6" cx="170.22" cy="130.7" r="22"/>
  <rect class="cls-1" x="153.22" y="125.76" width="33.5" height="10" rx="5" ry="5" transform="translate(-24.12 39.56) rotate(-12.4)"/>
  <rect class="cls-11" x="211.76" y="140.53" width="33.5" height="10" rx="5" ry="5" transform="translate(-25.93 52.48) rotate(-12.4)"/>
  <rect class="cls-1" x="153.18" y="125.35" width="34.5" height="10.3" rx="5" ry="5" transform="translate(261.28 -63.98) rotate(77.6)"/>
  <rect class="cls-7" x="26.44" y="25.79" width="115.05" height="35" rx="17.5" ry="17.5" transform="translate(3.01 -5.4) rotate(3.75)"/>
  <path class="cls-9" d="M128.77,87.9c-1.71,.02-2.65-.73-3.3-2.82-1.61-5.19-3.17-10.39-4.75-15.59-1.35-4.44-2.68-8.88-4.05-13.31-.46-1.49-.62-2.89,.62-4.12,1.21-1.18,2.56-.95,3.98-.51,9.42,2.88,18.85,5.74,28.28,8.62,.4,.12,.81,.24,1.2,.39,1.42,.54,2.27,1.53,2.25,3.1-.02,1.56-.86,2.53-2.33,3.02-4,1.35-7.97,2.76-11.98,4.07-1.48,.49-2.38,1.32-2.86,2.85-1.27,4.02-2.67,8-4.02,12-.49,1.45-1.47,2.28-3.04,2.3Z"/>
</svg>