<?xml version="1.0" encoding="UTF-8"?>
<svg id="_圖層_1" data-name="圖層 1" xmlns="http://www.w3.org/2000/svg" viewBox="0 0 340 487">
  <defs>
    <style>
      .cls-1, .cls-2 {
        stroke-linecap: round;
      }

      .cls-1, .cls-2, .cls-3, .cls-4, .cls-5 {
        stroke: #334155;
        stroke-miterlimit: 10;
      }

      .cls-1, .cls-2, .cls-5 {
        fill: none;
      }

      .cls-2 {
        stroke-dasharray: 0 0 11.86 11.86;
      }

      .cls-6 {
        fill: #334155;
      }

      .cls-3 {
        fill: #fff;
      }

      .cls-4 {
        fill: #10b981;
      }

      .cls-7 {
        fill: #f59e0b;
      }
    </style>
  </defs>
  <g>
    <path class="cls-1" d="M109.23,51.26s2.15,0,5.99,.2"/>
    <path class="cls-2" d="M127.04,52.41c40.81,4.34,139.22,25.07,160.69,124,22.56,103.91-167.6,105.08-233.94,102.38-16.45-.67-30.98,10.86-33.9,27.06-1.92,10.61-1.79,23.55,3.61,37.64,13.89,36.26,80.7,87.7,271.58,104.19"/>
    <path class="cls-1" d="M301,448.19c1.98,.16,3.97,.32,5.98,.47"/>
  </g>
  <rect class="cls-6" x="133.1" y="353.34" width="170.8" height="103.31" transform="translate(61.08 -27.42) rotate(8.34)"/>
  <rect class="cls-3" x="42.83" y="167.42" width="119.1" height="134.52" transform="translate(15.59 -6.2) rotate(3.75)"/>
  <rect class="cls-3" x="49.68" y="171.7" width="119.1" height="134.52" transform="translate(-37.36 20.91) rotate(-9.35)"/>
  <rect class="cls-3" x="131.1" y="351.34" width="170.8" height="103.31" transform="translate(60.77 -27.15) rotate(8.34)"/>
  <circle class="cls-3" cx="86.31" cy="223.75" r="22.92"/>
  <circle class="cls-4" cx="175.86" cy="397.31" r="28.36"/>
  <path class="cls-7" d="M235.29,24.47c1.66,8.8,6.21,13.9,15.25,14.58-.22,.45-.43,.89-.65,1.34-3.4,1.42-7.58,2.06-9.99,4.47-2.33,2.33-2.84,6.49-4.89,10.3-1.66-8.3-5.82-13.84-15.18-15.07,8.9-1.76,13.74-6.76,15.46-15.62Z"/>
  <path class="cls-7" d="M37.07,210.66c1.42,7.54,5.32,11.91,13.07,12.49-.18,.38-.37,.76-.55,1.15-2.92,1.21-6.5,1.77-8.56,3.83-2,2-2.43,5.56-4.19,8.82-1.42-7.11-4.99-11.86-13.01-12.91,7.62-1.51,11.77-5.8,13.24-13.39Z"/>
  <path class="cls-7" d="M307.07,352.66c1.42,7.54,5.32,11.91,13.07,12.49-.18,.38-.37,.76-.55,1.15-2.92,1.21-6.5,1.77-8.56,3.83-2,2-2.43,5.56-4.19,8.82-1.42-7.11-4.99-11.86-13.01-12.91,7.62-1.51,11.77-5.8,13.24-13.39Z"/>
  <path class="cls-7" d="M253.6,69.34c-2.2-2.13-4.97-4.81-7.12-6.89,2.21-2.11,4.92-4.69,7.33-6.99,1.97,1.98,4.67,4.7,7.03,7.07-2.1,1.97-4.88,4.6-7.23,6.81Z"/>
  <path class="cls-7" d="M169.29,314.23c-1.89-1.83-4.26-4.12-6.1-5.91,1.89-1.81,4.21-4.02,6.28-5.99,1.69,1.7,4,4.03,6.02,6.06-1.8,1.69-4.18,3.94-6.2,5.84Z"/>
  <g>
    <path class="cls-3" d="M287.73,81.39h0c4.97,0,9,4.03,9,9v9h-18v-9c0-4.97,4.03-9,9-9Z" transform="translate(108.92 -152.48) rotate(36.2)"/>
    <rect class="cls-4" x="252.16" y="90.71" width="18" height="72" transform="translate(125.24 -129.78) rotate(36.2)"/>
    <polygon class="cls-3" points="225.27 176.41 226.5 165.47 232.63 150.44 240.21 155.99 247.16 161.07 235.33 171.97 225.27 176.41"/>
    <line class="cls-5" x1="274.73" y1="98.84" x2="238.71" y2="148.07"/>
    <line class="cls-5" x1="283.61" y1="105.34" x2="247.58" y2="154.57"/>
    <line class="cls-5" x1="278.47" y1="102.2" x2="242.45" y2="151.43"/>
    <path class="cls-6" d="M226.6,169.66c1.76,1.29,3.53,2.58,5.29,3.87,.22,.16,.56,.04,.68-.18,.15-.25,.04-.52-.18-.68-1.76-1.29-3.53-2.58-5.29-3.87-.22-.16-.56-.04-.68,.18-.15,.25-.04,.52,.18,.68h0Z"/>
    <path class="cls-6" d="M225.93,169.18c.29,1.08,.21,2.12-.1,3.19-.33,1.14-.24,2.21-.07,3.36,.04,.27,.38,.42,.62,.35,.29-.08,.39-.35,.35-.62-.09-.57-.17-1.14-.14-1.72,.02-.54,.2-1.04,.34-1.56,.28-1.07,.26-2.2-.03-3.27-.17-.62-1.13-.36-.96,.27h0Z"/>
    <path class="cls-6" d="M230.79,172.26c-1.76,.47-3.39,1.31-4.82,2.44-.21,.17-.18,.53,0,.71,.21,.21,.49,.17,.71,0,1.29-1.02,2.79-1.76,4.38-2.18,.62-.17,.36-1.13-.27-.96h0Z"/>
    <path class="cls-6" d="M230.37,173.03l-2.56,.89c-.25,.09-.44,.35-.35,.62,.08,.24,.35,.44,.62,.35l2.56-.89c.25-.09,.44-.35,.35-.62-.08-.24-.35-.44-.62-.35h0Z"/>
    <path class="cls-6" d="M231.37,173.35c.64,0,.64-1,0-1s-.64,1,0,1h0Z"/>
    <path class="cls-6" d="M230.34,172.13c-.92,.34-1.86,.64-2.75,1.04-.61,.27-1.85,1.02-1.42,1.85,.26,.5,.87,.38,1.26,.11,.33-.23,.56-.56,.85-.83,.62-.57,1.42-.91,2.19-1.23,.21-.09,.37-.24,.37-.48,0-.22-.15-.43-.37-.48-.4-.1-.8-.2-1.19-.31s-.8-.2-1.21-.14c-.7,.1-1.23,.59-1.71,1.08-.32,.33-.07,.81,.35,.85,.62,.06,1.27-.12,1.77-.49,.25-.18,.5-.41,.66-.68,.21-.37,.11-.79-.22-1.05-.26-.21-.58-.36-.89-.48-.35-.14-.73-.25-1.01,.07-.27,.3-.19,.74,0,1.06,.06,.11,.16,.22,.21,.32,0,0,.02,.07,.02,.07,0,.04,0,.04,0,0,.14-.13,.15-.16,.06-.11l.75,.43c-.04-.54-.06-1.07-.11-1.61s-.15-1.02-.43-1.47l-.56,.73c1.3,.28,2.12,1.51,3.31,2.03l.25-.93c-.31,.03-.63,.06-.94,.09-.41,.04-.68,.53-.35,.85,.42,.42,.95,.72,1.53,.86l-.12-.91c-.82,.56-1.71,.98-2.67,1.24-.62,.17-.36,1.14,.27,.96,1.03-.29,2.02-.74,2.91-1.34,.34-.23,.32-.81-.12-.91s-.78-.3-1.09-.61l-.35,.85c.31-.03,.63-.06,.94-.09,.22-.02,.42-.14,.48-.37,.05-.2-.03-.48-.23-.56-1.28-.56-2.14-1.83-3.55-2.13-.41-.09-.81,.34-.56,.73,.21,.34,.27,.73,.3,1.12,.04,.48,.06,.96,.1,1.45,.03,.41,.4,.58,.75,.43,.38-.16,.49-.61,.41-.98-.03-.17-.12-.33-.21-.47-.04-.06-.08-.14-.13-.19-.02-.02-.04-.05-.04-.08-.02,.08-.01,.08,.01,0l-.13,.22h-.02c-.08,.03-.17,.05-.25,.08,.18,0,.52,.21,.69,.31,.01,0,.17,.11,.17,.11,0,0-.06-.19-.06-.19-.06,.01-.21,.22-.26,.27-.36,.3-.82,.4-1.28,.36l.35,.85c.32-.33,.7-.76,1.19-.81,.31-.03,.64,.1,.94,.17,.34,.09,.67,.17,1.01,.26v-.96c-.69,.29-1.4,.58-2.02,1.01-.3,.21-.58,.44-.83,.71-.15,.16-.42,.57-.66,.54l.25,.07c.17,.13,.22,.24,.13,.32l.03-.05c.05-.03,.09-.1,.14-.15,.1-.1,.21-.18,.33-.25,.26-.17,.55-.3,.84-.41,.73-.28,1.46-.54,2.19-.81,.25-.09,.43-.34,.35-.62-.07-.24-.36-.44-.62-.35h0Z"/>
    <path class="cls-6" d="M226.52,171.19c-.3,.63-.51,1.29-.61,1.99-.03,.19-.05,.39-.07,.59-.01,.16-.04,.34,0,.5,.08,.29,.39,.45,.67,.38,.17-.05,.31-.19,.43-.32,.21-.25,.34-.53,.47-.83,.14-.32,.28-.65,.42-.97s.3-.67,.43-1.01,.22-.74,.08-1.1c-.09-.25-.34-.43-.62-.35-.24,.07-.44,.36-.35,.62,.08,.21-.03,.45-.13,.69-.13,.3-.26,.61-.39,.91s-.25,.59-.38,.88c-.05,.12-.11,.24-.18,.36-.01,.02-.1,.15-.08,.13-.02,.02-.17,.15-.09,.09l.25-.07h-.03c.12,.05,.24,.1,.35,.15l-.03-.03,.15,.35c-.05-.4,.05-.85,.14-1.24,.1-.41,.23-.82,.41-1.2,.11-.24,.07-.54-.18-.68-.22-.13-.57-.07-.68,.18h0Z"/>
    <path class="cls-6" d="M225.98,169.14c2.05,1.51,4.16,2.95,6.24,4.42,.53,.37,1.03-.5,.5-.86-2.08-1.47-4.19-2.91-6.24-4.42-.22-.16-.56-.04-.68,.18-.15,.25-.04,.52,.18,.68h0Z"/>
  </g>
  <g>
    <path class="cls-3" d="M206.05,58.2h0c2.99,0,5.41,2.42,5.41,5.41v5.41h-10.82v-5.41c0-2.99,2.42-5.41,5.41-5.41Z" transform="translate(-8.49 85.4) rotate(-22.96)"/>
    <rect class="cls-4" x="211.19" y="66.88" width="10.82" height="43.27" transform="translate(-17.37 91.49) rotate(-22.96)"/>
    <polygon class="cls-3" points="231.19 122.35 225.92 118.35 220.06 110.55 225.26 108.35 230.02 106.33 232 115.79 231.19 122.35"/>
    <line class="cls-5" x1="206.41" y1="72.93" x2="220.71" y2="106.68"/>
    <line class="cls-5" x1="212.5" y1="70.35" x2="226.8" y2="104.11"/>
    <line class="cls-5" x1="209.29" y1="72.03" x2="223.59" y2="105.79"/>
    <path class="cls-6" d="M228.22,119.75l3.63-1.54c.25-.11,.3-.47,.18-.68-.15-.26-.43-.29-.68-.18l-3.63,1.54c-.25,.11-.3,.47-.18,.68,.15,.26,.43,.29,.68,.18h0Z"/>
    <path class="cls-6" d="M227.61,119.97c.32,.09,.51,.17,.8,.35,.07,.04,.14,.09,.2,.14,.05,.03,.07,.05,.13,.11,.13,.11,.25,.23,.36,.36,.25,.27,.51,.51,.83,.69s.66,.32,1.01,.46c.24,.1,.56-.11,.62-.35,.07-.29-.09-.51-.35-.62-.27-.11-.56-.23-.84-.41-.26-.16-.47-.42-.71-.66-.49-.49-1.11-.85-1.77-1.04-.25-.07-.56,.09-.62,.35s.08,.54,.35,.62h0Z"/>
    <path class="cls-6" d="M230.56,118.17c-.29,1.04-.38,2.14-.24,3.22,.03,.26,.21,.51,.5,.5,.24-.01,.54-.22,.5-.5-.13-1.03-.07-1.98,.21-2.95,.07-.25-.09-.56-.35-.62s-.54,.08-.62,.35h0Z"/>
    <path class="cls-6" d="M230.83,118.62l-.33,1.6c-.03,.13-.02,.27,.05,.39,.06,.1,.18,.2,.3,.23,.25,.06,.56-.08,.62-.35l.33-1.6c.03-.13,.02-.27-.05-.39-.06-.1-.18-.2-.3-.23-.25-.06-.56,.08-.62,.35h0Z"/>
    <path class="cls-6" d="M231.23,118.61c.64,0,.64-1,0-1s-.64,1,0,1h0Z"/>
    <path class="cls-6" d="M230.35,118.36c-.1,.53-.22,1.06-.29,1.6s-.12,1.48,.55,1.68c.46,.13,.77-.27,.79-.68,.02-.29-.1-.55-.16-.83-.05-.21-.06-.44-.04-.71s.05-.52,.08-.72c.03-.22-.02-.45-.23-.56-.2-.1-.44-.08-.61,.08-.18,.17-.35,.35-.53,.52-.16,.16-.33,.32-.43,.52-.24,.47-.16,.98-.03,1.47,.05,.19,.22,.33,.42,.36,.21,.03,.38-.07,.5-.24,.24-.33,.36-.76,.32-1.16-.02-.23-.07-.45-.18-.65-.16-.29-.51-.41-.82-.3-.21,.07-.39,.19-.57,.32-.26,.2-.49,.43-.38,.79,.1,.32,.43,.46,.74,.47,.05,0,.09,0,.14,0,.02,0,.15-.01,.06,0-.04,0-.04,0,0,0-.06-.03-.07-.03-.04-.01,.03,.02,.02,.01-.03-.03-.06-.26-.09-.32-.1-.21l.75-.43c-.57-.29-1.19-.71-1.85-.7l.35,.85s.08-.08,.12-.12c.02-.02,.04-.04,.06-.05-.04,.03-.05,.04-.02,.02,.09-.05,.17-.11,.26-.16,.08-.04,.17-.08,.26-.12-.11,.05,.01,0,.03-.01,.05-.02,.1-.04,.16-.06,.4-.15,.82-.29,1.17-.55l-.68-.68c-.08,.17-.16,.34-.24,.51-.09,.19-.09,.39,.04,.56,.12,.16,.33,.23,.53,.18,.38-.1,.73-.3,1-.58l-.85-.35c.02,.3,.01,.6-.02,.9,0,.04,0,.07-.01,.11-.01,.09,0-.06,0,.03-.01,.07-.02,.14-.04,.22-.03,.15-.06,.3-.11,.45-.07,.25,.09,.55,.35,.62s.54-.08,.62-.35c.17-.64,.25-1.31,.21-1.97-.01-.2-.12-.38-.31-.46s-.4-.04-.55,.1c-.02,.02-.04,.04-.07,.06,0,0-.1,.08-.05,.05,.04-.03-.03,.02-.04,.03-.03,.02-.06,.04-.1,.06-.03,.02-.05,.03-.08,.04-.03,.02-.05,.03,0,0-.07,.03-.14,.05-.22,.07l.56,.73,.24-.51c.09-.2,.09-.45-.08-.61-.15-.14-.42-.21-.61-.08-.17,.12-.35,.22-.54,.3,.11-.05-.05,.02-.07,.03-.05,.02-.1,.04-.16,.06-.09,.03-.18,.07-.27,.1-.44,.17-.86,.37-1.19,.72-.29,.31-.09,.86,.35,.85,.02,0,.21,.02,.12,0,.07,.01,.13,.03,.19,.05,.03,.01,.06,.02,.1,.03,.06,.02,.06,.02,.02,0,.05,.02,.11,.05,.16,.08,.25,.13,.51,.26,.76,.39,.16,.08,.34,.09,.5,0s.22-.25,.25-.43c.04-.33-.24-.61-.53-.71-.12-.04-.24-.05-.37-.04-.05,0-.09,0-.14,0-.06,0-.06,0,0,0,.11,.09,.14,.1,.09,.04l.13,.22v.07c-.02,.08-.04,.17-.06,.25-.04,.04-.04,.05-.01,.02,.02-.02,.04-.03,.06-.05-.04,.03,0,0,.02-.01,.08-.05,.16-.1,.24-.15,.02-.01,.04-.02,.07-.04l-.04,.02c-.07,0-.13-.01-.18-.06-.08,0-.12-.03-.14-.09-.01-.03-.01-.03,0,.02v.04s.03,.09,.04,.13c-.01-.07,0-.03,0,.02,0,.04,0,.07,0,.11,0,.01-.01,.13,0,.07s-.01,.05-.01,.06c-.01,.04-.02,.08-.04,.13-.03,.09,.02-.02,0,.02-.04,.07-.08,.14-.13,.21l.91,.12c-.02-.09-.05-.18-.07-.27,0-.04-.02-.08-.02-.12,.02,.09,0-.06,0-.07,0-.04,0-.08,0-.12,0-.05-.02,.05,0-.03,0,0,.05-.14,.01-.06,.02-.04,.04-.07,.06-.1,.03-.06-.06,.07,.02-.03,.03-.03,.05-.06,.08-.09,.07-.07,.14-.14,.2-.2,.15-.15,.3-.29,.44-.44l-.84-.49c-.06,.46-.14,.92-.11,1.39,.01,.24,.05,.48,.11,.71,.03,.1,.06,.2,.09,.3,0,.02,.01,.05,.02,.07,0-.04,0-.05,0,0,0,.02,0,.05,0,.07,0-.13,.08-.22,.24-.28h.27c.07,.03,.12,.07,.16,.13l-.02-.03c.02,.05,.03,.05,0-.01v-.05s-.04-.15-.03-.06c0-.05,0-.1,0-.15,0-.1,0-.2,.01-.3,0-.11,0,.03,0-.07,0-.06,.02-.12,.03-.18,.08-.44,.17-.88,.25-1.32,.05-.26-.07-.55-.35-.62-.25-.06-.56,.07-.62,.35h0Z"/>
    <path class="cls-6" d="M228.71,120.2c.18,.27,.39,.53,.63,.75,.13,.12,.27,.24,.41,.35,.12,.1,.25,.19,.4,.25,.23,.1,.53,.01,.65-.22,.08-.16,.08-.32,.04-.49s-.13-.34-.24-.49c-.19-.28-.4-.55-.6-.83-.23-.32-.48-.74-.91-.81-.14-.02-.26-.02-.39,.05-.1,.06-.2,.18-.23,.3-.06,.24,.07,.57,.35,.62,.02,0,.04,0,.05,.01,.07,.01-.03,0-.04-.02,0,.01,.04,.03,.06,.04,.05,.03-.07-.07-.04-.03,.02,.03,.05,.05,.08,.08,.02,.02,.03,.04,.05,.06-.01-.01-.06-.09-.03-.03,.12,.17,.24,.34,.37,.5s.24,.33,.36,.49c.05,.07,.11,.15,.15,.23,.01,.02,.02,.04,.03,.06,.04,.08-.02-.08,0-.02,0,.02,.01,.04,.02,.06,.01,.05,0,.1,0-.04l.07-.25v.02c.09-.08,.19-.15,.29-.23h-.02c.13,.02,.26,.04,.39,.05-.06-.03-.12-.07-.17-.11-.03-.02-.06-.04-.09-.06-.03-.02-.1-.09,0,0-.1-.09-.2-.17-.3-.26s-.19-.19-.27-.29c-.02-.02-.04-.05-.06-.07-.01-.02-.03-.03-.04-.05l.04,.05s-.12-.16-.13-.18c-.15-.22-.45-.33-.68-.18-.22,.14-.34,.45-.18,.68h0Z"/>
    <path class="cls-6" d="M227.77,119.91c1.41-.6,2.8-1.23,4.2-1.86,.25-.11,.31-.47,.18-.68-.15-.25-.44-.29-.68-.18-1.4,.62-2.79,1.26-4.2,1.86-.25,.11-.3,.47-.18,.68,.15,.26,.43,.28,.68,.18h0Z"/>
  </g>
  <path class="cls-4" d="M126.52,158.06l52.06,29.72c.71,.41,.42,1.49-.4,1.49l-6.73-.06c-.59,0-.98,.6-.73,1.13l1.74,3.69c.28,.6-.25,1.26-.89,1.12l-2.46-.56c-.68-.15-1.21,.57-.86,1.17l3.21,5.55c.41,.7-.38,1.49-1.08,1.09l-52.26-29.83c-.65-.37-.48-1.35,.26-1.47l5.48-.93c.53-.09,.82-.67,.57-1.15l-1.1-2.14c-.3-.58,.19-1.25,.83-1.15l2.9,.44c.61,.09,1.09-.52,.85-1.09l-2.52-6.01c-.29-.7,.47-1.37,1.13-1Z"/>
  <line class="cls-5" x1="68.96" y1="292.94" x2="134.08" y2="282.66"/>
  <line class="cls-5" x1="223.9" y1="393.02" x2="289.13" y2="402.58"/>
  <line class="cls-5" x1="222.9" y1="401.02" x2="248.5" y2="404.5"/>
  <line class="cls-5" x1="221.9" y1="409.02" x2="267.5" y2="415.5"/>
  <line class="cls-5" x1="220.9" y1="418.02" x2="260.5" y2="423.5"/>
  <line class="cls-5" x1="101.52" y1="298.08" x2="166.63" y2="287.8"/>
  <rect class="cls-3" x="90.38" y="217.97" width="54.84" height="41.98" transform="translate(-35.83 21.3) rotate(-8.97)"/>
  <rect class="cls-6" x="210.43" y="444.11" width="76.51" height="9.1" transform="translate(67.73 -31.34) rotate(8.34)"/>
</svg>