<?xml version="1.0" encoding="utf-8"?>
<!-- Generator: Adobe Illustrator 27.0.0, SVG Export Plug-In . SVG Version: 6.00 Build 0)  -->
<svg version="1.1" id="_圖層_1" xmlns="http://www.w3.org/2000/svg" xmlns:xlink="http://www.w3.org/1999/xlink" x="0px" y="0px"
	 viewBox="0 0 310.5 247.1" style="enable-background:new 0 0 310.5 247.1;" xml:space="preserve">
<style type="text/css">
	.st0{fill:#334155;}
	.st1{fill:#FFFFFF;stroke:#334155;stroke-miterlimit:10;}
	.st2{fill:none;stroke:#334155;stroke-width:3;stroke-miterlimit:10;}
	.st3{fill:#F59E0B;}
	.st4{fill:#293038;}
	.st5{fill:#4C617A;}
	.st6{fill:none;stroke:#334155;stroke-miterlimit:10;}
	.st7{fill:#10B981;stroke:#334155;stroke-miterlimit:10;}
	.st8{fill:#FFFFFF;}
</style>
<path class="st0" d="M12.6,52.8h233.3c2.9,0,5.2,2.3,5.2,5.2v139.2c0,2.9-2.3,5.2-5.2,5.2H12.6c-2.9,0-5.2-2.3-5.2-5.2V58
	C7.3,55.1,9.7,52.8,12.6,52.8z"/>
<rect x="4.6" y="49.3" class="st1" width="243.8" height="149.7"/>
<line class="st2" x1="70.5" y1="88.9" x2="161.9" y2="88.9"/>
<line class="st2" x1="70.3" y1="78.9" x2="158" y2="78.9"/>
<line class="st2" x1="168.7" y1="88.9" x2="233.7" y2="88.9"/>
<path class="st3" d="M238.2,13.6c1.4,7.5,5.3,11.9,13.1,12.5c-0.2,0.4-0.4,0.8-0.5,1.2c-2.9,1.2-6.5,1.8-8.6,3.8
	c-2,2-2.4,5.6-4.2,8.8c-1.4-7.1-5-11.9-13-12.9C232.6,25.5,236.7,21.2,238.2,13.6L238.2,13.6z"/>
<path class="st3" d="M282.4,15.2c-1.9-1.8-4.3-4.1-6.1-5.9c1.9-1.8,4.2-4,6.3-6c1.7,1.7,4,4,6,6.1C286.8,11,284.4,13.3,282.4,15.2
	L282.4,15.2z"/>
<path class="st4" d="M171.5,231.5c-7.5-1.5-23.6-2.5-42.3-2.5c-20.3,0-37.6,1.2-44,2.9l-2.8-1.2v2.7c0,2.4,21,4.3,46.8,4.3
	s45.9-1.9,46.8-4.2l0,0v-3L171.5,231.5L171.5,231.5z"/>
<ellipse class="st0" cx="129.1" cy="230.7" rx="46.8" ry="4.3"/>
<rect x="126.9" y="202.5" class="st0" width="8.2" height="26.4"/>
<rect x="18.3" y="59.3" class="st0" width="37.3" height="128.1"/>
<rect x="70.3" y="59.3" class="st5" width="163.9" height="12.6"/>
<rect x="70.5" y="99.8" class="st6" width="163.6" height="88.2"/>
<g>
	<path class="st7" d="M272.8,181.8c-6.5,3.6-4.8,7.8-2.2,12c0.6,1,0.9,2.1,1.2,3.2c1.1,3.8,1.6,4.2,5.6,4.1c2.3-0.1,3,0.7,2.8,2.9
		c-0.1,1.5,0,3,0,4.2c-0.5,0.3-0.6,0.5-0.8,0.5c-5.2-0.8-7.6,1.7-8.5,6.6c-0.2,1.4-1.1,2.8-1.9,4.1c-1.5,2.4-1.3,4.5,0.9,6.4
		c0.7,0.6,1.3,1.4,2.1,2.2c-0.5,0.7-1,1.2-1.4,1.7c-2.3,2.4-4.6,2.6-7.1,0.5c-1.6-1.3-3.2-1-4.9-0.1c-2.4,1.2-4.8,2.3-7.3,3.1
		c-2.7,0.8-3.8,2.2-3.7,5c0,1.1-0.4,3.1-0.9,3.2c-2,0.3-4.2,0.2-6.2-0.1c-0.3,0-0.6-1.7-0.6-2.6c-0.1-4-0.4-4.3-4.2-5.6
		c-2.2-0.7-4.5-1.7-6.5-2.8c-2.3-1.3-4.1-1.1-5.9,0.8c-2.4,2.6-2.5,2.5-5.1,0c-0.4-0.4-0.8-0.9-1.3-1.3c-1.2-1-1.2-1.9-0.1-3.1
		c3.4-3.7,3.4-3.7,1-8.4c-0.8-1.6-1.5-3.4-2-5.2c-1.1-3.5-1.7-4.2-5.4-4.1c-2.5,0.1-3.4-0.7-3.1-3.1c0.1-0.8,0.1-1.6,0-2.4
		c-0.1-1.6,0.5-2.2,2.1-2.2c5.1-0.2,5-0.3,6.6-5c0.6-1.9,1.5-3.8,2.4-5.6c1.6-2.9,1.6-3.9-0.9-6.2c-2.1-1.8-2.1-3.2,0.1-4.8
		c0.6-0.5,1.2-1,1.7-1.6c1-1.2,1.8-1,2.8,0c3.7,3.4,3.7,3.3,8.2,1.2c1.9-0.9,3.9-1.7,5.9-2.3c2.5-0.7,3.6-2.1,3.6-4.8
		c-0.1-3.5,0-3.6,3.6-3.6c0.6,0,1.2,0.1,1.9,0c1.5-0.1,2.2,0.5,2.3,2.1c0.2,5,0.3,4.9,5,6.6c2.2,0.7,4.3,1.7,6.3,2.8
		c2,1.1,3.7,0.9,5.2-0.8c3.1-3.3,2.7-2.7,5.6,0.1C270.3,180.1,271.2,180.7,272.8,181.8L272.8,181.8z M243.5,184.4
		c-11.4,0-20.7,9.4-20.6,20.8c0,11.2,9.4,20.6,20.6,20.6c11.4,0.1,20.8-9.3,20.8-20.7C264.3,193.6,255,184.4,243.5,184.4
		L243.5,184.4z"/>
	<path class="st8" d="M243.5,184.4c11.5,0,20.8,9.2,20.7,20.7c0,11.4-9.4,20.8-20.8,20.7c-11.2-0.1-20.6-9.4-20.6-20.6
		C222.8,193.8,232.1,184.4,243.5,184.4L243.5,184.4z M229.8,205.1c0,7.8,6,13.8,13.8,13.8c7.7,0,13.9-6.1,14-13.7
		c0-7.7-6.3-14.1-14-14.1C235.9,191.2,229.8,197.4,229.8,205.1L229.8,205.1z"/>
	<path class="st7" d="M229.8,205.1c0-7.7,6.1-13.9,13.7-13.9c7.6,0,14,6.4,14,14.1c0,7.6-6.3,13.7-14,13.7
		C235.8,218.9,229.8,212.8,229.8,205.1L229.8,205.1z"/>
</g>
<g>
	<path class="st7" d="M302.5,161c-3.2,1.8-2.4,3.8-1.1,5.9c0.3,0.5,0.4,1.1,0.6,1.6c0.6,1.9,0.8,2.1,2.8,2c1.1,0,1.5,0.4,1.4,1.4
		c-0.1,0.7,0,1.5,0,2.1c-0.2,0.1-0.3,0.2-0.4,0.2c-2.6-0.4-3.8,0.9-4.2,3.2c-0.1,0.7-0.5,1.4-0.9,2c-0.8,1.2-0.6,2.2,0.4,3.1
		c0.4,0.3,0.6,0.7,1,1.1c-0.3,0.3-0.5,0.6-0.7,0.8c-1.1,1.2-2.3,1.3-3.5,0.3c-0.8-0.7-1.6-0.5-2.4-0.1c-1.2,0.6-2.4,1.2-3.6,1.5
		c-1.3,0.4-1.9,1.1-1.8,2.4c0,0.6-0.2,1.6-0.4,1.6c-1,0.1-2.1,0.1-3.1-0.1c-0.2,0-0.3-0.8-0.3-1.3c-0.1-2-0.2-2.1-2.1-2.7
		c-1.1-0.4-2.2-0.8-3.2-1.4c-1.1-0.6-2-0.5-2.9,0.4c-1.2,1.3-1.2,1.2-2.5,0c-0.2-0.2-0.4-0.5-0.6-0.7c-0.6-0.5-0.6-0.9,0-1.5
		c1.7-1.8,1.7-1.8,0.5-4.1c-0.4-0.8-0.7-1.7-1-2.6c-0.5-1.8-0.8-2.1-2.7-2c-1.2,0.1-1.7-0.4-1.5-1.6c0-0.4,0-0.8,0-1.2
		c-0.1-0.8,0.2-1.1,1-1.1c2.5-0.1,2.5-0.1,3.2-2.5c0.3-0.9,0.7-1.9,1.2-2.8c0.8-1.5,0.8-1.9-0.5-3.1c-1-0.9-1-1.6,0-2.4
		c0.3-0.2,0.6-0.5,0.9-0.8c0.5-0.6,0.9-0.5,1.4,0c1.8,1.7,1.8,1.6,4,0.6c0.9-0.4,1.9-0.9,2.9-1.1c1.2-0.4,1.8-1.1,1.8-2.4
		c0-1.8,0-1.8,1.8-1.8c0.3,0,0.6,0,0.9,0c0.8-0.1,1.1,0.2,1.1,1c0.1,2.5,0.1,2.4,2.5,3.2c1.1,0.4,2.1,0.9,3.1,1.4
		c1,0.6,1.8,0.4,2.6-0.4c1.5-1.6,1.4-1.3,2.8,0.1C301.3,160.2,301.7,160.5,302.5,161L302.5,161z M288.1,162.3
		c-5.6,0-10.2,4.6-10.2,10.3c0,5.5,4.6,10.2,10.2,10.2c5.6,0,10.2-4.6,10.2-10.2C298.3,166.9,293.7,162.3,288.1,162.3L288.1,162.3z"
		/>
	<path class="st8" d="M288.1,162.3c5.7,0,10.2,4.6,10.2,10.2c0,5.6-4.6,10.3-10.2,10.2c-5.5,0-10.2-4.6-10.2-10.2
		C277.8,166.9,282.4,162.3,288.1,162.3L288.1,162.3z M281.3,172.5c0,3.8,3,6.8,6.8,6.8c3.8,0,6.9-3,6.9-6.8c0-3.8-3.1-7-6.9-6.9
		S281.3,168.7,281.3,172.5L281.3,172.5z"/>
	<path class="st7" d="M281.3,172.5c0-3.8,3-6.9,6.8-6.9s6.9,3.1,6.9,6.9c0,3.8-3.1,6.8-6.9,6.8C284.2,179.3,281.3,176.3,281.3,172.5
		L281.3,172.5z"/>
</g>
</svg>
