<?xml version="1.0" encoding="utf-8"?>
<!-- Generator: Adobe Illustrator 27.0.0, SVG Export Plug-In . SVG Version: 6.00 Build 0)  -->
<svg version="1.1" id="_圖層_1" xmlns="http://www.w3.org/2000/svg" xmlns:xlink="http://www.w3.org/1999/xlink" x="0px" y="0px"
	 viewBox="0 0 709.8 340.1" style="enable-background:new 0 0 709.8 340.1;" xml:space="preserve">
<style type="text/css">
	.st0{fill:#231815;}
	.st1{font-family:'MicrosoftJhengHeiBold';}
	.st2{font-size:74.08px;}
	.st3{letter-spacing:4;}
	.st4{letter-spacing:7;}
	.st5{letter-spacing:9;}
	.st6{fill:none;stroke:#231815;stroke-miterlimit:10;stroke-dasharray:3,6;}
	.st7{fill:#24B07C;}
	.st8{fill:none;stroke:#231815;stroke-miterlimit:10;}
	.st9{fill:none;stroke:#231815;stroke-miterlimit:10;stroke-dasharray:0,6;}
	.st10{fill:#FFFFFF;stroke:#231815;stroke-miterlimit:10;}
	.st11{fill:none;stroke:#303644;stroke-width:2;stroke-miterlimit:10;}
	.st12{fill:#3A3F4D;}
	.st13{fill:#3C3F4A;}
	.st14{fill:#3C3F4B;}
	.st15{fill:#3D414D;}
	.st16{fill:#393D48;}
	.st17{fill:#E0213C;}
	.st18{fill:#21649C;}
	.st19{fill:none;stroke:#24B07C;stroke-width:2;stroke-miterlimit:10;}
	.st20{fill:none;stroke:#24B07C;stroke-miterlimit:10;}
</style>
<text transform="matrix(1 0 0 1 164.25 203.57)" class="st0 st1 st2 st3">P</text>
<text transform="matrix(1 0 0 1 215.03 203.57)" class="st0 st1 st2 st4">o</text>
<text transform="matrix(1 0 0 1 270.04 203.57)" class="st0 st1 st2 st5">r</text>
<text transform="matrix(1 0 0 1 308.98 203.57)" class="st0 st1 st2 st4">tfolio</text>
<circle class="st6" cx="651.2" cy="184.1" r="33.4"/>
<circle class="st6" cx="259.1" cy="294.2" r="33.4"/>
<circle class="st6" cx="461.9" cy="45" r="33.4"/>
<g>
	<path class="st7" d="M29.1,126.3l5.4,5c0.5,0.4,1.2,0.4,1.7,0l15.6-15.7c0.5-0.5,0.5-1.2,0-1.7l-4.5-4.7c-0.5-0.5-1.2-0.5-1.7,0
		l-16.5,15.4C28.6,125.1,28.6,125.9,29.1,126.3L29.1,126.3z"/>
	<path class="st7" d="M41.9,128.1l0.3,7.4c0,0.6,0.5,1.1,1.2,1.1l23.1-0.1c0.7,0,1.2-0.5,1.2-1.2l0.1-6.5c0-0.6-0.5-1.2-1.2-1.2
		l-23.5-0.8C42.5,126.9,41.9,127.4,41.9,128.1L41.9,128.1z"/>
	<circle class="st6" cx="46.4" cy="120.6" r="33.4"/>
	<path class="st8" d="M45.8,106.6l2.4-2.2c0,0,1.3-1,2.5-0.1l4.1,4c0,0,0.7,1.2-0.4,2.2l-20,20.2c-0.2,0.2-0.4,0.3-0.7,0.3l-7.1,1.2
		c-0.8,0.1-1.5-0.6-1.3-1.5l1.5-6.1c0.1-0.2,0.2-0.4,0.3-0.6L45.8,106.6L45.8,106.6z"/>
	<polyline class="st8" points="45.8,106.6 47.7,108.5 52,112.9 	"/>
	<line class="st8" x1="29.1" y1="126.6" x2="47.6" y2="109.1"/>
	<line class="st8" x1="30.9" y1="129.2" x2="49.2" y2="112"/>
	<path class="st9" d="M26.9,124.3l0.8,0.2c0.5,0.1,0.9,0.6,0.9,1.2s0,1.2,0,1.1c0,0,0.5,0.1,1,0.2c0.5,0.1,1,0.6,1,1.2v0.2
		c0,0.6,0.5,1.2,1.2,1.2l0,0c0.8,0,1.3,0.7,1.2,1.4l0,0.2"/>
	<path class="st8" d="M40.4,125.8h26.8c0.7,0,1.2,0.5,1.2,1.2v6.1c0,0.7-0.5,1.2-1.2,1.2H40.4c-0.7,0-1.2-0.5-1.2-1.2V127
		C39.2,126.4,39.8,125.8,40.4,125.8z"/>
	<line class="st8" x1="44.4" y1="128.7" x2="44.4" y2="126.3"/>
	<line class="st8" x1="48.9" y1="128.7" x2="48.9" y2="126.3"/>
	<line class="st8" x1="54.8" y1="128.7" x2="54.8" y2="126.3"/>
	<line class="st8" x1="61.2" y1="128.7" x2="61.2" y2="126.3"/>
	<line class="st8" x1="64.4" y1="134" x2="64.4" y2="130.4"/>
	<line class="st8" x1="59.9" y1="134" x2="59.9" y2="130.4"/>
	<line class="st8" x1="55.4" y1="134" x2="55.4" y2="130.4"/>
	<line class="st8" x1="50.9" y1="134" x2="50.9" y2="130.4"/>
	<line class="st8" x1="46.4" y1="134" x2="46.4" y2="130.4"/>
	<line class="st8" x1="41.9" y1="134" x2="41.9" y2="130.4"/>
</g>
<path class="st7" d="M110.6,60.7c0,0-3.1,9.9-10.4,9.9c0,0,8.2-0.3,10.4,8.3c0,0-0.7-9,9.2-9.1C119.8,69.8,111.3,70.1,110.6,60.7
	L110.6,60.7z"/>
<path class="st7" d="M95.7,89.1c0,0-1.5,4.9-5.2,4.9c0,0,4.1-0.2,5.2,4.2c0,0-0.3-4.5,4.6-4.6C100.2,93.6,96,93.8,95.7,89.1
	L95.7,89.1z"/>
<path class="st7" d="M255.6,191.7c0,0-1.9,6.2-6.6,6.2c0,0,5.2-0.2,6.6,5.3c0,0-0.4-5.7,5.8-5.8C261.4,197.5,256,197.6,255.6,191.7
	L255.6,191.7z"/>
<path class="st7" d="M176.4,255.8c0,0-1.5,4.9-5.2,4.9c0,0,4.1-0.2,5.2,4.2c0,0-0.3-4.5,4.6-4.5
	C181.1,260.4,176.8,260.5,176.4,255.8L176.4,255.8z"/>
<path class="st7" d="M537,260.8c0,0-3.7,12-12.6,12c0,0,9.9-0.4,12.6,10.1c0,0-0.8-10.9,11.2-11C548.1,271.8,537.8,272.1,537,260.8
	L537,260.8z"/>
<path class="st7" d="M679.4,224.4c0,0-1.4,4.4-4.6,4.4c0,0,3.6-0.1,4.6,3.7c0,0-0.3-4,4.1-4.1C683.5,228.5,679.7,228.6,679.4,224.4z
	"/>
<path class="st7" d="M591.9,80.9c0,0-3.1,9.9-10.4,9.9c0,0,8.2-0.3,10.4,8.3c0,0-0.7-9,9.2-9.1C601.1,90,592.6,90.2,591.9,80.9
	L591.9,80.9z"/>
<path class="st7" d="M434.9,11.7c0,0-3.1,9.9-10.4,9.9c0,0,8.2-0.3,10.4,8.3c0,0-0.7-9,9.2-9.1C444.1,20.8,435.6,21,434.9,11.7
	L434.9,11.7z"/>
<g>
	<g>
		<path class="st7" d="M647.2,194.9l-4.2-9.1c0,0-2.3-7.8,4.2-12.3c0,0,5.3-3.2,10,0c0,0,6.8,3.8,3.6,14l-4.3,7.4H647.2L647.2,194.9
			z"/>
		<path class="st8" d="M645.6,194.2l-4.2-9.1c0,0-2.3-7.8,4.2-12.3c0,0,5.3-3.2,10,0c0,0,6.8,3.8,3.6,14l-4.3,7.4L645.6,194.2
			L645.6,194.2z"/>
		<polygon class="st7" points="646.7,196.2 656.1,196.2 656.1,202.6 653.5,205.3 648.8,205.3 646.7,203.1 		"/>
		<polygon class="st8" points="645.8,195.6 655.3,195.6 655.3,202 652.7,204.6 647.9,204.6 645.8,202.5 		"/>
		<path class="st8" d="M647.6,183.5c0,0,2.5,2.8,5.2,0"/>
		<line class="st8" x1="649.3" y1="194" x2="648.3" y2="184.1"/>
		<line class="st8" x1="651" y1="194.5" x2="652.1" y2="184.1"/>
	</g>
	<line class="st8" x1="641.8" y1="190.6" x2="638.3" y2="194.9"/>
	<line class="st8" x1="637.7" y1="181.4" x2="633" y2="181.4"/>
	<line class="st8" x1="641.2" y1="171.5" x2="637.7" y2="168.4"/>
	<line class="st8" x1="650.6" y1="167.4" x2="650.6" y2="162.8"/>
	<line class="st8" x1="661.1" y1="171.6" x2="663.8" y2="168.4"/>
	<line class="st8" x1="664.2" y1="181.4" x2="669.4" y2="181.4"/>
	<line class="st8" x1="661.2" y1="191.8" x2="664.2" y2="195"/>
</g>
<g>
	<g>
		<path class="st7" d="M242.1,280.3h36.3c1.1,0,2,0.9,2,2v24c0,1.1-0.9,2-2,2h-36.3c-1.1,0-2-0.9-2-2v-24
			C240.1,281.2,241,280.3,242.1,280.3z"/>
		<polygon class="st7" points="256.2,308.2 264.8,308.2 264.8,310.7 269.2,311.7 269.2,315.2 251.4,315.2 251.4,311.7 256.1,310.8 
					"/>
	</g>
	<rect x="240.7" y="284.1" class="st10" width="34.3" height="18"/>
	<g>
		<path class="st8" d="M239.8,279.1H276c1.1,0,2,0.9,2,2v24c0,1.1-0.9,2-2,2h-36.3c-1.1,0-2-0.9-2-2v-24
			C237.8,280,238.6,279.1,239.8,279.1z"/>
		<polygon class="st8" points="253.8,307.1 262.5,307.1 262.5,309.6 266.8,310.6 266.8,314.1 249,314.1 249,310.6 253.7,309.7 		"/>
	</g>
</g>
<g>
	<path class="st7" d="M482.6,38.4c-0.6-1.9-1.9-3.3-3.8-4c0,0-0.1,0-0.1,0c0.1-0.6-0.1-1.2-0.4-1.5c-0.4-0.4-0.8-0.6-1.2-0.8
		c-1.3-0.5-2.7-0.4-4.1-0.5c-1.2-0.1-2,0.7-2.4,3c-0.7,0.3-1.4,0.5-2.2,0.5c-4.6-0.2-9.2,0.2-13.8-0.6c-0.3-1.7-0.8-2.8-1.7-2.8
		c-1.6-0.1-3.2-0.1-4.8,0.4c-0.8,0.2-1.2,0.9-1.4,2.1c-2.1,0.9-3.8,2.8-4.5,5.8c-0.4,1.6-0.8,3.1-1.1,4.7c-0.6,3.5-1.2,7-1.1,10.6
		c0,1.7,0.5,3.3,2.1,4.3c0.6,0.4,1.1,0.6,1.5,0.3c0,0.1-0.1,0.2-0.1,0.3c2.4-0.1,4.9-2.5,7.3-7c0.5-0.1,1.1-0.1,1.7-0.1
		c3.4,0.1,6.8,0,10.2,0c2.5,0,5.1,0.2,7.6,0c1.7-0.2,3.3-0.1,4.6,0.2c1.9,2.8,3.2,6.3,7.1,6.9c0,0,0-0.1-0.1-0.1
		c0.3,0.1,0.6,0,1-0.2c1.7-0.8,2.4-2.2,2.5-4C485.4,49.8,484.5,44,482.6,38.4L482.6,38.4z"/>
	<path class="st11" d="M485.3,52.7c0.1,1,0.1,2.3-0.2,3.7c-1,3.7-5.6,5-8.4,2.3c-1.5-1.4-2.7-3.2-3.9-4.9c-0.4-0.6-0.8-0.8-1.5-0.8
		c-6.3,0-12.7,0-19,0c-0.6,0-1.1,0.2-1.4,0.8c-1,1.6-2.1,3.1-3.4,4.5c-1.5,1.7-3.4,2.2-5.5,1.6c-2.2-0.7-3.5-2.3-3.5-4.5
		c-0.2-6.5,0.8-12.9,3.1-19c0.3-0.7,0.6-1.3,1.2-1.8c1.1-0.9,2.3-1.7,2.6-3.3c0.1-0.6,0.8-0.9,1.4-1c1.8-0.3,3.6-0.5,5.4-0.3
		c1.3,0.1,2.2,0.8,2.4,2.1c0.2,1,0.8,1.3,1.7,1.3c3.7,0,7.4,0,11.1,0c0.9,0,1.5-0.2,1.7-1.3c0.2-1.4,1.2-2.1,2.6-2.1
		c1.8-0.1,3.5,0.1,5.2,0.4c0.7,0.1,1.4,0.5,1.5,1.2c0.2,1.3,1.1,1.9,2,2.6c1.5,1.2,2.1,3,2.6,4.8C484.2,43.3,485.1,47.7,485.3,52.7
		L485.3,52.7z"/>
	<path class="st12" d="M449,37.1c1.4-0.3,2,0.3,1.8,1.7c-0.1,1,0.3,1.4,1.3,1.2c1.4-0.2,1.7,0.5,1.7,1.8c0,1.2-0.2,2.1-1.7,1.8
		c-1.2-0.2-1.6,0.3-1.4,1.5c0.2,1.4-0.6,1.5-1.8,1.5c-1.1,0-2.1-0.1-1.9-1.6c0.2-1.1-0.3-1.5-1.4-1.3c-1.8,0.3-1.6-1-1.6-2.1
		c-0.1-1.4,0.5-1.7,1.7-1.6c1,0.2,1.5-0.2,1.3-1.2C446.9,37.3,447.6,36.8,449,37.1L449,37.1z"/>
	<path class="st13" d="M470.8,43.2c-1,0-1.8-0.8-1.8-1.9c0-1.1,0.6-1.8,1.7-1.8c1.1,0,1.8,0.7,1.9,1.8
		C472.6,42.3,471.8,43.1,470.8,43.2L470.8,43.2z"/>
	<path class="st14" d="M476.1,44.8c0,1.1-0.9,1.9-1.9,1.8c-1.1-0.1-1.7-0.8-1.7-2c0.1-1.1,0.8-1.7,1.8-1.6
		C475.5,43.1,476,43.8,476.1,44.8L476.1,44.8z"/>
	<path class="st15" d="M479.7,41.4c0,1-0.9,1.9-1.9,1.8c-1.1-0.1-1.8-0.8-1.7-2c0.1-1.1,0.8-1.6,1.8-1.7
		C478.9,39.4,479.7,40.3,479.7,41.4L479.7,41.4z"/>
	<path class="st16" d="M474.4,35.9c1,0,1.6,0.7,1.7,1.8c0.1,1-0.7,1.9-1.8,1.8c-1.1,0-1.7-0.6-1.8-1.7
		C472.5,36.8,473.2,35.9,474.4,35.9L474.4,35.9z"/>
	<path class="st17" d="M453,41.9c0.2,1.1-0.6,1.1-1.2,1c-1.4-0.2-1.9,0.4-1.7,1.7c0.1,0.8,0,1.2-1,1.2c-1,0-1.2-0.4-1.1-1.2
		c0.2-1.4-0.4-1.9-1.7-1.7c-0.7,0.1-1.3,0.1-1.3-1c0-1,0.5-1.2,1.2-1c1.4,0.2,2-0.4,1.8-1.8c-0.1-0.9,0.2-1.2,1.1-1.2
		c1,0,1.1,0.5,1,1.2c-0.2,1.3,0.4,1.9,1.7,1.7C452.5,40.8,453.2,40.9,453,41.9L453,41.9z"/>
	<path class="st18" d="M470.8,40.2c0.6,0.1,1,0.5,1,1.2c0,0.6-0.5,1-1,1c-0.6,0-1-0.4-1-1C469.7,40.7,470.1,40.4,470.8,40.2z"/>
	<path class="st18" d="M475.3,44.9c-0.1,0.6-0.4,1-1,1c-0.6,0-1-0.4-1-1c0-0.7,0.4-1.1,1.1-1.1C475,43.8,475.3,44.3,475.3,44.9
		L475.3,44.9z"/>
	<path class="st18" d="M478.9,41.3c-0.1,0.6-0.4,1.1-1,1.1c-0.7,0-1.1-0.5-1-1.1c0-0.6,0.4-1,1.1-1
		C478.5,40.3,478.8,40.7,478.9,41.3L478.9,41.3z"/>
	<path class="st18" d="M474.3,36.7c0.7,0.1,1,0.5,1,1.2c-0.1,0.6-0.5,1-1.1,0.9c-0.6,0-1-0.4-1-1C473.2,37.1,473.7,36.8,474.3,36.7
		L474.3,36.7z"/>
</g>
<line class="st6" x1="551.5" y1="181.4" x2="603.6" y2="181.4"/>
<polyline class="st6" points="320.7,130.5 320.7,46.7 411.6,46.7 "/>
<polyline class="st6" points="387.1,217.4 387.1,293.1 305.4,294.2 "/>
<polyline class="st6" points="43.8,162.8 43.8,191.7 152.3,191.7 "/>
<circle class="st19" cx="245.8" cy="103.4" r="8.1"/>
<circle class="st19" cx="415.2" cy="164.1" r="3.6"/>
<circle class="st19" cx="440" cy="274.2" r="3.2"/>
<circle class="st19" cx="502.1" cy="127.5" r="9.3"/>
<circle class="st19" cx="144.2" cy="225.5" r="8.1"/>
<circle class="st20" cx="171.7" cy="273.3" r="1.5"/>
<circle class="st7" cx="153.2" cy="190.9" r="3.8"/>
<circle class="st7" cx="320.7" cy="136.6" r="3.8"/>
<path class="st7" d="M306.7,285.1c0,0-3.1,9.9-10.4,9.9c0,0,8.2-0.3,10.4,8.3c0,0-0.7-9,9.2-9.1
	C315.9,294.2,307.4,294.5,306.7,285.1L306.7,285.1z"/>
<path class="st7" d="M552.8,172.4c0,0-3.1,9.9-10.4,9.9c0,0,8.2-0.3,10.4,8.3c0,0-0.7-9,9.2-9.1C562,181.5,553.5,181.8,552.8,172.4
	L552.8,172.4z"/>
</svg>
