<?xml version="1.0" encoding="UTF-8"?>
<svg id="_圖層_1" data-name="圖層 1" xmlns="http://www.w3.org/2000/svg" viewBox="0 0 1024 270.64">
  <defs>
    <style>
      .cls-1 {
        fill: #324053;
      }

      .cls-2 {
        fill: #dddddf;
      }

      .cls-3 {
        fill: #f5f6f6;
      }

      .cls-4 {
        font-family: MicrosoftJhengHeiBold, 'Microsoft JhengHei';
        font-size: 18px;
        letter-spacing: .1em;
      }

      .cls-4, .cls-5 {
        fill: #fff;
      }

      .cls-5 {
        font-family: STHupo, STHupo;
        font-size: 42.68px;
      }
    </style>
  </defs>
  <rect class="cls-1" width="1024" height="270.64"/>
  <text class="cls-5" transform="translate(88.01 182.25)"><tspan x="0" y="0">01</tspan></text>
  <text class="cls-4" transform="translate(70.05 218.51)"><tspan x="0" y="0">了解需求</tspan></text>
  <text class="cls-4" transform="translate(270.59 218.51)"><tspan x="0" y="0">提出方案</tspan></text>
  <text class="cls-4" transform="translate(489.56 218.47)"><tspan x="0" y="0">設計</tspan></text>
  <text class="cls-4" transform="translate(847.65 218.47)"><tspan x="0" y="0">交付與持續優化</tspan></text>
  <text class="cls-5" transform="translate(285.11 182.25)"><tspan x="0" y="0">02</tspan></text>
  <text class="cls-5" transform="translate(485.51 182.25)"><tspan x="0" y="0">03</tspan></text>
  <text class="cls-5" transform="translate(687.14 182.25)"><tspan x="0" y="0">04</tspan></text>
  <text class="cls-5" transform="translate(892.6 182.25)"><tspan x="0" y="0">05</tspan></text>
  <g>
    <path class="cls-3" d="M632.49,85.85c.22,.1,.44,.17,.61,.3,1.97,1.48,3.93,2.96,5.88,4.45,.77,.59,.55,1.08-.13,1.59-1.91,1.42-3.8,2.88-5.69,4.32-.8,.6-1,.16-1.11-.59-.21-1.47,.84-3.57-2.01-3.74-.49-.03-.3-1.13,.23-1.19,2.31-.22,1.55-1.88,1.65-3.18,.05-.66-.38-1.51,.57-1.95Z"/>
    <path class="cls-2" d="M620.86,92.56c-.82,0-1.63,0-2.45,0-.57,0-1.06-.18-1.09-.84-.03-.65,.4-.95,.98-.96,1.7-.03,3.41-.02,5.11,0,.56,0,1.04,.22,1.09,.87,.07,.89-.61,.88-1.2,.9-.81,.03-1.63,0-2.45,0v.03Z"/>
    <path class="cls-2" d="M594.76,92.53c-.6,0-1.19,.03-1.79,0-.69-.05-1.68,.26-1.65-.91,.03-.94,.87-.86,1.53-.87,1.42-.02,2.83-.01,4.25,0,.69,0,1.47,.06,1.44,.99-.04,1.02-.93,.75-1.55,.78-.74,.04-1.49,0-2.24,0h0Z"/>
    <path class="cls-2" d="M607.82,92.51c-.82,0-1.63,0-2.45,0-.56,0-1.08-.15-1.13-.81-.05-.79,.51-1,1.17-1,1.63-.01,3.27-.02,4.9-.02,.67,0,1.19,.25,1.22,1,.03,.9-.68,.82-1.26,.84-.82,.02-1.63,0-2.45,0v-.02Z"/>
    <path class="cls-2" d="M581.76,92.58c-.22,0-.46,.06-.66,0-.92-.3-2.69,.77-2.62-.94,.06-1.52,1.78-.75,2.77-.87,.95-.11,1.92-.03,2.88,0,.68,.02,1.45,.04,1.41,.98-.03,.81-.74,.8-1.33,.82-.81,.02-1.63,0-2.44,0v.02Z"/>
  </g>
  <g>
    <path class="cls-2" d="M780.86,91.7c-.74,0-1.48,0-2.22,0-.64,0-1.24-.1-1.28-.89-.04-.77,.51-1,1.18-1,1.63,0,3.26-.01,4.89,.01,.64,0,1.24,.23,1.21,1-.04,.79-.71,.84-1.32,.85-.82,.02-1.63,0-2.45,0v.03Z"/>
    <g>
      <path class="cls-3" d="M844.25,93.8c-.02-1.14,.5-2.39-1.42-2.41-.97,0-.94-1.23-.26-1.33,2.22-.32,1.65-1.85,1.7-3.17,.03-.65-.27-1.5,.42-1.84,.61-.31,1.02,.47,1.48,.79,1.51,1.07,2.91,2.31,4.46,3.3,1.62,1.03,1.33,1.74-.05,2.68-1.41,.96-2.67,2.13-4.09,3.07-.58,.39-1.1,1.37-1.82,1.04-.9-.41-.27-1.48-.42-2.13Z"/>
      <path class="cls-2" d="M820.06,91.6c-.89,0-1.78,.02-2.67,0-.54-.01-1.08-.14-1.1-.82-.02-.66,.46-.92,1.02-.93,1.7-.03,3.41-.03,5.11-.01,.56,0,1.07,.2,1.09,.85,.04,.85-.63,.88-1.23,.9-.74,.03-1.48,0-2.22,0h0Z"/>
      <path class="cls-2" d="M794.2,91.62c-.81,0-1.62,0-2.44,0-.62,0-1.25-.08-1.23-.9,.01-.81,.66-.9,1.27-.9,1.55-.02,3.1-.03,4.65,0,.61,.01,1.24,.16,1.25,.95,.01,.89-.72,.79-1.28,.82-.74,.04-1.48,0-2.21,0v.03Z"/>
      <path class="cls-2" d="M807.01,91.6c-.82,0-1.63,0-2.45,0-.56,0-1.1-.16-1.14-.81-.04-.8,.57-.96,1.21-.96,1.56,0,3.11,.02,4.67,.05,.54,.01,1.08,.11,1.13,.79,.06,.88-.61,.89-1.21,.91-.74,.03-1.48,0-2.22,0Z"/>
      <path class="cls-2" d="M833,89.88c.81,0,1.63-.02,2.44,0,.56,.02,1.05,.23,1.09,.87,.05,.75-.53,.8-1.06,.8-1.63,.02-3.26,.02-4.89,0-.53,0-1.11-.04-1.18-.73-.07-.78,.48-1.01,1.14-1.02,.81-.02,1.63,0,2.44,0v.06Z"/>
    </g>
  </g>
  <g>
    <path class="cls-3" d="M233.38,87.21c.12-.7-.36-1.65,.37-2.08,.84-.49,1.27,.53,1.83,.93,1.52,1.07,2.95,2.26,4.47,3.33,1.01,.71,1.11,1.25,.06,2.01-1.81,1.31-3.58,2.67-5.33,4.06-.92,.72-1.31,.56-1.3-.6,0-.52-.04-1.05,0-1.57,.1-1.19-.03-2.12-1.6-1.89-.4,.06-.78-.1-.83-.54-.05-.41,.23-.77,.63-.78,2.14-.05,1.73-1.56,1.69-2.87Z"/>
    <path class="cls-2" d="M222.02,91.68c-.67,0-1.33,0-2,0-.68,0-1.44,.02-1.43-.95,.01-.78,.66-.92,1.28-.93,1.56-.02,3.11,0,4.67,.03,.56,0,1.06,.2,1.11,.85,.07,.85-.58,.94-1.19,.96-.81,.03-1.63,0-2.45,0v.03Z"/>
    <path class="cls-2" d="M195.79,91.64c-.91-.51-3.08,.97-3.1-.94-.01-1.61,2.08-.59,3.22-.81,.79-.15,1.64-.03,2.46-.01,.71,.01,1.45,.11,1.44,1.01-.02,.88-.81,.71-1.37,.74-.82,.04-1.64,.01-2.65,.01Z"/>
    <path class="cls-2" d="M183.03,91.65c-.9,0-1.8,.02-2.69,0-.52-.01-.83-.33-.83-.85,0-.51,.28-.88,.81-.88,1.79-.02,3.59-.02,5.38,0,.59,0,1.03,.32,.97,.97-.06,.71-.63,.74-1.17,.75-.82,.02-1.65,0-2.47,0Z"/>
    <path class="cls-2" d="M208.84,91.57c-.87-.41-2.97,.84-2.99-.72-.03-1.81,2.09-.75,3.25-.95,.93-.16,1.92-.03,2.88,.02,.48,.03,.84,.3,.85,.84,0,.56-.39,.78-.87,.8-.96,.03-1.92,0-3.11,0Z"/>
  </g>
  <path class="cls-2" d="M507.29,89.65s.08,.02,.09,.02c0,0-.13-.04-.13-.04l.04,.03Z"/>
  <g>
    <path class="cls-3" d="M439.71,92.38c-.41,.3-.82,.6-1.23,.89-.12-.03-.2,0-.23,.13-.12,.14-.24,.29-.36,.43,0,0,.08-.02,.08-.02-.24,.12-.49,.23-.73,.35-.46,.02-.75,.25-.85,.7-.11,.11-.23,.22-.34,.33,0,0,.03-.05,.03-.05-.17,.13-.34,.27-.51,.4-1.62-.82-.38-2.46-1.02-3.56-.14-.17-.28-.34-.43-.52-1.66-.68,.24-.95,.16-1.45-.03-.15,.03-.26,.17-.32,.49-1.26,.27-2.55,.11-3.83l-.07-.11s.09-.1,.09-.1c.66,.18,1.32,.36,1.98,.54,.26,.23,.52,.47,.79,.7,.04,.13,.13,.18,.26,.16,.28,.1,.55,.2,.83,.3,0,0-.05,.02-.05,.02,.11,.16,.23,.31,.34,.47,.22,.63,.65,.97,1.33,.95,.52,.29,1.04,.59,1.56,.88,0,0-.09-.02-.09-.02,1.11,2-1.12,1.83-1.76,2.7,0,0-.06,.03-.06,.03Z"/>
    <path class="cls-2" d="M410.19,91.6c-.92-.42-3.06,.87-3.07-.93-.01-1.53,2.07-.59,3.2-.79,.79-.14,1.62-.02,2.44,0,.62,0,1.28,.06,1.32,.85,.04,.84-.64,.86-1.25,.87-.81,.02-1.63,0-2.64,0Z"/>
    <path class="cls-2" d="M423.52,91.6c-.89,0-1.78,.02-2.66,0-.47-.01-.89-.18-.94-.73-.06-.67,.37-.95,.95-.96,1.7-.03,3.4-.02,5.11-.01,.68,0,1.18,.26,1.15,1.02-.03,.77-.66,.67-1.16,.68-.81,.02-1.63,0-2.44,0Z"/>
    <path class="cls-2" d="M384.5,91.63c-.3,0-.61,.06-.89-.01-.88-.22-2.48,.68-2.47-.93,0-1.39,1.51-.73,2.36-.82,1.03-.11,2.08-.01,3.12,0,.68,0,1.49,0,1.56,.87,.08,1.04-.85,.81-1.46,.86-.74,.06-1.49,.01-2.23,.01h0Z"/>
    <path class="cls-2" d="M397.51,91.65c-1.11-.52-3.25,.82-3.27-.97-.02-1.48,2.11-.76,3.22-.7,1.22,.06,3.47-.98,3.49,.87,.01,1.52-2.25,.32-3.43,.8Z"/>
    <path class="cls-2" d="M434.29,90.01c.08,.5-1.83,.77-.16,1.45-.67,.06-1.63,.48-1.64-.65,0-1.28,1.1-.73,1.8-.8Z"/>
    <path class="cls-2" d="M434.55,91.98c.64,1.1-.6,2.74,1.02,3.56-.63,1.08-1.04,.7-1.11-.24-.08-1.1,.05-2.21,.09-3.32Z"/>
    <path class="cls-2" d="M436.56,86.18c-.66-.18-1.32-.36-1.98-.54-.29-1.13,.32-.94,.89-.55,.42,.28,.73,.72,1.09,1.09Z"/>
    <path class="cls-2" d="M434.57,85.86c.16,1.28,.38,2.57-.11,3.83-.09-1.28-.27-2.56,.11-3.83Z"/>
    <path class="cls-2" d="M440.05,88.79c-.68,.02-1.11-.32-1.33-.95,.58,.13,1.03,.43,1.33,.95Z"/>
    <path class="cls-2" d="M436.39,94.85c.1-.45,.39-.68,.85-.7-.18,.36-.35,.73-.85,.7Z"/>
    <polygon class="cls-2" points="438.38 87.36 438.43 87.34 438.32 87.39 438.38 87.36"/>
    <path class="cls-2" d="M437.6,87.04c-.13,.02-.22-.03-.26-.16,0,0,.18,0,.18,0l.08,.17Z"/>
    <polygon class="cls-2" points="439.71 92.38 439.77 92.35 439.77 92.46 439.71 92.38"/>
    <path class="cls-2" d="M438.25,93.4c.04-.12,.11-.16,.23-.13,0,0-.06,.17-.06,.17l-.17-.05Z"/>
    <path class="cls-2" d="M437.97,93.8s-.08,.02-.08,.02c0,0,.08-.02,.08-.02Z"/>
    <polygon class="cls-2" points="436.08 95.14 436.05 95.18 436.1 95.1 436.08 95.14"/>
  </g>
  <g>
    <path class="cls-2" d="M508.01,129.93c-22.4,.03-42.11-17.62-42.17-41.64-.05-23.32,19.01-42.38,42.15-42.33,23.61,.05,42.45,18.93,42.39,42.48-.06,22.92-19.08,41.54-42.36,41.48Zm-.13-1.94c22.4,.03,40.65-17.8,40.68-39.74,.03-22.07-18.13-40.32-40.17-40.4-22.06-.07-40.59,18.06-40.72,39.6-.15,24.89,20.61,40.94,40.21,40.54Z"/>
    <path class="cls-2" d="M530.77,88.7c0,3.48,.09,6.84-.03,10.19-.08,2.18-1.74,3.6-4.04,3.63-3.52,.05-7.03,0-10.55,.06-.76,.01-2.21-.43-1.94,1,.21,1.08-.3,2.87,1.81,3.09,1.04,.11,3.02-.71,2.93,.94-.09,1.67-2.07,.78-3.15,.8-5.76,.1-11.52,.06-17.28,.02-.72,0-1.9,.44-1.94-.83-.04-1.29,1.14-.89,1.87-.95,1.17-.09,2.25,.16,2.59-1.65,.4-2.13-.22-2.59-2.22-2.5-3.36,.15-6.73,.12-10.1,.08-2.99-.04-4.37-1.47-4.38-4.42,0-8.3,0-16.6,.03-24.9,0-3.08,1.26-4.34,4.37-4.35,12.49-.03,24.99-.02,37.48-.05,1.57,0,3,.25,3.94,1.65,.3,.44,.5,.97,.01,1.43-.47,.45-1.06,.35-1.37-.11-.89-1.3-2.2-1.09-3.45-1.09-12.12,.02-24.24,.09-36.36,.06-2.16,0-2.87,.84-2.84,2.95,.09,6.28,.07,12.56-.03,18.84-.03,1.61,.48,2.04,2.02,2.03,6.21-.08,12.42-.06,18.63-.03,.65,0,1.72-.43,1.83,.68,.12,1.29-1.01,1.05-1.77,1.05-6.21,.06-12.42,.1-18.63,.15-1.01,0-2.16-.27-2.14,1.45,.02,1.47,.43,2.48,1.99,2.73,.29,.05,.6,.03,.9,.03,12.34-.03,24.68,.33,37.02-.04,1.22-.04,2.39-.02,2.83-1.56,.55-1.92,.13-2.6-1.88-2.65-1.05-.02-2.1,0-3.14-.03-.49-.02-1.18,.09-1.15-.69,.02-.58,.49-.92,1.05-1,.51-.07,1.04-.07,1.57-.08,3.68-.05,3.7-.04,3.76-3.63,.02-1.12,.08-2.12,1.76-2.3Zm-22.99,17.92h0c.82,.01,1.64,.01,2.46,0,2.82-.02,2.96-.26,2.24-2.9-.26-.93-.75-1.15-1.59-1.14-1.86,.03-3.76,.21-5.59-.06-2.49-.37-2.47,1.34-2.59,2.83-.18,2.06,1.5,1.07,2.4,1.22,.87,.15,1.78,.03,2.68,.03Z"/>
    <path class="cls-2" d="M512.07,99.34c-1.67,.26-2.15-.05-2.04-1.23,.35-3.6,1.11-6.76,4.13-9.44,4.68-4.13,8.87-8.82,13.21-13.32,2.82-2.92,5.57-1.81,7.36,.11,1.47,1.58,1.68,4.18,.15,5.71-5.64,5.63-11.38,11.15-17,16.8-1.54,1.55-4.25,1.06-5.81,1.36Zm2.33-5.64c.55-.44,.86-.65,1.11-.9,3.56-3.58,7.12-7.18,10.68-10.76,.52-.52,.89-1.01,.17-1.67-.7-.64-1.24-.26-1.73,.24-1.83,1.85-3.63,3.73-5.45,5.59-1.67,1.69-3.37,3.35-5.04,5.05-.33,.34-.89,.68-.52,1.31,.22,.38,.49,.74,.77,1.15Zm3.14,2.23c.18-.14,.42-.31,.63-.51,3.67-3.68,7.33-7.38,11-11.06,.46-.46,.5-.82,.05-1.31-.66-.73-1.19-.35-1.69,.14-3.63,3.62-7.25,7.26-10.87,10.89-.32,.32-.67,.66-.25,1.13,.28,.32,.51,.75,1.13,.72Zm16.57-17.52c0-1.55-1.58-3.14-3.04-3.09-.73,.02-1.53,.14-1.82,.99-.14,.41,3.43,3.89,3.87,3.77,.91-.24,.92-1.04,.98-1.67Zm-18.64,18.32c-1.05-.82-1.53-2.64-3.08-2.25-.61,.15-.87,2.01-.39,2.61,.95,1.2,2.19-.02,3.47-.37Zm16.32-14.95c0-.33-3.73-4.02-4.07-3.99-.19,.01-.42,.12-.55,.27-.29,.32-.26,.67,.06,.97,1.13,1.05,2.25,2.12,3.41,3.15,.55,.48,.92,.18,1.14-.39Z"/>
    <path class="cls-2" d="M497.95,89.49c-1.79,0-3.57,.03-5.36,0-1.38-.03-1.71-.73-1.06-1.91,1.86-3.38,3.75-6.73,5.58-10.13,.7-1.3,1.3-1.31,1.99-.03,1.86,3.46,3.76,6.91,5.58,10.39,.59,1.12,.06,1.68-1.15,1.67-1.86,0-3.72,0-5.58,0,0,0,0,0,0,.01Zm-4.44-1.86c2.82,0,5.19,0,7.55,0,.84,0,1.31-.24,.8-1.19-1.22-2.27-2.42-4.54-3.79-7.12-1.57,2.85-2.97,5.42-4.56,8.31Z"/>
    <path class="cls-2" d="M515.18,75.86c1.94,0,3.88,0,5.82,0,.68,0,1.45-.04,1.44,.94,0,.82-.66,.88-1.28,.88-4.18,.01-8.35,.02-12.53,.03-.63,0-1.27-.05-1.32-.86-.05-.95,.68-1.02,1.38-1.02,2.16,0,4.32,0,6.49,0v.03Z"/>
    <path class="cls-2" d="M512.71,81.6c-1.41,0-2.82,0-4.23,0-.67,0-1.2-.25-1.17-1.01,.03-.63,.51-.86,1.09-.87,2.97-.03,5.93-.06,8.9-.07,.51,0,1.15-.01,1.14,.73-.01,.77-.46,1.21-1.28,1.2-1.48-.01-2.97,0-4.45,0v.03Z"/>
    <path class="cls-2" d="M511.15,85.19c-.97,0-1.94,.03-2.91-.01-.53-.02-.78-.39-.79-.9,0-.53,.3-.86,.81-.87,2.09-.03,4.18-.04,6.27-.03,.36,0,.84,.07,.8,.55-.05,.61-.35,1.21-1.05,1.26-1.04,.07-2.09,.02-3.13,.02v-.02Z"/>
    <path class="cls-2" d="M509.53,87.34c.61,.33,1.9-.5,1.89,.74,0,1.28-1.28,1.16-2.22,1.14-.75-.01-1.88,.27-1.8-.96,.09-1.37,1.35-.68,2.13-.93Z"/>
    <path class="cls-2" d="M507.37,99.61c-.72-.14-1.03-.6-.96-1.27,.05-.55,.33-1.05,.96-.99,.78,.07,1.15,.61,1.05,1.39-.08,.6-.47,.88-1.04,.87Z"/>
  </g>
  <g>
    <path class="cls-2" d="M919.83,129.93c-20.13-.03-36.61-12.55-41.9-31.81-5.08-18.51,4.66-38.93,22.79-47.83,24.82-12.18,55.28,2.14,61.56,28.93,4.6,19.59-6.63,40.11-26.05,47.59-5.28,2.03-10.72,3.22-16.41,3.12Zm-1.55-82.11c-5.5,.16-12.05,1.65-18.18,4.91-22.47,11.97-28.46,40.36-12.67,60.18,12.08,15.17,34.97,19.71,52.39,10.1,14.12-7.78,21.83-19.77,21.49-36.08-.48-22.99-20.9-39.24-43.03-39.12Z"/>
    <path class="cls-2" d="M932.89,109.68c-2.23-.14-4.64-1.02-6.52-3.03-.96-1.03-1.52-.86-1.72,.46-.32,2.06-1.57,2.69-3.49,2.5-.74-.07-1.5-.07-2.24,.02-2.45,.3-4.1-.4-4.26-3.16-.01-.22-.08-.45-.19-.64-.53-.92-7.44-4.08-8.41-3.71-2.26,.87-3.51-.14-4.42-2.07-.38-.81-.76-1.64-1.29-2.35-1.02-1.36-.64-2.4,.42-3.55,2.05-2.23,2.05-7.82,.08-10.07-1.03-1.17-1.57-2.33-.5-3.79,.48-.65,.86-1.41,1.12-2.17,.84-2.47,2.56-3.21,4.91-2.44,1.31,.43,2.26,.19,3.23-.72,.65-.61,1.41-1.14,2.21-1.51,1.69-.79,3.17-1.64,3.04-3.85-.02-.27,.13-.63,.32-.82,2.21-2.24,4.94-.71,7.42-.99,1.55-.17,1.99,1.04,2.05,2.12,.1,1.79,1.13,2.59,2.56,3.22,.74,.33,1.54,.68,2.11,1.22,1.47,1.4,3.03,2,5.05,1.27,1.49-.54,2.59,.05,3.23,1.54,.36,.82,.8,1.61,1.29,2.35,1.28,1.96,1.37,3.67-.78,5.11-.9,.61-1.14,1.48-.8,2.56,.15,.48,.2,1.06,.1,1.55-.46,2.28,.42,3.74,2.26,5.2,2.84,2.25,3.59,6.22,2.3,9.6-1.39,3.65-4.8,6.1-9.06,6.15Zm-13.72-1.89c3.08,.03,3.07,.02,3.89-2.37,.14-.42,.31-.9,.62-1.17,1.42-1.21,.36-2.57,.08-3.7-.28-1.13-1.53-.26-2.34-.3-.67-.03-1.34,.09-2.02,.08-5.32-.07-9.45-2.91-11.06-7.59-1.61-4.68,.04-9.9,4.19-13.24,3.65-2.94,9.16-3.31,13.26-.77,3.98,2.46,6.13,6.06,6.06,10.79-.02,1.5,.47,1.9,1.92,1.87,1.29-.03,1.95-.26,1.84-1.72-.19-2.58-1.02-5.25,1.95-7.15,1.04-.66-1.65-5.36-3-5.03-2.72,.67-4.74-.19-6.65-2-.68-.64-1.66-1.1-2.58-1.31-1.52-.34-2.16-1.22-2.18-2.66-.02-1.5-.75-2.15-2.25-2.04-1.04,.07-2.09,.02-3.14,.02-.68,0-1.28,.25-1.23,.98,.17,2.71-1.55,3.73-3.73,4.53-.89,.32-1.75,.91-2.43,1.57-1.28,1.25-2.61,1.56-4.26,.88-1.38-.56-2.46-.26-3.04,1.29-.26,.69-.71,1.31-1.1,1.95-.44,.71-.62,1.43,.2,1.95,2.1,1.34,2.27,3.22,1.83,5.44-.21,1.07-.09,2.25,.07,3.35,.19,1.32-.08,2.31-1.18,3.14-.88,.67-1.94,1.46-.75,2.71,1.17,1.23,1.14,4.12,4.07,3.02,1-.37,2-.66,2.93,.22,1.55,1.46,3.45,2.35,5.42,3.09,.79,.3,1.64,.63,1.64,1.61,0,2.38,1.32,2.91,2.99,2.56Zm5.35-11.46c1.26-1.34,2.01-2.67,3.13-3.22,2.63-1.29,2.54-3.02,2.19-5.62-.71-5.22-5.78-9.16-11.19-8.64-3.79,.37-7.73,3.68-8.82,7.61-1.13,4.09,.21,8.02,3.54,10.29,.42,.29,.85,.78,1.39,.55,.61-.25,.37-.91,.39-1.39,.03-1.19-.05-2.39,0-3.58,.06-1.15-.17-1.83-1.56-1.76-1.66,.09-1.86-.82-.88-1.92,1.99-2.22,4.09-4.35,6.15-6.51,.54-.57,1.17-.75,1.75-.13,2.16,2.27,4.33,4.52,6.39,6.88,.78,.89,.85,1.94-.81,1.8-1.52-.13-1.76,.61-1.69,1.85,.07,1.11,.01,2.22,.01,3.79Zm16.21,4.07c0-3.97-3.48-7.38-7.49-7.32-4.12,.06-7.63,3.57-7.57,7.56,.06,3.77,3.58,7.22,7.4,7.25,4.04,.03,7.65-3.5,7.65-7.49Zm-23.8-6.82c0,1.01,.1,1.7-.02,2.35-.46,2.57,1.08,2.73,3,2.68,2.96-.08,3.01-.07,2.97-2.74-.02-1.41-.07-2.83-.05-4.24,0-1.05-.42-2.3,1.25-2.62,.62-.12,.51-.71,.15-1.03-1.49-1.33-2.5-3.89-4.28-3.98-1.88-.09-2.89,2.49-4.25,3.92-.24,.25-.6,.73-.16,.92,2.61,1.14,.7,3.46,1.39,4.74Z"/>
    <path class="cls-2" d="M938.17,97.7c-.25,.56-.3,.8-.44,.95-1.67,1.79-3.33,3.59-5.04,5.34-.48,.5-1.02,.38-1.53-.17-.75-.82-1.59-1.55-2.4-2.31-.48-.45-.8-.94-.16-1.48,.49-.42,1.02-.32,1.34,.2,1.56,2.59,2.87,1.66,4.24-.2,.61-.83,1.41-1.51,2.12-2.27,.32-.35,.66-.59,1.16-.37,.27,.12,.54,.24,.7,.32Z"/>
  </g>
  <g>
    <path class="cls-2" d="M314.19,129.95c-23.28,.07-42.38-18.53-42.49-41.39-.11-23.14,19.04-42.62,41.92-42.62,23.54,0,42.52,18.77,42.34,42.21-.19,26.16-21.94,42.08-41.77,41.8Zm-.7-1.93c22.13,.18,40.54-17.58,40.71-39.26,.17-22.28-17.69-40.74-39.59-40.93-22.36-.2-40.94,17.99-41.09,40.22-.15,21.71,17.93,39.8,39.97,39.98Z"/>
    <path class="cls-2" d="M313.81,101.36c-1.72,0-3.44-.01-5.16,0-1.38,.01-2.22-.71-2.16-2.01,.12-2.65-1.41-4.44-2.88-6.34-5.5-7.09-3.67-16.46,3.95-20.5,5.19-2.75,12.33-1.52,16.04,2.76,4.17,4.82,4.61,11.82,.96,16.77-1.76,2.39-3.84,4.57-3.75,7.86,.03,1-.76,1.54-1.84,1.52-1.72-.03-3.44,0-5.16,0,0-.02,0-.04,0-.06Zm.62-28.4c-4.1,.01-6.94,1.15-9.19,3.59-3.66,3.97-4,9.79-.95,14.26,1.62,2.36,3.95,4.34,3.93,7.59,0,1.04,.96,.97,1.69,1.02,1.06,.07,.96-.73,.94-1.38-.04-1.12-.13-2.23-.24-3.35-.05-.54-.21-1.1,.56-1.19,.62-.07,1,.3,1.06,.9,.13,1.18,.21,2.37,.29,3.56,.05,.71,.14,1.37,1.07,1.38,.95,0,1.03-.68,1.09-1.38,.11-1.19,.2-2.38,.32-3.57,.07-.67,.39-1.14,1.16-1.06,.88,.09,.8,.73,.7,1.34-.16,1.03-.37,2.06-.51,3.09-.1,.73-.3,1.58,.86,1.65,.92,.06,1.94,.08,2-1.18,.12-2.65,1.72-4.52,3.2-6.5,2.95-3.95,3.87-8.24,1.5-12.78-2.14-4.11-5.79-5.82-9.48-5.98Z"/>
    <path class="cls-2" d="M313.64,104.63c-1.56,0-3.12,.02-4.68,0-.67,0-1.44-.01-1.44-.97,0-.79,.65-.92,1.27-.92,3.19-.03,6.39-.05,9.58-.06,.64,0,1.24,.2,1.22,.98-.02,.79-.66,.93-1.27,.94-1.56,.03-3.12,0-4.68,0v.03Z"/>
    <path class="cls-2" d="M313.64,107.83c-1.49,0-2.97,0-4.46,0-.76,0-1.61-.04-1.62-1.07,0-.96,.81-.9,1.48-.9,2.97-.01,5.95-.01,8.92,0,.66,0,1.51-.06,1.53,.86,.02,1.01-.84,1.06-1.62,1.06-1.41,0-2.82,0-4.24,0,0,.02,0,.04,0,.06Zm4.71-.81c0-.14,0-.29,0-.43h-9.81c0,.14,0,.29,0,.43h9.81Z"/>
    <path class="cls-2" d="M313.89,109c.77,.37,2.57-.81,2.59,.8,.02,1.47-1.77,1.14-2.92,1.22-.3,.02-.6,.03-.89,0-.92-.08-2.05-.27-2.02-1.33,.04-1.26,1.26-.55,1.96-.69,.36-.07,.74-.01,1.27-.01Z"/>
    <path class="cls-2" d="M299.31,68.52c.79-.01,3.78,2.96,3.66,3.64-.13,.72-.69,1.13-1.28,.66-1.09-.87-2.14-1.84-3.03-2.91-.5-.6-.25-1.28,.65-1.39Z"/>
    <path class="cls-2" d="M314.52,65.65c0,.52,0,1.04,0,1.55,0,.6-.24,1.02-.89,1.03-.65,.01-.9-.38-.9-1,0-.89-.07-1.78-.05-2.66,.02-.7-.2-1.64,.93-1.66,1.16-.03,.89,.94,.96,1.62,.04,.37,0,.74,0,1.11-.02,0-.03,0-.05,0Z"/>
    <path class="cls-2" d="M325.42,73.02c-.89-.25-1.3-.75-.75-1.47,.71-.93,1.56-1.76,2.4-2.59,.4-.39,.94-.48,1.4-.08,.49,.43,.33,1.02-.03,1.38-.98,.96-1.8,2.12-3.01,2.76Z"/>
    <path class="cls-2" d="M334.56,84.67c-1.07,.44-2.19,.16-3.29,.23-.65,.04-1.24-.13-1.29-.89-.05-.75,.49-1.11,1.14-1.05,1.31,.12,2.73-.6,3.91,.49-.15,0-.3,0-.44,.03-1.26,.26-3.23-.79-3.59,.71-.16,.69,2.33,.14,3.56,.49Z"/>
    <path class="cls-3" d="M334.56,84.67c-1.24-.35-3.73,.21-3.56-.49,.36-1.5,2.33-.45,3.59-.71,.14-.03,.29-.02,.44-.03,.4,.62,.43,1.1-.47,1.22Z"/>
    <path class="cls-3" d="M292.61,84.67c-.68-.27-.67-.69-.27-1.21,1.51-.03,3.02-.06,4.53-.09,0,0,0,0,0,0-.86,2.25-2.87,.78-4.25,1.31Z"/>
    <path class="cls-2" d="M296.87,83.37c-1.51,.03-3.02,.06-4.53,.09,1.49-1.07,3-.77,4.53-.09Z"/>
    <path class="cls-2" d="M292.61,84.67c1.39-.53,3.39,.94,4.25-1.31,.34,1.31,.35,1.43-.61,1.45-1.21,.03-2.45,.33-3.65-.15Z"/>
    <path class="cls-3" d="M318.35,107.03h-9.81c0-.14,0-.29,0-.43h9.81c0,.14,0,.29,0,.43Z"/>
    <path class="cls-2" d="M310.63,79.46c1.09,.94,1.89,.49,2.58-.7,.11-.19,.96-.23,.99-.15,.84,2.1,3.45,.2,4.39,1.97,.23,.44,.19,.86-.17,1.22-.85,.86-.55,1.26,.45,1.78,1.23,.64,1.22,2.14-.02,2.68-1.03,.45-1.24,.88-.77,1.83,.36,.71,.05,1.31-.5,1.76-.52,.42-.93,.17-1.33-.29-.54-.61-1.02-.51-1.35,.23-.09,.2-.11,.44-.23,.63-.39,.61-1.49,.62-1.52,.42-.35-2.29-4.3,0-3.81-2.99,.16-.95,.4-1.42-.77-1.75-.91-.25-.86-1.67-.54-1.86,1.62-.91,1.25-2.15,1.09-3.55-.07-.55,.61-1.16,1.51-1.24Zm.81,5.09c.06,1.28,.57,2.34,2.02,2.45,1.58,.11,2.32-.98,2.46-2.35,.15-1.38-.73-2.4-2.04-2.48-1.41-.09-2.36,.78-2.45,2.38Z"/>
  </g>
  <g>
    <path class="cls-2" d="M710.38,129.92c-23.66-.12-42.25-18.86-42.31-41.08-.07-23.84,18.9-42.98,42.28-42.91,23.12,.07,42.27,19.18,42.14,42.08-.12,23.38-18.83,41.99-42.11,41.91Zm-.24-1.91c22.14,.12,40.41-17.62,40.57-39.38,.16-22.23-17.9-40.61-40.05-40.77-21.92-.15-40.75,18.09-40.84,39.58-.1,22.47,17.76,40.44,40.32,40.56Z"/>
    <path class="cls-2" d="M709.85,68.95c6.21,0,12.41,0,18.62,0,3.57,0,4.76,1.15,4.77,4.63,.03,8.15,.05,16.29,.05,24.44,0,3.16-1.34,4.46-4.52,4.48-3.36,.01-6.73-.03-10.09,.02-.7,0-2.08-.37-1.73,.93,.28,1.08-.5,2.89,1.62,3.19,1.08,.15,3.1-.77,2.95,1.15-.1,1.35-2.02,.66-3.1,.67-5.76,.06-11.52,.03-17.27-.01-.72,0-1.95,.46-1.99-.76-.05-1.41,1.29-.84,2.07-.96,.96-.15,1.99,.26,2.36-1.34,.65-2.8,.68-2.9-2.2-2.87-3.22,.04-6.43,.1-9.65,.05-3.26-.04-4.65-1.42-4.67-4.63-.05-8.45-.05-16.89-.05-25.34,0-2.36,1.31-3.66,3.78-3.68,6.36-.04,12.71-.01,19.07-.01v.04Zm.18,25.64s0-.03,0-.04c6.51,0,13.02-.01,19.52,.01,1.14,0,2,0,1.98-1.6-.08-6.5-.06-13.01-.05-19.51,0-1.93-.94-2.62-2.79-2.61-12.34,.02-24.68,.03-37.03-.04-2.13-.01-2.95,.79-2.93,2.9,.06,6.28,.07,12.56-.04,18.84-.03,1.8,.7,2.1,2.25,2.08,6.36-.06,12.72-.03,19.07-.03Zm.04,1.8v.06c-6.43,0-12.87,.09-19.3-.05-2.07-.04-2.21,.92-1.98,2.45,.25,1.65,1.39,1.87,2.79,1.87,8.83-.01,17.66,.02,26.49,.02,3.67,0,7.33-.09,11-.12,1.84-.02,2.41-1.06,2.44-2.75,.03-1.91-1.34-1.45-2.35-1.46-6.36-.03-12.72-.02-19.08-.02Zm.1,10.26v-.02c.89,0,1.79,0,2.68,0,2.94-.02,3.03-.23,2.22-3.02-.32-1.11-.97-1.12-1.83-1.1-1.79,.03-3.57,.02-5.36,.04-2.06,.02-2.79,.84-2.6,3.1,.15,1.77,1.57,.84,2.43,.98,.8,.13,1.63,.03,2.45,.03Z"/>
    <path class="cls-2" d="M702.43,76.16c3.22,.04,6.01,2.97,6.01,6.3,0,3.61-2.62,6.23-6.2,6.22-3.27-.01-6.31-3.05-6.3-6.29,.02-3.57,2.83-6.27,6.49-6.23Zm4.09,6.27c-.03-2.59-1.79-4.4-4.3-4.41-2.45,0-4.46,1.96-4.43,4.34,.03,2.5,2.14,4.62,4.54,4.55,2.56-.07,4.22-1.85,4.2-4.48Z"/>
    <path class="cls-2" d="M711.46,81.95c0-1.71,.02-3.43,0-5.14-.02-1.34,.39-1.85,1.72-1.09,3.16,1.8,6.25,3.73,9.56,5.28,1.25,.59,1.22,1.33-.06,2.05-3.18,1.77-6.35,3.58-9.49,5.44-1.26,.75-1.61,.24-1.62-.94-.01-1.86,0-3.73,0-5.59-.03,0-.07,0-.1,0Zm1.83-.45c0,.47-.02,.7,0,.92,.12,1.17-.55,2.83,.4,3.39,1.13,.67,2.2-.83,3.23-1.44,3.86-2.3,3.85-2.38-.17-4.61-1.07-.59-2.19-2.07-3.27-1.42-.83,.5-.1,2.22-.2,3.15Z"/>
    <path class="cls-2" d="M719.23,90.3c-.89,0-1.78,0-2.67,0-.69,0-1.46,.03-1.52-.88-.06-.95,.71-.98,1.4-.97,2,0,4,.02,6.01,.04,.62,0,1.25,.01,1.19,.9-.05,.83-.68,.86-1.29,.86-1.04,0-2.08,0-3.11,0v.06Z"/>
    <path class="cls-2" d="M710.12,99.79c-.65-.05-1.08-.39-1.08-1.1,0-.64,.25-1.19,.96-1.24,.73-.06,1.07,.47,1.12,1.09,.06,.66-.31,1.1-1.01,1.25Z"/>
  </g>
  <g>
    <path class="cls-2" d="M113.36,129.94c-23.82-.15-42.42-18.75-42.24-42.23,.18-23.09,19.34-41.96,42.45-41.81,23.21,.15,42.43,19.12,42.3,41.75-.14,23.75-18.93,42.44-42.51,42.29Zm-.08-1.92c22.01,.28,40.53-17.61,40.82-39.43,.29-21.99-17.87-40.47-40.07-40.77-22.31-.3-40.88,17.66-41.18,39.85-.3,22.23,17.57,40.06,40.42,40.35Z"/>
    <path class="cls-2" d="M111.9,70.42c4.91,.28,9.33,2.94,11.83,8.13,2.45,5.1,2.27,10.25-1.02,15.1-.46,.67-1.54,1.23-.89,2.3,.75,1.23,1.63,.51,2.49,.06,.7-.36,1.12,.23,1.52,.64,1.83,1.87,3.69,3.71,5.41,5.68,1.32,1.5,1.11,3.14-.36,4.57-1.33,1.29-3.15,1.33-4.55-.08-1.79-1.79-3.47-3.7-5.17-5.59-.5-.55-1.01-1.23-.56-2.02,.45-.79,.38-1.42-.28-1.98-.81-.69-1.39,.1-1.98,.42-4.24,2.33-8.62,2.83-13.15,.96-6.14-2.54-10.19-9.59-8.96-15.51,1.64-7.89,7.34-12.79,15.66-12.68Zm-1.13,2c-6.9-.01-12.76,5.68-12.74,12.39,.01,7.44,5.57,12.91,13.14,12.93,6.69,.02,12.23-5.66,12.25-12.57,.02-7.01-5.66-12.75-12.65-12.76Zm19.26,31.91c-.04-.14-.03-.31-.11-.43-1.47-2.06-3.23-3.87-5.1-5.55-.74-.67-1.07,.46-1.6,.74-.59,.31-.69,.82-.28,1.29,1.58,1.77,3.19,3.52,4.84,5.23,.45,.47,1.08,.49,1.63,.08,.44-.33,.64-.8,.62-1.36Z"/>
    <path class="cls-2" d="M111.51,77.65c.93,.04,2.19,.61,2.87,2.03,.72,1.49,.78,2.99-.17,4.47-.91,1.41-2.74,2.13-2.93,4.09-.04,.44-.73,.47-1.17,.36-.53-.13-.64-.57-.59-1.06,.12-1.08,.62-1.98,1.38-2.74,.53-.52,1.12-1.01,1.54-1.61,.88-1.26,.67-2.53-.61-3.28-1.23-.71-2.53-.38-3.23,.95-.44,.83-.78,1.93-1.84,1.2-.87-.6-.25-1.69,.2-2.42,.88-1.45,2.25-2.12,4.56-2Z"/>
    <path class="cls-2" d="M111.64,91.74c-.02,.76-.42,1.13-1.25,1.03-.85-.1-1.06-.65-1-1.4,.05-.74,.5-1,1.18-.99,.84,.02,1.16,.5,1.08,1.35Z"/>
  </g>
  <text class="cls-4" transform="translate(692.25 218.46)"><tspan x="0" y="0">開發</tspan></text>
</svg>