<?xml version="1.0" encoding="utf-8"?>
<!-- Generator: Adobe Illustrator 27.0.0, SVG Export Plug-In . SVG Version: 6.00 Build 0)  -->
<svg version="1.1" id="_圖層_1" xmlns="http://www.w3.org/2000/svg" xmlns:xlink="http://www.w3.org/1999/xlink" x="0px" y="0px"
	 viewBox="0 0 622 1024" style="enable-background:new 0 0 622 1024;" xml:space="preserve">
<style type="text/css">
	.st0{fill:#324053;}
	.st1{fill:none;stroke:#F8FAFC;stroke-miterlimit:10;}
	.st2{fill:none;stroke:#F8FAFC;stroke-miterlimit:10;stroke-dasharray:0,0,12.25,12.25;}
	.st3{fill:none;stroke:#F8FAFC;stroke-linecap:round;stroke-miterlimit:10;}
	.st4{fill:#FFFFFF;}
	.st5{font-family:'MicrosoftJhengHeiBold';}
	.st6{font-size:15.78px;}
	.st7{font-family:'MicrosoftJhengHeiRegular';}
	.st8{font-size:14px;}
	.st9{fill:#10B981;}
	.st10{font-family:'STHupo';}
	.st11{font-size:42.68px;}
	.st12{fill:#F8FAFC;}
	.st13{fill:#F59E0B;}
	.st14{fill:#DCDCDE;}
</style>
<rect class="st0" width="622" height="1024"/>
<g>
	<path class="st1" d="M293.5,594c0,0,2.9,0.9,7.8,3"/>
	<path class="st2" d="M317.1,604.2c29.1,15,79.4,48.4,117.9,114"/>
	<path class="st1" d="M439.3,725.9c1.4,2.5,2.7,5.1,4.1,7.6"/>
</g>
<g>
	<path class="st1" d="M431.3,279.3c0,0-0.3-2.1-1.2-5.9"/>
	<path class="st2" d="M426.7,261.7c-7.3-21.9-25.3-60.5-67.3-92.9"/>
	<path class="st1" d="M354.5,165.1c-1.6-1.2-3.2-2.3-4.9-3.5"/>
</g>
<g>
	<path class="st1" d="M250.1,927c0,0,2,0.8,5.7,1.8"/>
	<path class="st2" d="M267.8,931.5c22.7,4.2,65.2,7.2,113.9-14"/>
	<path class="st1" d="M387.2,914.9c1.8-0.8,3.6-1.7,5.4-2.6"/>
</g>
<g>
	<polyline class="st3" points="243.4,553.2 279.4,553.2 279.4,695 50.7,695 50.7,553.2 165.1,553.2 	"/>
	<text transform="matrix(1 0 0 1 64.9461 598.5656)" class="st4 st5 st6">設計與開發</text>
	<text transform="matrix(1 0 0 1 64.4261 627.7056)" class="st4 st7 st8">團隊進行視覺設計與程式開發</text>
	<text transform="matrix(1 0 0 1 64.4261 648.7056)" class="st4 st7 st8">，兼顧美感與功能，打造流暢</text>
	<text transform="matrix(1 0 0 1 64.4261 669.7056)" class="st4 st7 st8">且具吸引力的使用體驗。</text>
	<text transform="matrix(1 0 0 1 182.653 569.8426)" class="st9 st10 st11">03</text>
	<text transform="matrix(1 0 0 1 181.146 568.3356)" class="st12 st10 st11">03</text>
	<g>
		<path class="st4" d="M86.8,538.8c0,2.7,0.1,5.2,0,7.8c-0.1,1.7-1.4,2.7-3.1,2.8c-2.7,0-5.5,0-8.2,0c-0.6,0-1.7-0.3-1.5,0.8
			c0.2,0.8-0.2,2.2,1.4,2.4c0.8,0.1,2.3-0.5,2.3,0.7c-0.1,1.3-1.6,0.6-2.5,0.6c-4.5,0.1-9,0-13.4,0c-0.6,0-1.5,0.3-1.5-0.6
			c0-1,0.9-0.7,1.5-0.7c0.9-0.1,1.8,0.1,2-1.3c0.3-1.6-0.2-2-1.7-1.9c-2.6,0.1-5.2,0.1-7.9,0.1c-2.3,0-3.4-1.1-3.4-3.4
			c0-6.3,0-12.6,0-19c0-2.3,1-3.3,3.4-3.3c9.7,0,19.4,0,29.2,0c1.2,0,2.3,0.2,3.1,1.3c0.2,0.3,0.4,0.7,0,1.1
			c-0.4,0.3-0.8,0.3-1.1-0.1c-0.7-1-1.7-0.8-2.7-0.8c-9.4,0-18.9,0.1-28.3,0c-1.7,0-2.2,0.6-2.2,2.2c0.1,4.8,0.1,9.6,0,14.4
			c0,1.2,0.4,1.6,1.6,1.5c4.8-0.1,9.7,0,14.5,0c0.5,0,1.3-0.3,1.4,0.5c0.1,1-0.8,0.8-1.4,0.8c-4.8,0-9.7,0.1-14.5,0.1
			c-0.8,0-1.7-0.2-1.7,1.1c0,1.1,0.3,1.9,1.5,2.1c0.2,0,0.5,0,0.7,0c9.6,0,19.2,0.3,28.8,0c1,0,1.9,0,2.2-1.2c0.4-1.5,0.1-2-1.5-2
			c-0.8,0-1.6,0-2.4,0c-0.4,0-0.9,0.1-0.9-0.5c0-0.4,0.4-0.7,0.8-0.8c0.4-0.1,0.8-0.1,1.2-0.1c2.9,0,2.9,0,2.9-2.8
			C85.4,539.7,85.5,539,86.8,538.8z M68.9,552.5L68.9,552.5c0.6,0,1.3,0,1.9,0c2.2,0,2.3-0.2,1.7-2.2c-0.2-0.7-0.6-0.9-1.2-0.9
			c-1.5,0-2.9,0.2-4.3,0c-1.9-0.3-1.9,1-2,2.2c-0.1,1.6,1.2,0.8,1.9,0.9C67.5,552.6,68.2,552.5,68.9,552.5z"/>
		<path class="st9" d="M72.3,546.9c-1.3,0.2-1.7,0-1.6-0.9c0.3-2.7,0.9-5.2,3.2-7.2c3.6-3.1,6.9-6.7,10.3-10.1
			c2.2-2.2,4.3-1.4,5.7,0.1c1.1,1.2,1.3,3.2,0.1,4.4c-4.4,4.3-8.9,8.5-13.2,12.8C75.6,547.1,73.5,546.7,72.3,546.9z M74.1,542.6
			c0.4-0.3,0.7-0.5,0.9-0.7c2.8-2.7,5.5-5.5,8.3-8.2c0.4-0.4,0.7-0.8,0.1-1.3c-0.5-0.5-1-0.2-1.3,0.2c-1.4,1.4-2.8,2.8-4.2,4.3
			c-1.3,1.3-2.6,2.6-3.9,3.8c-0.3,0.3-0.7,0.5-0.4,1C73.6,542.1,73.9,542.3,74.1,542.6z M76.5,544.3c0.1-0.1,0.3-0.2,0.5-0.4
			c2.9-2.8,5.7-5.6,8.6-8.4c0.4-0.4,0.4-0.6,0-1c-0.5-0.6-0.9-0.3-1.3,0.1c-2.8,2.8-5.6,5.5-8.5,8.3c-0.2,0.2-0.5,0.5-0.2,0.9
			C75.8,544,76,544.4,76.5,544.3z M89.4,531c0-1.2-1.2-2.4-2.4-2.4c-0.6,0-1.2,0.1-1.4,0.8c-0.1,0.3,2.7,3,3,2.9
			C89.3,532.1,89.4,531.5,89.4,531z M74.9,545c-0.8-0.6-1.2-2-2.4-1.7c-0.5,0.1-0.7,1.5-0.3,2C72.9,546.1,73.9,545.2,74.9,545z
			 M87.6,533.6c0-0.3-2.9-3.1-3.2-3c-0.1,0-0.3,0.1-0.4,0.2c-0.2,0.2-0.2,0.5,0,0.7c0.9,0.8,1.8,1.6,2.7,2.4
			C87.1,534.2,87.4,534,87.6,533.6z"/>
		<path class="st13" d="M61.3,539.4c-1.4,0-2.8,0-4.2,0c-1.1,0-1.3-0.6-0.8-1.5c1.4-2.6,2.9-5.1,4.3-7.7c0.5-1,1-1,1.5,0
			c1.5,2.6,2.9,5.3,4.3,7.9c0.5,0.9,0,1.3-0.9,1.3C64.2,539.4,62.7,539.4,61.3,539.4L61.3,539.4z M57.8,538c2.2,0,4,0,5.9,0
			c0.7,0,1-0.2,0.6-0.9c-1-1.7-1.9-3.5-3-5.4C60.1,533.9,59,535.8,57.8,538z"/>
		<path class="st4" d="M74.7,529.1c1.5,0,3,0,4.5,0c0.5,0,1.1,0,1.1,0.7c0,0.6-0.5,0.7-1,0.7c-3.2,0-6.5,0-9.7,0c-0.5,0-1,0-1-0.7
			s0.5-0.8,1.1-0.8C71.3,529,73,529,74.7,529.1C74.7,529,74.7,529,74.7,529.1z"/>
		<path class="st4" d="M72.8,533.4c-1.1,0-2.2,0-3.3,0c-0.5,0-0.9-0.2-0.9-0.8c0-0.5,0.4-0.7,0.8-0.7c2.3,0,4.6,0,6.9-0.1
			c0.4,0,0.9,0,0.9,0.6c0,0.6-0.4,0.9-1,0.9C75.1,533.4,73.9,533.4,72.8,533.4L72.8,533.4z"/>
		<path class="st4" d="M71.5,536.2c-0.8,0-1.5,0-2.3,0c-0.4,0-0.6-0.3-0.6-0.7s0.2-0.7,0.6-0.7c1.6,0,3.3,0,4.9,0
			c0.3,0,0.7,0.1,0.6,0.4c0,0.5-0.3,0.9-0.8,1C73.2,536.2,72.4,536.2,71.5,536.2L71.5,536.2z"/>
		<path class="st4" d="M70.3,537.8c0.5,0.2,1.5-0.4,1.5,0.6s-1,0.9-1.7,0.9c-0.6,0-1.5,0.2-1.4-0.7C68.7,537.5,69.7,538,70.3,537.8z
			"/>
		<path class="st9" d="M68.6,547.1c-0.6-0.1-0.8-0.5-0.8-1c0-0.4,0.3-0.8,0.7-0.8c0.6,0.1,0.9,0.5,0.8,1.1
			C69.3,546.9,69,547.1,68.6,547.1z"/>
	</g>
</g>
<g>
	<polyline class="st3" points="378,886.3 350.3,886.3 350.3,744.5 579,744.5 579,886.3 448.4,886.3 	"/>
	<text transform="matrix(1 0 0 1 366.4514 783.3085)" class="st4 st5 st6">交付與持續優化</text>
	<text transform="matrix(1 0 0 1 367.0814 810.8585)" class="st4 st7 st8">完成作品交付後，我們仍會提</text>
	<text transform="matrix(1 0 0 1 367.0814 831.8585)" class="st4 st7 st8">供支援與優化建議，確保專案</text>
	<text transform="matrix(1 0 0 1 367.0814 852.8585)" class="st4 st7 st8">能隨著需求持續成長。</text>
	<text transform="matrix(1 0 0 1 389.9584 901.8055)" class="st9 st10 st11">04</text>
	<text transform="matrix(1 0 0 1 388.4514 900.2985)" class="st12 st10 st11">04</text>
	<path class="st12" d="M554.2,786.3c-1.7-0.1-3.6-0.8-5-2.3c-0.7-0.8-1.2-0.7-1.3,0.3c-0.2,1.6-1.2,2.1-2.7,1.9
		c-0.6-0.1-1.2-0.1-1.7,0c-1.9,0.2-3.1-0.3-3.3-2.4c0-0.2-0.1-0.3-0.1-0.5c-0.4-0.7-5.7-3.1-6.4-2.8c-1.7,0.7-2.7-0.1-3.4-1.6
		c-0.3-0.6-0.6-1.3-1-1.8c-0.8-1-0.5-1.8,0.3-2.7c1.6-1.7,1.6-6,0.1-7.7c-0.8-0.9-1.2-1.8-0.4-2.9c0.4-0.5,0.7-1.1,0.9-1.7
		c0.6-1.9,2-2.5,3.8-1.9c1,0.3,1.7,0.1,2.5-0.6c0.5-0.5,1.1-0.9,1.7-1.2c1.3-0.6,2.4-1.3,2.3-3c0-0.2,0.1-0.5,0.2-0.6
		c1.7-1.7,3.8-0.5,5.7-0.8c1.2-0.1,1.5,0.8,1.6,1.6c0.1,1.4,0.9,2,2,2.5c0.6,0.3,1.2,0.5,1.6,0.9c1.1,1.1,2.3,1.5,3.9,1
		c1.1-0.4,2,0,2.5,1.2c0.3,0.6,0.6,1.2,1,1.8c1,1.5,1,2.8-0.6,3.9c-0.7,0.5-0.9,1.1-0.6,2c0.1,0.4,0.2,0.8,0.1,1.2
		c-0.3,1.7,0.3,2.9,1.7,4c2.2,1.7,2.7,4.8,1.8,7.4C560.1,784.4,557.5,786.3,554.2,786.3z M543.7,784.9c2.4,0,2.4,0,3-1.8
		c0.1-0.3,0.2-0.7,0.5-0.9c1.1-0.9,0.3-2,0.1-2.8c-0.2-0.9-1.2-0.2-1.8-0.2c-0.5,0-1,0.1-1.5,0.1c-4.1-0.1-7.2-2.2-8.5-5.8
		c-1.2-3.6,0-7.6,3.2-10.1c2.8-2.2,7-2.5,10.2-0.6c3,1.9,4.7,4.6,4.6,8.3c0,1.2,0.4,1.5,1.5,1.4c1,0,1.5-0.2,1.4-1.3
		c-0.1-2-0.8-4,1.5-5.5c0.8-0.5-1.3-4.1-2.3-3.9c-2.1,0.5-3.6-0.1-5.1-1.5c-0.5-0.5-1.3-0.8-2-1c-1.2-0.3-1.7-0.9-1.7-2
		c0-1.2-0.6-1.6-1.7-1.6c-0.8,0.1-1.6,0-2.4,0c-0.5,0-1,0.2-0.9,0.8c0.1,2.1-1.2,2.9-2.9,3.5c-0.7,0.2-1.3,0.7-1.9,1.2
		c-1,1-2,1.2-3.3,0.7c-1.1-0.4-1.9-0.2-2.3,1c-0.2,0.5-0.5,1-0.8,1.5s-0.5,1.1,0.2,1.5c1.6,1,1.7,2.5,1.4,4.2
		c-0.2,0.8-0.1,1.7,0,2.6c0.1,1-0.1,1.8-0.9,2.4c-0.7,0.5-1.5,1.1-0.6,2.1c0.9,0.9,0.9,3.2,3.1,2.3c0.8-0.3,1.5-0.5,2.2,0.2
		c1.2,1.1,2.6,1.8,4.2,2.4c0.6,0.2,1.3,0.5,1.3,1.2C541.4,784.8,542.4,785.2,543.7,784.9z M540.3,776.9c0.5-0.2,0.3-0.7,0.3-1.1
		c0-0.9,0-1.8,0-2.7s-0.1-1.4-1.2-1.3c-1.3,0.1-1.4-0.6-0.7-1.5c1.5-1.7,3.1-3.3,4.7-5c0.4-0.4,0.9-0.6,1.3-0.1
		c1.7,1.7,3.3,3.5,4.9,5.3c0.6,0.7,0.6,1.5-0.6,1.4c-1.2-0.1-1.3,0.5-1.3,1.4c0.1,0.8,0,1.7,0,2.9c1-1,1.5-2,2.4-2.5
		c2-1,1.9-2.3,1.7-4.3c-0.5-4-4.4-7-8.6-6.6c-2.9,0.3-5.9,2.8-6.8,5.8c-0.9,3.1,0.2,6.1,2.7,7.9C539.6,776.7,539.9,777,540.3,776.9
		 M560.2,779.2c0-3-2.7-5.7-5.7-5.6c-3.2,0-5.8,2.7-5.8,5.8c0,2.9,2.7,5.5,5.7,5.6C557.5,785,560.2,782.3,560.2,779.2z M542.4,777.6
		c0.4,0.3,1.1,0.3,1.8,0.3c2.3-0.1,2.3-0.1,2.3-2.1c0-1.1-0.1-2.2,0-3.2c0-0.8-0.3-1.8,1-2c0.5-0.1,0.4-0.5,0.1-0.8
		c-1.1-1-1.9-3-3.3-3.1c-1.4-0.1-2.2,1.9-3.3,3c-0.2,0.2-0.5,0.6-0.1,0.7c2,0.9,0.5,2.7,1.1,3.6c0,0.8,0.1,1.3,0,1.8
		C541.8,776.8,542,777.3,542.4,777.6"/>
	<path class="st9" d="M558.3,777.2c-0.2,0.4-0.2,0.6-0.3,0.7c-1.3,1.4-2.5,2.8-3.9,4.1c-0.4,0.4-0.8,0.3-1.2-0.1
		c-0.6-0.6-1.2-1.2-1.8-1.8c-0.4-0.3-0.6-0.7-0.1-1.1c0.4-0.3,0.8-0.2,1,0.2c1.2,2,2.2,1.3,3.3-0.2c0.5-0.6,1.1-1.2,1.6-1.7
		c0.2-0.3,0.5-0.5,0.9-0.3C557.9,777,558.1,777.1,558.3,777.2z"/>
	<path class="st13" d="M491.8,780.3c-0.3,0.7-0.4,1-0.6,1.2c-2.1,2.3-4.3,4.6-6.5,6.9c-0.6,0.6-1.3,0.5-2-0.2c-1-1-2-2-3.1-3
		c-0.6-0.6-1-1.2-0.2-1.9c0.6-0.5,1.3-0.4,1.7,0.3c2,3.3,3.7,2.1,5.4-0.3c0.8-1.1,1.8-1.9,2.7-2.9c0.4-0.4,0.9-0.8,1.5-0.5
		C491.2,780.1,491.6,780.2,491.8,780.3z"/>
	<g>
		<path class="st9" d="M549.6,770.4c-1.6-1.8-3.2-3.5-4.9-5.3c-0.4-0.5-0.9-0.3-1.3,0.1c-1.6,1.7-3.2,3.3-4.7,5
			c-0.8,0.8-0.6,1.5,0.7,1.5c1.1-0.1,1.2,0.5,1.2,1.3c0,0.9,0,1.8,0,2.7c0,0.3,0.1,0.6,0,0.9c0,0.2,0,0.4,0,0.6
			c0.3,0,0.6,0.1,0.9,0.2c0.1,0,0.3,0.1,0.4,0.1c0.1-0.1,0.2-0.1,0.3-0.2c-0.3-0.3-0.4-0.8-0.3-1.6c0.1-0.5,0-1,0-1.8
			c-0.5-1,1.1-3.4-1.1-3.6c-0.4,0-0.1-0.5,0.1-0.7c1-1.1,1.8-3.1,3.3-3c1.4,0.1,2.1,2,3.3,3.1c0.3,0.2,0.4,0.7-0.1,0.8
			c-1.3,0.2-1,1.2-1,2c0,1.1,0,2.2,0,3.2c0,0.8,0,1.3-0.1,1.6c0.3,0.1,0.6,0.3,0.9,0.5c0.1,0,0.1,0,0.2,0c0.2,0,0.3-0.1,0.5-0.1
			c0-0.3,0-0.5,0-0.8s-0.1-0.6,0-1l-0.1,0.1c0-1.2,0-2.1,0-2.9c-0.1-1,0.1-1.5,1.3-1.4C550.3,771.9,550.2,771.1,549.6,770.4z"/>
	</g>
</g>
<g>
	<polyline class="st3" points="198.9,56.2 337.2,56.2 337.2,198 108.5,198 108.5,56.2 132.5,56.2 	"/>
	<text transform="matrix(1 0 0 1 146.2814 71.6523)" class="st9 st10 st11">01</text>
	<text transform="matrix(1 0 0 1 144.2758 71.1836)" class="st12 st10 st11">01</text>
	<text transform="matrix(1 0 0 1 123.0458 103.6537)" class="st4 st5 st6">了解需求</text>
	<text transform="matrix(1 0 0 1 122.5257 131.2436)" class="st4 st7 st8">我們會先與你深入討論，理解</text>
	<text transform="matrix(1 0 0 1 122.5257 152.2436)" class="st4 st7 st8">品牌定位、專案目標與使用者</text>
	<text transform="matrix(1 0 0 1 122.5257 173.2436)" class="st4 st7 st8">需求，確保方向正確。</text>
	<g>
		<path class="st12" d="M281.6,66.9c4.8,0.3,9.2,2.9,11.6,8c2.4,5,2.2,10.1-1,14.8c-0.4,0.7-1.5,1.2-0.9,2.3
			c0.7,1.2,1.6,0.5,2.4,0.1c0.7-0.4,1.1,0.2,1.5,0.6c1.8,1.8,3.6,3.6,5.3,5.6c1.3,1.5,1.1,3.1-0.4,4.5c-1.3,1.3-3.1,1.3-4.5-0.1
			c-1.8-1.8-3.4-3.6-5.1-5.5c-0.5-0.5-1-1.2-0.6-2c0.4-0.8,0.4-1.4-0.3-1.9c-0.8-0.7-1.4,0.1-1.9,0.4c-4.2,2.3-8.5,2.8-12.9,0.9
			c-6-2.5-10-9.4-8.8-15.2C267.9,71.6,273.5,66.7,281.6,66.9z M280.5,68.8c-6.8,0-12.5,5.6-12.5,12.2c0,7.3,5.5,12.7,12.9,12.7
			c6.6,0,12-5.6,12-12.3C293,74.5,287.4,68.8,280.5,68.8z M299.4,100.2c0-0.1,0-0.3-0.1-0.4c-1.4-2-3.2-3.8-5-5.5
			c-0.7-0.7-1.1,0.5-1.6,0.7c-0.6,0.3-0.7,0.8-0.3,1.3c1.6,1.7,3.1,3.5,4.8,5.1c0.4,0.5,1.1,0.5,1.6,0.1
			C299.3,101.2,299.5,100.7,299.4,100.2z"/>
		<path class="st13" d="M281.3,74c0.9,0,2.2,0.6,2.8,2c0.7,1.5,0.8,2.9-0.2,4.4c-0.9,1.4-2.7,2.1-2.9,4c0,0.4-0.7,0.5-1.1,0.4
			c-0.5-0.1-0.6-0.6-0.6-1c0.1-1.1,0.6-1.9,1.4-2.7c0.5-0.5,1.1-1,1.5-1.6c0.9-1.2,0.7-2.5-0.6-3.2c-1.2-0.7-2.5-0.4-3.2,0.9
			c-0.4,0.8-0.8,1.9-1.8,1.2c-0.9-0.6-0.2-1.7,0.2-2.4C277.7,74.5,279,73.8,281.3,74z"/>
		<path class="st13" d="M281.4,87.8c0,0.7-0.4,1.1-1.2,1c-0.8-0.1-1-0.6-1-1.4c0.1-0.7,0.5-1,1.2-1
			C281.2,86.5,281.5,86.9,281.4,87.8z"/>
	</g>
	<g>
		<path class="st9" d="M314.5,172.8c0.8,0.4,1.7,1.4,1.8,3s-0.5,3-1.9,3.9s-3.3,0.8-4.3,2.5c-0.2,0.4-0.8,0.1-1.2-0.1
			c-0.4-0.3-0.3-0.8-0.1-1.2c0.5-0.9,1.3-1.5,2.3-1.9c0.7-0.3,1.4-0.5,2-0.8c1.3-0.8,1.6-2,0.8-3.2c-0.8-1.1-2.1-1.3-3.3-0.4
			c-0.7,0.6-1.5,1.4-2.1,0.3c-0.5-0.9,0.4-1.6,1.1-2.1C311,171.8,312.5,171.8,314.5,172.8z"/>
		<path class="st9" d="M309,185.5c-0.3,0.7-0.8,0.8-1.5,0.4c-0.7-0.4-0.7-1-0.3-1.7c0.3-0.6,0.8-0.7,1.5-0.4
			C309.3,184.2,309.4,184.7,309,185.5z"/>
	</g>
</g>
<g>
	<text transform="matrix(1 0 0 1 450.0493 448.7475)" class="st9 st10 st11">02</text>
	<polyline class="st3" points="439.6,434.7 301.3,434.7 301.3,292.9 530,292.9 530,434.7 506,434.7 	"/>
	<text transform="matrix(1 0 0 1 317.2233 327.8087)" class="st4 st5 st6">提出方案</text>
	<text transform="matrix(1 0 0 1 316.2332 349.9587)" class="st4 st7 st8">根據需求提供量身打造的解決</text>
	<text transform="matrix(1 0 0 1 316.2332 370.9587)" class="st4 st7 st8">方案，包含設計概念、技術規</text>
	<text transform="matrix(1 0 0 1 316.2332 391.9587)" class="st4 st7 st8">劃與時程安排，讓你清楚掌握</text>
	<text transform="matrix(1 0 0 1 316.2332 412.9587)" class="st4 st7 st8">全貌。</text>
	<text transform="matrix(1 0 0 1 449.1132 448.2787)" class="st12 st10 st11">02</text>
	<g>
		<path class="st14" d="M384.8,426c-1.1-0.4-2.2-0.9-3.3-1.3c-0.9-0.3-1.3-1-0.9-1.8c0.7-1.7,0.2-3.2-0.3-4.8
			c-1.8-6,1.7-11.6,7.7-12.3c4-0.5,8.4,2.1,9.7,5.8c1.5,4.2,0,8.8-3.6,11.1c-1.7,1.1-3.6,2-4.4,4.2c-0.2,0.7-0.9,0.8-1.6,0.5
			C387.1,426.9,385.9,426.5,384.8,426L384.8,426z M392.3,407.8c-2.7-1-4.8-1-6.8,0c-3.4,1.7-5,5.3-4.2,9c0.5,1.9,1.5,3.8,0.7,5.9
			c-0.3,0.7,0.4,0.9,0.8,1.1c0.7,0.3,0.8-0.2,0.9-0.7c0.2-0.7,0.5-1.5,0.7-2.2c0.1-0.4,0.1-0.8,0.7-0.6c0.4,0.1,0.6,0.4,0.5,0.8
			c-0.2,0.8-0.5,1.6-0.7,2.4c-0.1,0.5-0.3,0.9,0.4,1.2c0.6,0.2,0.8-0.2,1-0.6c0.4-0.7,0.7-1.5,1.1-2.2c0.2-0.4,0.5-0.6,1-0.4
			c0.5,0.3,0.3,0.7,0.1,1c-0.4,0.6-0.8,1.2-1.1,1.9c-0.2,0.4-0.6,0.9,0.1,1.3c0.6,0.3,1.2,0.5,1.6-0.3c0.7-1.7,2.2-2.5,3.7-3.4
			c2.9-1.8,4.6-4.4,4.2-7.9C396.6,410.8,394.7,408.8,392.3,407.8z"/>
		<path class="st14" d="M383.9,428.1c-1-0.4-2-0.8-3-1.2c-0.4-0.2-0.9-0.4-0.7-1c0.2-0.5,0.6-0.4,1-0.3c2.1,0.8,4.1,1.6,6.2,2.3
			c0.4,0.2,0.7,0.4,0.5,0.9s-0.7,0.4-1.1,0.3C385.9,428.8,384.9,428.4,383.9,428.1C383.9,428,383.9,428.1,383.9,428.1z"/>
		<path class="st14" d="M383,431c0.4,0.4,1.9,0.1,1.5,1.2c-0.4,1-1.4,0.3-2.2,0.1c-0.2-0.1-0.4-0.1-0.6-0.2c-0.6-0.3-1.3-0.7-1-1.4
			c0.3-0.8,1,0,1.4,0C382.4,430.7,382.7,430.8,383,431z"/>
		<path class="st9" d="M383.6,401.1c0.5,0.2,1.7,2.9,1.5,3.3c-0.3,0.4-0.7,0.6-1,0.1c-0.5-0.8-0.9-1.7-1.2-2.6
			C382.7,401.4,383,401,383.6,401.1z"/>
		<path class="st9" d="M394.2,403.1c-0.1,0.3-0.3,0.7-0.4,1c-0.1,0.4-0.4,0.6-0.8,0.4s-0.5-0.5-0.3-0.9c0.2-0.6,0.4-1.2,0.6-1.7
			c0.2-0.4,0.3-1.1,1-0.8c0.8,0.3,0.3,0.8,0.2,1.3C394.4,402.6,394.3,402.8,394.2,403.1L394.2,403.1z"/>
		<path class="st9" d="M399.4,410.5c-0.5-0.4-0.7-0.8-0.1-1.1c0.7-0.4,1.4-0.7,2.2-1.1c0.4-0.2,0.7-0.1,0.9,0.3
			c0.2,0.4,0,0.7-0.4,0.9C401.2,409.9,400.4,410.4,399.4,410.5z"/>
		<path class="st9" d="M402.4,420.4c-0.8,0-1.5-0.4-2.2-0.7c-0.4-0.1-0.8-0.4-0.6-0.9c0.2-0.5,0.6-0.6,1-0.4
			c0.8,0.4,1.9,0.3,2.4,1.3c-0.1,0-0.2-0.1-0.3-0.1c-0.9-0.1-1.9-1.3-2.5-0.4C400,419.6,401.7,419.8,402.4,420.4z"/>
		<path class="st9" d="M402.4,420.4c-0.7-0.5-2.5-0.8-2.2-1.2c0.6-0.9,1.6,0.3,2.5,0.4c0.1,0,0.2,0.1,0.3,0.1
			C403.1,420.2,403,420.5,402.4,420.4z"/>
		<path class="st9" d="M375.3,409.9c-0.4-0.3-0.3-0.6,0.1-0.8c1,0.4,2,0.7,3,1.1l0,0C377.2,411.4,376.3,409.9,375.3,409.9z"/>
		<path class="st9" d="M378.4,410.1c-1-0.4-2-0.7-3-1.1C376.6,408.7,377.5,409.3,378.4,410.1z"/>
		<path class="st9" d="M375.3,409.9c1,0,2,1.5,3.1,0.2c-0.1,0.9-0.1,1-0.8,0.8C376.8,410.6,375.9,410.5,375.3,409.9z"/>
		<path class="st14" d="M386.4,429.9c-1.9-0.7-3.8-1.5-5.8-2.2c-0.4-0.2-0.9-0.4-1.2,0.2c-0.3,0.7,0.3,0.9,0.8,1.1
			c1,0.4,1.9,0.7,2.9,1.1l0,0c0.9,0.4,1.8,0.7,2.7,1.1c0.5,0.2,1.1,0.4,1.3-0.3C387.4,430.3,386.8,430.1,386.4,429.9z"/>
		<path class="st9" d="M388.2,411c0.5,0.9,1.1,0.8,1.8,0.2c0.1-0.1,0.7,0.1,0.7,0.2c0,1.6,2.2,1,2.3,2.4c0,0.3-0.1,0.6-0.4,0.7
			c-0.8,0.3-0.7,0.7-0.2,1.3c0.6,0.7,0.3,1.7-0.7,1.7c-0.8,0-1,0.3-1,1c0.1,0.6-0.3,0.9-0.8,1c-0.4,0.1-0.6-0.1-0.8-0.5
			c-0.2-0.5-0.5-0.6-0.9-0.2c-0.1,0.1-0.2,0.3-0.3,0.3c-0.4,0.3-1.1,0-1.1-0.1c0.3-1.6-2.8-1.1-1.7-2.9c0.3-0.6,0.6-0.8-0.1-1.3
			c-0.5-0.4-0.1-1.3,0.1-1.3c1.3-0.2,1.3-1.1,1.6-2C387,411.1,387.6,410.9,388.2,411z M387.5,414.5c-0.3,0.8-0.2,1.7,0.7,2.1
			c1,0.5,1.7-0.1,2.2-0.9c0.4-0.9,0.1-1.7-0.7-2.1C388.8,413.2,387.9,413.5,387.5,414.5z"/>
	</g>
	<g>
		<path class="st13" d="M377.4,306.9c0.5,0.3,1.1,3.1,0.8,3.5c-0.3,0.4-0.8,0.4-1-0.1c-0.3-0.9-0.6-1.9-0.7-2.8
			C376.4,306.9,376.8,306.6,377.4,306.9z"/>
		<path class="st13" d="M387.3,310.8c-0.2,0.3-0.4,0.6-0.6,0.9c-0.2,0.3-0.5,0.5-0.9,0.3c-0.4-0.2-0.4-0.6-0.2-0.9
			c0.3-0.5,0.6-1.1,1-1.6c0.3-0.4,0.5-1,1.2-0.6s0.2,0.9,0,1.3C387.7,310.4,387.5,310.6,387.3,310.8
			C387.4,310.8,387.4,310.8,387.3,310.8z"/>
		<path class="st13" d="M391,319.2c-0.4-0.5-0.5-0.9,0.1-1.1c0.8-0.3,1.6-0.5,2.4-0.6c0.4-0.1,0.7,0.1,0.8,0.5
			c0.1,0.4-0.2,0.7-0.5,0.8C392.9,318.9,392,319.2,391,319.2z"/>
	</g>
</g>
<path class="st2" d="M279.2,380.3c0,0-31.9,9.1-65-25.7c0,0-38.9-28.9-20.1-42.7c3.3-2.4,7.5-3.6,11.6-3.3
	c6.6,0.5,16.2,3.7,13.8,19.2c-0.7-2.8-10.2,45.7-41.9,47.2c-37.7,1.8-59.7,38-59.7,38s-37.9,73.1,61.8,117.7"/>
</svg>
