<?xml version="1.0" encoding="utf-8"?>
<!-- Generator: Adobe Illustrator 27.0.0, SVG Export Plug-In . SVG Version: 6.00 Build 0)  -->
<svg version="1.1" id="_圖層_1" xmlns="http://www.w3.org/2000/svg" xmlns:xlink="http://www.w3.org/1999/xlink" x="0px" y="0px"
	 viewBox="0 0 1024 270.6" style="enable-background:new 0 0 1024 270.6;" xml:space="preserve">
<style type="text/css">
	.st0{fill:#324053;}
	.st1{fill:#10B981;}
	.st2{font-family:'STHupo';}
	.st3{font-size:42.68px;}
	.st4{fill:none;stroke:#F8FAFC;stroke-linecap:round;stroke-miterlimit:10;}
	.st5{fill:#F8FAFC;}
	.st6{fill:#FFFFFF;}
	.st7{font-family:'MicrosoftJhengHeiBold';}
	.st8{font-size:15.78px;}
	.st9{letter-spacing:1;}
	.st10{font-family:'MicrosoftJhengHeiRegular';}
	.st11{font-size:14px;}
	.st12{fill:none;stroke:#F8FAFC;stroke-miterlimit:10;}
	.st13{fill:none;stroke:#F8FAFC;stroke-miterlimit:10;stroke-dasharray:0,0,12.25,12.25;}
	.st14{fill:#F59E0B;}
	.st15{fill:#DCDCDE;}
</style>
<rect class="st0" width="1024" height="270.6"/>
<text transform="matrix(1 0 0 1 417.1161 262.1988)" class="st1 st2 st3">02</text>
<polyline class="st4" points="101.6,21.6 239.9,21.6 239.9,163.4 11.2,163.4 11.2,21.6 35.2,21.6 "/>
<polyline class="st4" points="406.7,248.2 268.4,248.2 268.4,106.4 497.1,106.4 497.1,248.2 473.1,248.2 "/>
<polyline class="st4" points="810.5,227.3 782.8,227.3 782.8,85.5 1011.5,85.5 1011.5,227.3 880.9,227.3 "/>
<polyline class="st4" points="718.3,49 754.3,49 754.3,190.8 525.6,190.8 525.6,49 640,49 "/>
<text transform="matrix(1 0 0 1 48.9956 37.0087)" class="st1 st2 st3">01</text>
<text transform="matrix(1 0 0 1 46.99 36.54)" class="st5 st2 st3">01</text>
<text transform="matrix(1 0 0 1 25.76 69.01)" class="st6 st7 st8 st9">了解需求</text>
<text transform="matrix(1 0 0 1 25.24 96.6)" class="st6 st10 st11 st9">我們會先與你深入討論，理解</text>
<text transform="matrix(1 0 0 1 25.24 117.6)" class="st6 st10 st11 st9">品牌定位、專案目標與使用者</text>
<text transform="matrix(1 0 0 1 25.24 138.6)" class="st6 st10 st11 st9">需求，確保方向正確。</text>
<text transform="matrix(1 0 0 1 284.29 141.26)" class="st6 st7 st8 st9">提出方案</text>
<text transform="matrix(1 0 0 1 283.3 163.41)" class="st6 st10 st11 st9">根據需求提供量身打造的解決</text>
<text transform="matrix(1 0 0 1 283.3 184.41)" class="st6 st10 st11 st9">方案，包含設計概念、技術規</text>
<text transform="matrix(1 0 0 1 283.3 205.41)" class="st6 st10 st11 st9">劃與時程安排，讓你清楚掌握</text>
<text transform="matrix(1 0 0 1 283.3 226.41)" class="st6 st10 st11 st9">全貌。</text>
<text transform="matrix(1 0 0 1 539.84 94.34)" class="st6 st7 st8 st9">設計與開發</text>
<text transform="matrix(1 0 0 1 539.32 123.48)" class="st6 st10 st11 st9">團隊進行視覺設計與程式開發</text>
<text transform="matrix(1 0 0 1 539.32 144.48)" class="st6 st10 st11 st9">，兼顧美感與功能，打造流暢</text>
<text transform="matrix(1 0 0 1 539.32 165.48)" class="st6 st10 st11 st9">且具吸引力的使用體驗。</text>
<text transform="matrix(1 0 0 1 798.93 124.34)" class="st6 st7 st8 st9">交付與持續優化</text>
<text transform="matrix(1 0 0 1 799.56 151.89)" class="st6 st10 st11 st9">完成作品交付後，我們仍會提</text>
<text transform="matrix(1 0 0 1 799.56 172.89)" class="st6 st10 st11 st9">供支援與優化建議，確保專案</text>
<text transform="matrix(1 0 0 1 799.56 193.89)" class="st6 st10 st11 st9">能隨著需求持續成長。</text>
<text transform="matrix(1 0 0 1 416.18 261.73)" class="st5 st2 st3">02</text>
<text transform="matrix(1 0 0 1 822.437 242.837)" class="st1 st2 st3">04</text>
<text transform="matrix(1 0 0 1 820.93 241.33)" class="st5 st2 st3">04</text>
<text transform="matrix(1 0 0 1 657.547 65.617)" class="st1 st2 st3">03</text>
<text transform="matrix(1 0 0 1 656.04 64.11)" class="st5 st2 st3">03</text>
<g>
	<path class="st12" d="M131.2,164.2c0,0,1.6,1.5,4.6,3.8"/>
	<path class="st13" d="M145.8,175.2c19.4,12.6,57.5,31.6,110.5,30.8"/>
	<path class="st12" d="M262.4,205.8c2-0.1,4-0.2,6-0.3"/>
</g>
<g>
	<path class="st12" d="M519.4,67.7c0,0-2.1-0.5-5.9-1.1"/>
	<path class="st13" d="M501.4,65.2c-23.1-1.7-65.6,0-111.6,26.3"/>
	<path class="st12" d="M384.4,94.6c-1.7,1-3.4,2.1-5.1,3.2"/>
</g>
<g>
	<path class="st12" d="M640,194.7c0,0,1.7,1.3,5,3.3"/>
	<path class="st13" d="M655.7,203.9c20.7,10.3,60.7,24.9,113.3,18"/>
	<path class="st12" d="M775.1,221c2-0.3,3.9-0.6,5.9-1"/>
</g>
<g>
	<path class="st6" d="M561.7,34.6c0,2.7,0.1,5.2,0,7.8c-0.1,1.7-1.4,2.7-3.1,2.8c-2.7,0-5.5,0-8.2,0c-0.6,0-1.7-0.3-1.5,0.8
		c0.2,0.8-0.2,2.2,1.4,2.4c0.8,0.1,2.3-0.5,2.3,0.7c-0.1,1.3-1.6,0.6-2.5,0.6c-4.5,0.1-9,0-13.4,0c-0.6,0-1.5,0.3-1.5-0.6
		c0-1,0.9-0.7,1.5-0.7c0.9-0.1,1.8,0.1,2-1.3c0.3-1.6-0.2-2-1.7-1.9c-2.6,0.1-5.2,0.1-7.9,0.1c-2.3,0-3.4-1.1-3.4-3.4
		c0-6.3,0-12.6,0-19c0-2.3,1-3.3,3.4-3.3c9.7,0,19.4,0,29.2,0c1.2,0,2.3,0.2,3.1,1.3c0.2,0.3,0.4,0.7,0,1.1
		c-0.4,0.3-0.8,0.3-1.1-0.1c-0.7-1-1.7-0.8-2.7-0.8c-9.4,0-18.9,0.1-28.3,0c-1.7,0-2.2,0.6-2.2,2.2c0.1,4.8,0.1,9.6,0,14.4
		c0,1.2,0.4,1.6,1.6,1.5c4.8-0.1,9.7,0,14.5,0c0.5,0,1.3-0.3,1.4,0.5c0.1,1-0.8,0.8-1.4,0.8c-4.8,0-9.7,0.1-14.5,0.1
		c-0.8,0-1.7-0.2-1.7,1.1c0,1.1,0.3,1.9,1.5,2.1c0.2,0,0.5,0,0.7,0c9.6,0,19.2,0.3,28.8,0c1,0,1.9,0,2.2-1.2c0.4-1.5,0.1-2-1.5-2
		c-0.8,0-1.6,0-2.4,0c-0.4,0-0.9,0.1-0.9-0.5c0-0.4,0.4-0.7,0.8-0.8c0.4-0.1,0.8-0.1,1.2-0.1c2.9,0,2.9,0,2.9-2.8
		C560.3,35.5,560.4,34.8,561.7,34.6z M543.8,48.3C543.8,48.3,543.8,48.3,543.8,48.3c0.6,0,1.3,0,1.9,0c2.2,0,2.3-0.2,1.7-2.2
		c-0.2-0.7-0.6-0.9-1.2-0.9c-1.5,0-2.9,0.2-4.3,0c-1.9-0.3-1.9,1-2,2.2c-0.1,1.6,1.2,0.8,1.9,0.9C542.4,48.4,543.1,48.3,543.8,48.3z
		"/>
	<path class="st1" d="M547.2,42.7c-1.3,0.2-1.7,0-1.6-0.9c0.3-2.7,0.9-5.2,3.2-7.2c3.6-3.1,6.9-6.7,10.3-10.1
		c2.2-2.2,4.3-1.4,5.7,0.1c1.1,1.2,1.3,3.2,0.1,4.4c-4.4,4.3-8.9,8.5-13.2,12.8C550.5,42.9,548.4,42.5,547.2,42.7z M549,38.4
		c0.4-0.3,0.7-0.5,0.9-0.7c2.8-2.7,5.5-5.5,8.3-8.2c0.4-0.4,0.7-0.8,0.1-1.3c-0.5-0.5-1-0.2-1.3,0.2c-1.4,1.4-2.8,2.8-4.2,4.3
		c-1.3,1.3-2.6,2.6-3.9,3.8c-0.3,0.3-0.7,0.5-0.4,1C548.5,37.9,548.8,38.1,549,38.4z M551.4,40.1c0.1-0.1,0.3-0.2,0.5-0.4
		c2.9-2.8,5.7-5.6,8.6-8.4c0.4-0.4,0.4-0.6,0-1c-0.5-0.6-0.9-0.3-1.3,0.1c-2.8,2.8-5.6,5.5-8.5,8.3c-0.2,0.2-0.5,0.5-0.2,0.9
		C550.7,39.8,550.9,40.2,551.4,40.1z M564.3,26.8c0-1.2-1.2-2.4-2.4-2.4c-0.6,0-1.2,0.1-1.4,0.8c-0.1,0.3,2.7,3,3,2.9
		C564.2,27.9,564.3,27.3,564.3,26.8z M549.8,40.8c-0.8-0.6-1.2-2-2.4-1.7c-0.5,0.1-0.7,1.5-0.3,2C547.8,41.9,548.8,41,549.8,40.8z
		 M562.5,29.4c0-0.3-2.9-3.1-3.2-3c-0.1,0-0.3,0.1-0.4,0.2c-0.2,0.2-0.2,0.5,0,0.7c0.9,0.8,1.8,1.6,2.7,2.4
		C562,30,562.3,29.8,562.5,29.4z"/>
	<path class="st14" d="M536.2,35.2c-1.4,0-2.8,0-4.2,0c-1.1,0-1.3-0.6-0.8-1.5c1.4-2.6,2.9-5.1,4.3-7.7c0.5-1,1-1,1.5,0
		c1.5,2.6,2.9,5.3,4.3,7.9c0.5,0.9,0,1.3-0.9,1.3C539.1,35.2,537.6,35.2,536.2,35.2C536.2,35.2,536.2,35.2,536.2,35.2z M532.7,33.8
		c2.2,0,4,0,5.9,0c0.7,0,1-0.2,0.6-0.9c-1-1.7-1.9-3.5-3-5.4C535,29.7,533.9,31.6,532.7,33.8z"/>
	<path class="st6" d="M549.6,24.9c1.5,0,3,0,4.5,0c0.5,0,1.1,0,1.1,0.7c0,0.6-0.5,0.7-1,0.7c-3.2,0-6.5,0-9.7,0c-0.5,0-1,0-1-0.7
		c0-0.7,0.5-0.8,1.1-0.8C546.2,24.8,547.9,24.8,549.6,24.9C549.6,24.8,549.6,24.8,549.6,24.9z"/>
	<path class="st6" d="M547.7,29.2c-1.1,0-2.2,0-3.3,0c-0.5,0-0.9-0.2-0.9-0.8c0-0.5,0.4-0.7,0.8-0.7c2.3,0,4.6,0,6.9-0.1
		c0.4,0,0.9,0,0.9,0.6c0,0.6-0.4,0.9-1,0.9C550,29.2,548.8,29.2,547.7,29.2C547.7,29.2,547.7,29.2,547.7,29.2z"/>
	<path class="st6" d="M546.4,32c-0.8,0-1.5,0-2.3,0c-0.4,0-0.6-0.3-0.6-0.7c0-0.4,0.2-0.7,0.6-0.7c1.6,0,3.3,0,4.9,0
		c0.3,0,0.7,0.1,0.6,0.4c0,0.5-0.3,0.9-0.8,1C548.1,32,547.3,32,546.4,32C546.4,32,546.4,32,546.4,32z"/>
	<path class="st6" d="M545.2,33.6c0.5,0.2,1.5-0.4,1.5,0.6c0,1-1,0.9-1.7,0.9c-0.6,0-1.5,0.2-1.4-0.7
		C543.6,33.3,544.6,33.8,545.2,33.6z"/>
	<path class="st1" d="M543.5,42.9c-0.6-0.1-0.8-0.5-0.8-1c0-0.4,0.3-0.8,0.7-0.8c0.6,0.1,0.9,0.5,0.8,1.1
		C544.2,42.7,543.9,42.9,543.5,42.9z"/>
</g>
<path class="st5" d="M986.7,127.3c-1.7-0.1-3.6-0.8-5-2.3c-0.7-0.8-1.2-0.7-1.3,0.3c-0.2,1.6-1.2,2.1-2.7,1.9
	c-0.6-0.1-1.2-0.1-1.7,0c-1.9,0.2-3.1-0.3-3.3-2.4c0-0.2-0.1-0.3-0.1-0.5c-0.4-0.7-5.7-3.1-6.4-2.8c-1.7,0.7-2.7-0.1-3.4-1.6
	c-0.3-0.6-0.6-1.3-1-1.8c-0.8-1-0.5-1.8,0.3-2.7c1.6-1.7,1.6-6,0.1-7.7c-0.8-0.9-1.2-1.8-0.4-2.9c0.4-0.5,0.7-1.1,0.9-1.7
	c0.6-1.9,2-2.5,3.8-1.9c1,0.3,1.7,0.1,2.5-0.6c0.5-0.5,1.1-0.9,1.7-1.2c1.3-0.6,2.4-1.3,2.3-3c0-0.2,0.1-0.5,0.2-0.6
	c1.7-1.7,3.8-0.5,5.7-0.8c1.2-0.1,1.5,0.8,1.6,1.6c0.1,1.4,0.9,2,2,2.5c0.6,0.3,1.2,0.5,1.6,0.9c1.1,1.1,2.3,1.5,3.9,1
	c1.1-0.4,2,0,2.5,1.2c0.3,0.6,0.6,1.2,1,1.8c1,1.5,1,2.8-0.6,3.9c-0.7,0.5-0.9,1.1-0.6,2c0.1,0.4,0.2,0.8,0.1,1.2
	c-0.3,1.7,0.3,2.9,1.7,4c2.2,1.7,2.7,4.8,1.8,7.4C992.6,125.4,990,127.3,986.7,127.3z M976.2,125.9c2.4,0,2.4,0,3-1.8
	c0.1-0.3,0.2-0.7,0.5-0.9c1.1-0.9,0.3-2,0.1-2.8c-0.2-0.9-1.2-0.2-1.8-0.2c-0.5,0-1,0.1-1.5,0.1c-4.1-0.1-7.2-2.2-8.5-5.8
	c-1.2-3.6,0-7.6,3.2-10.1c2.8-2.2,7-2.5,10.2-0.6c3,1.9,4.7,4.6,4.6,8.3c0,1.2,0.4,1.5,1.5,1.4c1,0,1.5-0.2,1.4-1.3
	c-0.1-2-0.8-4,1.5-5.5c0.8-0.5-1.3-4.1-2.3-3.9c-2.1,0.5-3.6-0.1-5.1-1.5c-0.5-0.5-1.3-0.8-2-1c-1.2-0.3-1.7-0.9-1.7-2
	c0-1.2-0.6-1.6-1.7-1.6c-0.8,0.1-1.6,0-2.4,0c-0.5,0-1,0.2-0.9,0.8c0.1,2.1-1.2,2.9-2.9,3.5c-0.7,0.2-1.3,0.7-1.9,1.2
	c-1,1-2,1.2-3.3,0.7c-1.1-0.4-1.9-0.2-2.3,1c-0.2,0.5-0.5,1-0.8,1.5c-0.3,0.5-0.5,1.1,0.2,1.5c1.6,1,1.7,2.5,1.4,4.2
	c-0.2,0.8-0.1,1.7,0,2.6c0.1,1-0.1,1.8-0.9,2.4c-0.7,0.5-1.5,1.1-0.6,2.1c0.9,0.9,0.9,3.2,3.1,2.3c0.8-0.3,1.5-0.5,2.2,0.2
	c1.2,1.1,2.6,1.8,4.2,2.4c0.6,0.2,1.3,0.5,1.3,1.2C973.9,125.8,974.9,126.2,976.2,125.9z M972.8,117.9c0.5-0.2,0.3-0.7,0.3-1.1
	c0-0.9,0-1.8,0-2.7c0-0.9-0.1-1.4-1.2-1.3c-1.3,0.1-1.4-0.6-0.7-1.5c1.5-1.7,3.1-3.3,4.7-5c0.4-0.4,0.9-0.6,1.3-0.1
	c1.7,1.7,3.3,3.5,4.9,5.3c0.6,0.7,0.6,1.5-0.6,1.4c-1.2-0.1-1.3,0.5-1.3,1.4c0.1,0.8,0,1.7,0,2.9c1-1,1.5-2,2.4-2.5
	c2-1,1.9-2.3,1.7-4.3c-0.5-4-4.4-7-8.6-6.6c-2.9,0.3-5.9,2.8-6.8,5.8c-0.9,3.1,0.2,6.1,2.7,7.9C972.1,117.7,972.4,118,972.8,117.9
	 M992.7,120.2c0-3-2.7-5.7-5.7-5.6c-3.2,0-5.8,2.7-5.8,5.8c0,2.9,2.7,5.5,5.7,5.6C990,126,992.7,123.3,992.7,120.2z M974.9,118.6
	c0.4,0.3,1.1,0.3,1.8,0.3c2.3-0.1,2.3-0.1,2.3-2.1c0-1.1-0.1-2.2,0-3.2c0-0.8-0.3-1.8,1-2c0.5-0.1,0.4-0.5,0.1-0.8
	c-1.1-1-1.9-3-3.3-3.1c-1.4-0.1-2.2,1.9-3.3,3c-0.2,0.2-0.5,0.6-0.1,0.7c2,0.9,0.5,2.7,1.1,3.6c0,0.8,0.1,1.3,0,1.8
	C974.3,117.8,974.5,118.3,974.9,118.6"/>
<path class="st1" d="M990.8,118.2c-0.2,0.4-0.2,0.6-0.3,0.7c-1.3,1.4-2.5,2.8-3.9,4.1c-0.4,0.4-0.8,0.3-1.2-0.1
	c-0.6-0.6-1.2-1.2-1.8-1.8c-0.4-0.3-0.6-0.7-0.1-1.1c0.4-0.3,0.8-0.2,1,0.2c1.2,2,2.2,1.3,3.3-0.2c0.5-0.6,1.1-1.2,1.6-1.7
	c0.2-0.3,0.5-0.5,0.9-0.3C990.4,118,990.6,118.1,990.8,118.2z"/>
<path class="st14" d="M924.3,121.3c-0.3,0.7-0.4,1-0.6,1.2c-2.1,2.3-4.3,4.6-6.5,6.9c-0.6,0.6-1.3,0.5-2-0.2c-1-1-2-2-3.1-3
	c-0.6-0.6-1-1.2-0.2-1.9c0.6-0.5,1.3-0.4,1.7,0.3c2,3.3,3.7,2.1,5.4-0.3c0.8-1.1,1.8-1.9,2.7-2.9c0.4-0.4,0.9-0.8,1.5-0.5
	C923.7,121.1,924.1,121.2,924.3,121.3z"/>
<g>
	<path class="st1" d="M982.1,111.4c-1.6-1.8-3.2-3.5-4.9-5.3c-0.4-0.5-0.9-0.3-1.3,0.1c-1.6,1.7-3.2,3.3-4.7,5
		c-0.8,0.8-0.6,1.5,0.7,1.5c1.1-0.1,1.2,0.5,1.2,1.3c0,0.9,0,1.8,0,2.7c0,0.3,0.1,0.6,0,0.9c0,0.2,0,0.4,0,0.6
		c0.3,0,0.6,0.1,0.9,0.2c0.1,0,0.3,0.1,0.4,0.1c0.1-0.1,0.2-0.1,0.3-0.2c-0.3-0.3-0.4-0.8-0.3-1.6c0.1-0.5,0-1,0-1.8
		c-0.5-1,1.1-3.4-1.1-3.6c-0.4,0-0.1-0.5,0.1-0.7c1-1.1,1.8-3.1,3.3-3c1.4,0.1,2.1,2,3.3,3.1c0.3,0.2,0.4,0.7-0.1,0.8
		c-1.3,0.2-1,1.2-1,2c0,1.1,0,2.2,0,3.2c0,0.8,0,1.3-0.1,1.6c0.3,0.1,0.6,0.3,0.9,0.5c0.1,0,0.1,0,0.2,0c0.2,0,0.3-0.1,0.5-0.1
		c0-0.3,0-0.5,0-0.8c0-0.3-0.1-0.6,0-1c0,0-0.1,0.1-0.1,0.1c0-1.2,0-2.1,0-2.9c-0.1-1,0.1-1.5,1.3-1.4
		C982.8,112.9,982.7,112.1,982.1,111.4z"/>
</g>
<g>
	<path class="st15" d="M351.9,239.5c-1.1-0.4-2.2-0.9-3.3-1.3c-0.9-0.3-1.3-1-0.9-1.8c0.7-1.7,0.2-3.2-0.3-4.8
		c-1.8-6,1.7-11.6,7.7-12.3c4-0.5,8.4,2.1,9.7,5.8c1.5,4.2,0,8.8-3.6,11.1c-1.7,1.1-3.6,2-4.4,4.2c-0.2,0.7-0.9,0.8-1.6,0.5
		C354.2,240.4,353,240,351.9,239.5C351.9,239.5,351.9,239.5,351.9,239.5z M359.4,221.3c-2.7-1-4.8-1-6.8,0c-3.4,1.7-5,5.3-4.2,9
		c0.5,1.9,1.5,3.8,0.7,5.9c-0.3,0.7,0.4,0.9,0.8,1.1c0.7,0.3,0.8-0.2,0.9-0.7c0.2-0.7,0.5-1.5,0.7-2.2c0.1-0.4,0.1-0.8,0.7-0.6
		c0.4,0.1,0.6,0.4,0.5,0.8c-0.2,0.8-0.5,1.6-0.7,2.4c-0.1,0.5-0.3,0.9,0.4,1.2c0.6,0.2,0.8-0.2,1-0.6c0.4-0.7,0.7-1.5,1.1-2.2
		c0.2-0.4,0.5-0.6,1-0.4c0.5,0.3,0.3,0.7,0.1,1c-0.4,0.6-0.8,1.2-1.1,1.9c-0.2,0.4-0.6,0.9,0.1,1.3c0.6,0.3,1.2,0.5,1.6-0.3
		c0.7-1.7,2.2-2.5,3.7-3.4c2.9-1.8,4.6-4.4,4.2-7.9C363.7,224.3,361.8,222.3,359.4,221.3z"/>
	<path class="st15" d="M351,241.6c-1-0.4-2-0.8-3-1.2c-0.4-0.2-0.9-0.4-0.7-1c0.2-0.5,0.6-0.4,1-0.3c2.1,0.8,4.1,1.6,6.2,2.3
		c0.4,0.2,0.7,0.4,0.5,0.9c-0.2,0.5-0.7,0.4-1.1,0.3C353,242.3,352,241.9,351,241.6C351,241.5,351,241.6,351,241.6z"/>
	<path class="st15" d="M350.1,244.5c0.4,0.4,1.9,0.1,1.5,1.2c-0.4,1-1.4,0.3-2.2,0.1c-0.2-0.1-0.4-0.1-0.6-0.2
		c-0.6-0.3-1.3-0.7-1-1.4c0.3-0.8,1,0,1.4,0C349.5,244.2,349.8,244.3,350.1,244.5z"/>
	<path class="st1" d="M350.7,214.6c0.5,0.2,1.7,2.9,1.5,3.3c-0.3,0.4-0.7,0.6-1,0.1c-0.5-0.8-0.9-1.7-1.2-2.6
		C349.8,214.9,350.1,214.5,350.7,214.6z"/>
	<path class="st1" d="M361.3,216.6c-0.1,0.3-0.3,0.7-0.4,1c-0.1,0.4-0.4,0.6-0.8,0.4c-0.4-0.2-0.5-0.5-0.3-0.9
		c0.2-0.6,0.4-1.2,0.6-1.7c0.2-0.4,0.3-1.1,1-0.8c0.8,0.3,0.3,0.8,0.2,1.3C361.5,216.1,361.4,216.3,361.3,216.6
		C361.3,216.6,361.3,216.6,361.3,216.6z"/>
	<path class="st1" d="M366.5,224c-0.5-0.4-0.7-0.8-0.1-1.1c0.7-0.4,1.4-0.7,2.2-1.1c0.4-0.2,0.7-0.1,0.9,0.3c0.2,0.4,0,0.7-0.4,0.9
		C368.3,223.4,367.5,223.9,366.5,224z"/>
	<path class="st1" d="M369.5,233.9c-0.8,0-1.5-0.4-2.2-0.7c-0.4-0.1-0.8-0.4-0.6-0.9c0.2-0.5,0.6-0.6,1-0.4c0.8,0.4,1.9,0.3,2.4,1.3
		c-0.1,0-0.2-0.1-0.3-0.1c-0.9-0.1-1.9-1.3-2.5-0.4C367.1,233.1,368.8,233.3,369.5,233.9z"/>
	<path class="st1" d="M369.5,233.9c-0.7-0.5-2.5-0.8-2.2-1.2c0.6-0.9,1.6,0.3,2.5,0.4c0.1,0,0.2,0.1,0.3,0.1
		C370.2,233.7,370.1,234,369.5,233.9z"/>
	<path class="st1" d="M342.4,223.4c-0.4-0.3-0.3-0.6,0.1-0.8c1,0.4,2,0.7,3,1.1c0,0,0,0,0,0C344.3,224.9,343.4,223.4,342.4,223.4z"
		/>
	<path class="st1" d="M345.5,223.6c-1-0.4-2-0.7-3-1.1C343.7,222.2,344.6,222.8,345.5,223.6z"/>
	<path class="st1" d="M342.4,223.4c1,0,2,1.5,3.1,0.2c-0.1,0.9-0.1,1-0.8,0.8C343.9,224.1,343,224,342.4,223.4z"/>
	<path class="st15" d="M353.5,243.4c-1.9-0.7-3.8-1.5-5.8-2.2c-0.4-0.2-0.9-0.4-1.2,0.2c-0.3,0.7,0.3,0.9,0.8,1.1
		c1,0.4,1.9,0.7,2.9,1.1c0,0,0,0,0,0c0.9,0.4,1.8,0.7,2.7,1.1c0.5,0.2,1.1,0.4,1.3-0.3C354.5,243.8,353.9,243.6,353.5,243.4z"/>
	<path class="st1" d="M355.3,224.5c0.5,0.9,1.1,0.8,1.8,0.2c0.1-0.1,0.7,0.1,0.7,0.2c0,1.6,2.2,1,2.3,2.4c0,0.3-0.1,0.6-0.4,0.7
		c-0.8,0.3-0.7,0.7-0.2,1.3c0.6,0.7,0.3,1.7-0.7,1.7c-0.8,0-1,0.3-1,1c0.1,0.6-0.3,0.9-0.8,1c-0.4,0.1-0.6-0.1-0.8-0.5
		c-0.2-0.5-0.5-0.6-0.9-0.2c-0.1,0.1-0.2,0.3-0.3,0.3c-0.4,0.3-1.1,0-1.1-0.1c0.3-1.6-2.8-1.1-1.7-2.9c0.3-0.6,0.6-0.8-0.1-1.3
		c-0.5-0.4-0.1-1.3,0.1-1.3c1.3-0.2,1.3-1.1,1.6-2C354.1,224.6,354.7,224.4,355.3,224.5z M354.6,228c-0.3,0.8-0.2,1.7,0.7,2.1
		c1,0.5,1.7-0.1,2.2-0.9c0.4-0.9,0.1-1.7-0.7-2.1C355.9,226.7,355,227,354.6,228z"/>
</g>
<g>
	<path class="st5" d="M184.3,32.3c4.8,0.3,9.2,2.9,11.6,8c2.4,5,2.2,10.1-1,14.8c-0.4,0.7-1.5,1.2-0.9,2.3c0.7,1.2,1.6,0.5,2.4,0.1
		c0.7-0.4,1.1,0.2,1.5,0.6c1.8,1.8,3.6,3.6,5.3,5.6c1.3,1.5,1.1,3.1-0.4,4.5c-1.3,1.3-3.1,1.3-4.5-0.1c-1.8-1.8-3.4-3.6-5.1-5.5
		c-0.5-0.5-1-1.2-0.6-2c0.4-0.8,0.4-1.4-0.3-1.9c-0.8-0.7-1.4,0.1-1.9,0.4c-4.2,2.3-8.5,2.8-12.9,0.9c-6-2.5-10-9.4-8.8-15.2
		C170.6,37,176.2,32.1,184.3,32.3z M183.2,34.2c-6.8,0-12.5,5.6-12.5,12.2c0,7.3,5.5,12.7,12.9,12.7c6.6,0,12-5.6,12-12.3
		C195.7,39.9,190.1,34.2,183.2,34.2z M202.1,65.6c0-0.1,0-0.3-0.1-0.4c-1.4-2-3.2-3.8-5-5.5c-0.7-0.7-1.1,0.5-1.6,0.7
		c-0.6,0.3-0.7,0.8-0.3,1.3c1.6,1.7,3.1,3.5,4.8,5.1c0.4,0.5,1.1,0.5,1.6,0.1C202,66.6,202.2,66.1,202.1,65.6z"/>
	<path class="st14" d="M184,39.4c0.9,0,2.2,0.6,2.8,2c0.7,1.5,0.8,2.9-0.2,4.4c-0.9,1.4-2.7,2.1-2.9,4c0,0.4-0.7,0.5-1.1,0.4
		c-0.5-0.1-0.6-0.6-0.6-1c0.1-1.1,0.6-1.9,1.4-2.7c0.5-0.5,1.1-1,1.5-1.6c0.9-1.2,0.7-2.5-0.6-3.2c-1.2-0.7-2.5-0.4-3.2,0.9
		c-0.4,0.8-0.8,1.9-1.8,1.2c-0.9-0.6-0.2-1.7,0.2-2.4C180.4,39.9,181.7,39.2,184,39.4z"/>
	<path class="st14" d="M184.1,53.2c0,0.7-0.4,1.1-1.2,1c-0.8-0.1-1-0.6-1-1.4c0.1-0.7,0.5-1,1.2-1C183.9,51.9,184.2,52.3,184.1,53.2
		z"/>
</g>
<g>
	<path class="st1" d="M217.2,138.2c0.8,0.4,1.7,1.4,1.8,3c0.1,1.6-0.5,3-1.9,3.9c-1.4,0.9-3.3,0.8-4.3,2.5c-0.2,0.4-0.8,0.1-1.2-0.1
		c-0.4-0.3-0.3-0.8-0.1-1.2c0.5-0.9,1.3-1.5,2.3-1.9c0.7-0.3,1.4-0.5,2-0.8c1.3-0.8,1.6-2,0.8-3.2c-0.8-1.1-2.1-1.3-3.3-0.4
		c-0.7,0.6-1.5,1.4-2.1,0.3c-0.5-0.9,0.4-1.6,1.1-2.1C213.7,137.2,215.2,137.2,217.2,138.2z"/>
	<path class="st1" d="M211.7,150.9c-0.3,0.7-0.8,0.8-1.5,0.4c-0.7-0.4-0.7-1-0.3-1.7c0.3-0.6,0.8-0.7,1.5-0.4
		C212,149.6,212.1,150.1,211.7,150.9z"/>
</g>
<g>
	<path class="st14" d="M344.5,120.4c0.5,0.3,1.1,3.1,0.8,3.5c-0.3,0.4-0.8,0.4-1-0.1c-0.3-0.9-0.6-1.9-0.7-2.8
		C343.5,120.4,343.9,120.1,344.5,120.4z"/>
	<path class="st14" d="M354.4,124.3c-0.2,0.3-0.4,0.6-0.6,0.9c-0.2,0.3-0.5,0.5-0.9,0.3c-0.4-0.2-0.4-0.6-0.2-0.9
		c0.3-0.5,0.6-1.1,1-1.6c0.3-0.4,0.5-1,1.2-0.6c0.7,0.4,0.2,0.9,0,1.3C354.8,123.9,354.6,124.1,354.4,124.3
		C354.5,124.3,354.5,124.3,354.4,124.3z"/>
	<path class="st14" d="M358.1,132.7c-0.4-0.5-0.5-0.9,0.1-1.1c0.8-0.3,1.6-0.5,2.4-0.6c0.4-0.1,0.7,0.1,0.8,0.5
		c0.1,0.4-0.2,0.7-0.5,0.8C360,132.4,359.1,132.7,358.1,132.7z"/>
</g>
</svg>
