<?xml version="1.0" encoding="utf-8"?>
<!-- Generator: Adobe Illustrator 27.0.0, SVG Export Plug-In . SVG Version: 6.00 Build 0)  -->
<svg version="1.1" id="_圖層_1" xmlns="http://www.w3.org/2000/svg" xmlns:xlink="http://www.w3.org/1999/xlink" x="0px" y="0px"
	 viewBox="0 0 622 1024" style="enable-background:new 0 0 622 1024;" xml:space="preserve">
<style type="text/css">
	.st0{fill:#324053;}
	.st1{fill:none;stroke:#F8FAFC;stroke-miterlimit:10;}
	.st2{fill:none;stroke:#F8FAFC;stroke-miterlimit:10;stroke-dasharray:0,0,12.25,12.25;}
	.st3{fill:none;stroke:#F8FAFC;stroke-linecap:round;stroke-miterlimit:10;}
	.st4{fill:#FFFFFF;}
	.st5{font-family:'MicrosoftJhengHeiBold';}
	.st6{font-size:19.2482px;}
	.st7{font-family:'MicrosoftJhengHeiRegular';}
	.st8{font-size:17.077px;}
	.st9{fill:#10B981;}
	.st10{font-family:'STHupo';}
	.st11{font-size:52.0605px;}
	.st12{fill:#F8FAFC;}
	.st13{fill:#F59E0B;}
	.st14{fill:#DCDCDE;}
</style>
<rect class="st0" width="622" height="1024"/>
<g>
	<path class="st1" d="M314.8,611.5c0,0,3.2,1.1,8.5,3.6"/>
	<path class="st2" d="M340.7,623.6c31.9,17.8,87,57.4,129.2,135.2"/>
	<path class="st1" d="M474.6,767.9c1.5,3,3,6,4.5,9"/>
</g>
<g>
	<path class="st1" d="M431.3,279.3c0,0-0.3-2.1-1.2-5.9"/>
	<path class="st2" d="M426.7,261.7c-7.3-21.9-25.3-60.5-67.3-92.9"/>
	<path class="st1" d="M354.5,165.1c-1.6-1.2-3.2-2.3-4.9-3.5"/>
</g>
<g>
	<path class="st1" d="M170.2,963c0,0,2,0.8,5.7,1.8"/>
	<path class="st2" d="M187.9,967.5c22.7,4.2,65.2,7.2,113.9-14"/>
	<path class="st1" d="M307.3,950.9c1.8-0.8,3.6-1.7,5.4-2.6"/>
</g>
<g>
	<polyline class="st3" points="263.7,553.3 307.7,553.3 307.7,726.3 28.7,726.3 28.7,553.3 168.2,553.3 	"/>
	<text transform="matrix(1 0 0 1 46.0682 608.6747)" class="st4 st5 st6">設計與開發</text>
	<text transform="matrix(1 0 0 1 45.4339 644.2186)" class="st4 st7 st8">團隊進行視覺設計與程式開發</text>
	<text transform="matrix(1 0 0 1 45.4339 669.8348)" class="st4 st7 st8">，兼顧美感與功能，打造流暢</text>
	<text transform="matrix(1 0 0 1 45.4339 695.4501)" class="st4 st7 st8">且具吸引力的使用體驗。</text>
	<text transform="matrix(1 0 0 1 189.6453 573.6385)" class="st9 st10 st11">03</text>
	<text transform="matrix(1 0 0 1 187.8074 571.7997)" class="st12 st10 st11">03</text>
	<g>
		<path class="st4" d="M72.7,535.8c0,3.3,0.1,6.3,0,9.5c-0.1,2.1-1.7,3.3-3.8,3.4c-3.3,0-6.7,0-10,0c-0.7,0-2.1-0.4-1.8,1
			c0.2,1-0.2,2.7,1.7,2.9c1,0.1,2.8-0.6,2.8,0.9c-0.1,1.6-2,0.7-3,0.7c-5.5,0.1-11,0-16.3,0c-0.7,0-1.8,0.4-1.8-0.7
			c0-1.2,1.1-0.9,1.8-0.9c1.1-0.1,2.2,0.1,2.4-1.6c0.4-2-0.2-2.4-2.1-2.3c-3.2,0.1-6.3,0.1-9.6,0.1c-2.8,0-4.1-1.3-4.1-4.1
			c0-7.7,0-15.4,0-23.2c0-2.8,1.2-4,4.1-4c11.8,0,23.7,0,35.6,0c1.5,0,2.8,0.2,3.8,1.6c0.2,0.4,0.5,0.9,0,1.3
			c-0.5,0.4-1,0.4-1.3-0.1c-0.9-1.2-2.1-1-3.3-1c-11.5,0-23.1,0.1-34.5,0c-2.1,0-2.7,0.7-2.7,2.7c0.1,5.9,0.1,11.7,0,17.6
			c0,1.5,0.5,2,2,1.8c5.9-0.1,11.8,0,17.7,0c0.6,0,1.6-0.4,1.7,0.6c0.1,1.2-1,1-1.7,1c-5.9,0-11.8,0.1-17.7,0.1
			c-1,0-2.1-0.2-2.1,1.3c0,1.3,0.4,2.3,1.8,2.6c0.2,0,0.6,0,0.9,0c11.7,0,23.4,0.4,35.1,0c1.2,0,2.3,0,2.7-1.5
			c0.5-1.8,0.1-2.4-1.8-2.4c-1,0-2,0-2.9,0c-0.5,0-1.1,0.1-1.1-0.6c0-0.5,0.5-0.9,1-1c0.5-0.1,1-0.1,1.5-0.1c3.5,0,3.5,0,3.5-3.4
			C71,536.9,71.1,536,72.7,535.8z M50.9,552.5L50.9,552.5c0.7,0,1.6,0,2.3,0c2.7,0,2.8-0.2,2.1-2.7c-0.2-0.9-0.7-1.1-1.5-1.1
			c-1.8,0-3.5,0.2-5.2,0c-2.3-0.4-2.3,1.2-2.4,2.7c-0.1,2,1.5,1,2.3,1.1C49.2,552.6,50,552.5,50.9,552.5z"/>
		<path class="st9" d="M55,545.7c-1.6,0.2-2.1,0-2-1.1c0.4-3.3,1.1-6.3,3.9-8.8c4.4-3.8,8.4-8.2,12.6-12.3c2.7-2.7,5.2-1.7,7,0.1
			c1.3,1.5,1.6,3.9,0.1,5.4c-5.4,5.2-10.9,10.4-16.1,15.6C59.1,545.9,56.5,545.4,55,545.7z M57.2,540.4c0.5-0.4,0.9-0.6,1.1-0.9
			c3.4-3.3,6.7-6.7,10.1-10c0.5-0.5,0.9-1,0.1-1.6c-0.6-0.6-1.2-0.2-1.6,0.2c-1.7,1.7-3.4,3.4-5.1,5.2c-1.6,1.6-3.2,3.2-4.8,4.6
			c-0.4,0.4-0.9,0.6-0.5,1.2C56.6,539.8,57,540,57.2,540.4z M60.2,542.5c0.1-0.1,0.4-0.2,0.6-0.5c3.5-3.4,7-6.8,10.5-10.2
			c0.5-0.5,0.5-0.7,0-1.2c-0.6-0.7-1.1-0.4-1.6,0.1c-3.4,3.4-6.8,6.7-10.4,10.1c-0.2,0.2-0.6,0.6-0.2,1.1
			C59.3,542.1,59.6,542.6,60.2,542.5z M75.9,526.3c0-1.5-1.5-2.9-2.9-2.9c-0.7,0-1.5,0.1-1.7,1c-0.1,0.4,3.3,3.7,3.7,3.5
			C75.8,527.6,75.9,526.9,75.9,526.3z M58.2,543.3c-1-0.7-1.5-2.4-2.9-2.1c-0.6,0.1-0.9,1.8-0.4,2.4C55.8,544.7,57,543.6,58.2,543.3
			z M73.7,529.4c0-0.4-3.5-3.8-3.9-3.7c-0.1,0-0.4,0.1-0.5,0.2c-0.2,0.2-0.2,0.6,0,0.9c1.1,1,2.2,2,3.3,2.9
			C73.1,530.2,73.5,529.9,73.7,529.4z"/>
		<path class="st13" d="M41.6,536.5c-1.7,0-3.4,0-5.1,0c-1.3,0-1.6-0.7-1-1.8c1.7-3.2,3.5-6.2,5.2-9.4c0.6-1.2,1.2-1.2,1.8,0
			c1.8,3.2,3.5,6.5,5.2,9.6c0.6,1.1,0,1.6-1.1,1.6C45.2,536.5,43.3,536.5,41.6,536.5L41.6,536.5z M37.4,534.8c2.7,0,4.9,0,7.2,0
			c0.9,0,1.2-0.2,0.7-1.1c-1.2-2.1-2.3-4.3-3.7-6.6C40.2,529.8,38.8,532.1,37.4,534.8z"/>
		<path class="st4" d="M58,523.9c1.8,0,3.7,0,5.5,0c0.6,0,1.3,0,1.3,0.9c0,0.7-0.6,0.9-1.2,0.9c-3.9,0-7.9,0-11.8,0
			c-0.6,0-1.2,0-1.2-0.9c0-0.9,0.6-1,1.3-1C53.8,523.8,55.9,523.8,58,523.9C58,523.8,58,523.8,58,523.9z"/>
		<path class="st4" d="M55.6,529.2c-1.3,0-2.7,0-4,0c-0.6,0-1.1-0.2-1.1-1c0-0.6,0.5-0.9,1-0.9c2.8,0,5.6,0,8.4-0.1
			c0.5,0,1.1,0,1.1,0.7c0,0.7-0.5,1.1-1.2,1.1C58.5,529.2,57,529.2,55.6,529.2L55.6,529.2z"/>
		<path class="st4" d="M54.1,532.6c-1,0-1.8,0-2.8,0c-0.5,0-0.7-0.4-0.7-0.9c0-0.5,0.2-0.9,0.7-0.9c2,0,4,0,6,0
			c0.4,0,0.9,0.1,0.7,0.5c0,0.6-0.4,1.1-1,1.2C56.1,532.6,55.2,532.6,54.1,532.6L54.1,532.6z"/>
		<path class="st4" d="M52.6,534.6c0.6,0.2,1.8-0.5,1.8,0.7s-1.2,1.1-2.1,1.1c-0.7,0-1.8,0.2-1.7-0.9
			C50.6,534.2,51.9,534.8,52.6,534.6z"/>
		<path class="st9" d="M50.5,545.9c-0.7-0.1-1-0.6-1-1.2c0-0.5,0.4-1,0.9-1c0.7,0.1,1.1,0.6,1,1.3C51.4,545.7,51,545.9,50.5,545.9z"
			/>
	</g>
</g>
<g>
	<polyline class="st3" points="346.8,959.4 313,959.4 313,786.5 591.9,786.5 591.9,959.4 432.6,959.4 	"/>
	<text transform="matrix(1 0 0 1 332.6642 833.8128)" class="st4 st5 st6">交付與持續優化</text>
	<text transform="matrix(1 0 0 1 333.4327 867.4183)" class="st4 st7 st8">完成作品交付後，我們仍會提</text>
	<text transform="matrix(1 0 0 1 333.4327 893.0335)" class="st4 st7 st8">供支援與優化建議，確保專案</text>
	<text transform="matrix(1 0 0 1 333.4327 918.6487)" class="st4 st7 st8">能隨著需求持續成長。</text>
	<text transform="matrix(1 0 0 1 361.337 978.3538)" class="st9 st10 st11">04</text>
	<text transform="matrix(1 0 0 1 359.4991 976.5159)" class="st12 st10 st11">04</text>
	<path class="st12" d="M561.7,837.5c-2.1-0.1-4.4-1-6.1-2.8c-0.9-1-1.5-0.9-1.6,0.4c-0.2,2-1.5,2.6-3.3,2.3c-0.7-0.1-1.5-0.1-2.1,0
		c-2.3,0.2-3.8-0.4-4-2.9c0-0.2-0.1-0.4-0.1-0.6c-0.5-0.9-7-3.8-7.8-3.4c-2.1,0.9-3.3-0.1-4.1-2c-0.4-0.7-0.7-1.6-1.2-2.2
		c-1-1.2-0.6-2.2,0.4-3.3c2-2.1,2-7.3,0.1-9.4c-1-1.1-1.5-2.2-0.5-3.5c0.5-0.6,0.9-1.3,1.1-2.1c0.7-2.3,2.4-3,4.6-2.3
		c1.2,0.4,2.1,0.1,3-0.7c0.6-0.6,1.3-1.1,2.1-1.5c1.6-0.7,2.9-1.6,2.8-3.7c0-0.2,0.1-0.6,0.2-0.7c2.1-2.1,4.6-0.6,7-1
		c1.5-0.1,1.8,1,2,2c0.1,1.7,1.1,2.4,2.4,3c0.7,0.4,1.5,0.6,2,1.1c1.3,1.3,2.8,1.8,4.8,1.2c1.3-0.5,2.4,0,3,1.5
		c0.4,0.7,0.7,1.5,1.2,2.2c1.2,1.8,1.2,3.4-0.7,4.8c-0.9,0.6-1.1,1.3-0.7,2.4c0.1,0.5,0.2,1,0.1,1.5c-0.4,2.1,0.4,3.5,2.1,4.9
		c2.7,2.1,3.3,5.9,2.2,9C568.9,835.1,565.7,837.5,561.7,837.5z M548.9,835.8c2.9,0,2.9,0,3.7-2.2c0.1-0.4,0.2-0.9,0.6-1.1
		c1.3-1.1,0.4-2.4,0.1-3.4c-0.2-1.1-1.5-0.2-2.2-0.2c-0.6,0-1.2,0.1-1.8,0.1c-5-0.1-8.8-2.7-10.4-7.1c-1.5-4.4,0-9.3,3.9-12.3
		c3.4-2.7,8.5-3,12.4-0.7c3.7,2.3,5.7,5.6,5.6,10.1c0,1.5,0.5,1.8,1.8,1.7c1.2,0,1.8-0.2,1.7-1.6c-0.1-2.4-1-4.9,1.8-6.7
		c1-0.6-1.6-5-2.8-4.8c-2.6,0.6-4.4-0.1-6.2-1.8c-0.6-0.6-1.6-1-2.4-1.2c-1.5-0.4-2.1-1.1-2.1-2.4c0-1.5-0.7-2-2.1-2
		c-1,0.1-2,0-2.9,0c-0.6,0-1.2,0.2-1.1,1c0.1,2.6-1.5,3.5-3.5,4.3c-0.9,0.2-1.6,0.9-2.3,1.5c-1.2,1.2-2.4,1.5-4,0.9
		c-1.3-0.5-2.3-0.2-2.8,1.2c-0.2,0.6-0.6,1.2-1,1.8c-0.4,0.6-0.6,1.3,0.2,1.8c2,1.2,2.1,3,1.7,5.1c-0.2,1-0.1,2.1,0,3.2
		c0.1,1.2-0.1,2.2-1.1,2.9c-0.9,0.6-1.8,1.3-0.7,2.6c1.1,1.1,1.1,3.9,3.8,2.8c1-0.4,1.8-0.6,2.7,0.2c1.5,1.3,3.2,2.2,5.1,2.9
		c0.7,0.2,1.6,0.6,1.6,1.5C546.1,835.6,547.3,836.1,548.9,835.8z M544.7,826c0.6-0.2,0.4-0.9,0.4-1.3c0-1.1,0-2.2,0-3.3
		s-0.1-1.7-1.5-1.6c-1.6,0.1-1.7-0.7-0.9-1.8c1.8-2.1,3.8-4,5.7-6.1c0.5-0.5,1.1-0.7,1.6-0.1c2.1,2.1,4,4.3,6,6.5
		c0.7,0.9,0.7,1.8-0.7,1.7c-1.5-0.1-1.6,0.6-1.6,1.7c0.1,1,0,2.1,0,3.5c1.2-1.2,1.8-2.4,2.9-3c2.4-1.2,2.3-2.8,2.1-5.2
		c-0.6-4.9-5.4-8.5-10.5-8.1c-3.5,0.4-7.2,3.4-8.3,7.1c-1.1,3.8,0.2,7.4,3.3,9.6C543.9,825.8,544.2,826.1,544.7,826 M569,828.8
		c0-3.7-3.3-7-7-6.8c-3.9,0-7.1,3.3-7.1,7.1c0,3.5,3.3,6.7,7,6.8C565.7,835.9,569,832.6,569,828.8z M547.3,826.8
		c0.5,0.4,1.3,0.4,2.2,0.4c2.8-0.1,2.8-0.1,2.8-2.6c0-1.3-0.1-2.7,0-3.9c0-1-0.4-2.2,1.2-2.4c0.6-0.1,0.5-0.6,0.1-1
		c-1.3-1.2-2.3-3.7-4-3.8c-1.7-0.1-2.7,2.3-4,3.7c-0.2,0.2-0.6,0.7-0.1,0.9c2.4,1.1,0.6,3.3,1.3,4.4c0,1,0.1,1.6,0,2.2
		C546.6,825.9,546.8,826.5,547.3,826.8"/>
	<path class="st9" d="M566.7,826.4c-0.2,0.5-0.2,0.7-0.4,0.9c-1.6,1.7-3,3.4-4.8,5c-0.5,0.5-1,0.4-1.5-0.1c-0.7-0.7-1.5-1.5-2.2-2.2
		c-0.5-0.4-0.7-0.9-0.1-1.3c0.5-0.4,1-0.2,1.2,0.2c1.5,2.4,2.7,1.6,4-0.2c0.6-0.7,1.3-1.5,2-2.1c0.2-0.4,0.6-0.6,1.1-0.4
		C566.2,826.1,566.4,826.2,566.7,826.4z"/>
	<path class="st13" d="M485.6,830.1c-0.4,0.9-0.5,1.2-0.7,1.5c-2.6,2.8-5.2,5.6-7.9,8.4c-0.7,0.7-1.6,0.6-2.4-0.2
		c-1.2-1.2-2.4-2.4-3.8-3.7c-0.7-0.7-1.2-1.5-0.2-2.3c0.7-0.6,1.6-0.5,2.1,0.4c2.4,4,4.5,2.6,6.6-0.4c1-1.3,2.2-2.3,3.3-3.5
		c0.5-0.5,1.1-1,1.8-0.6C484.8,829.9,485.3,830,485.6,830.1z"/>
	<g>
		<path class="st9" d="M556.1,818.1c-2-2.2-3.9-4.3-6-6.5c-0.5-0.6-1.1-0.4-1.6,0.1c-2,2.1-3.9,4-5.7,6.1c-1,1-0.7,1.8,0.9,1.8
			c1.3-0.1,1.5,0.6,1.5,1.6c0,1.1,0,2.2,0,3.3c0,0.4,0.1,0.7,0,1.1c0,0.2,0,0.5,0,0.7c0.4,0,0.7,0.1,1.1,0.2c0.1,0,0.4,0.1,0.5,0.1
			c0.1-0.1,0.2-0.1,0.4-0.2c-0.4-0.4-0.5-1-0.4-2c0.1-0.6,0-1.2,0-2.2c-0.6-1.2,1.3-4.1-1.3-4.4c-0.5,0-0.1-0.6,0.1-0.9
			c1.2-1.3,2.2-3.8,4-3.7c1.7,0.1,2.6,2.4,4,3.8c0.4,0.2,0.5,0.9-0.1,1c-1.6,0.2-1.2,1.5-1.2,2.4c0,1.3,0,2.7,0,3.9c0,1,0,1.6-0.1,2
			c0.4,0.1,0.7,0.4,1.1,0.6c0.1,0,0.1,0,0.2,0c0.2,0,0.4-0.1,0.6-0.1c0-0.4,0-0.6,0-1c0-0.4-0.1-0.7,0-1.2l-0.1,0.1
			c0-1.5,0-2.6,0-3.5c-0.1-1.2,0.1-1.8,1.6-1.7C556.9,819.9,556.8,818.9,556.1,818.1z"/>
	</g>
</g>
<g>
	<polyline class="st3" points="183,40.6 351.7,40.6 351.7,213.5 72.8,213.5 72.8,40.6 102.1,40.6 	"/>
	<text transform="matrix(1 0 0 1 118.8649 59.409)" class="st9 st10 st11">01</text>
	<text transform="matrix(1 0 0 1 116.4186 58.8372)" class="st12 st10 st11">01</text>
	<text transform="matrix(1 0 0 1 90.5222 98.4437)" class="st4 st5 st6">了解需求</text>
	<text transform="matrix(1 0 0 1 89.8879 132.098)" class="st4 st7 st8">我們會先與你深入討論，理解</text>
	<text transform="matrix(1 0 0 1 89.8879 157.7132)" class="st4 st7 st8">品牌定位、專案目標與使用者</text>
	<text transform="matrix(1 0 0 1 89.8879 183.3284)" class="st4 st7 st8">需求，確保方向正確。</text>
	<g>
		<path class="st12" d="M283.9,53.6c5.9,0.4,11.2,3.5,14.1,9.8c2.9,6.1,2.7,12.3-1.2,18.1c-0.5,0.9-1.8,1.5-1.1,2.8
			c0.9,1.5,2,0.6,2.9,0.1c0.9-0.5,1.3,0.2,1.8,0.7c2.2,2.2,4.4,4.4,6.5,6.8c1.6,1.8,1.3,3.8-0.5,5.5c-1.6,1.6-3.8,1.6-5.5-0.1
			c-2.2-2.2-4.1-4.4-6.2-6.7c-0.6-0.6-1.2-1.5-0.7-2.4c0.5-1,0.5-1.7-0.4-2.3c-1-0.9-1.7,0.1-2.3,0.5c-5.1,2.8-10.4,3.4-15.7,1.1
			c-7.3-3-12.2-11.5-10.7-18.5C267.2,59.3,274,53.4,283.9,53.6z M282.6,55.9c-8.3,0-15.2,6.8-15.2,14.9c0,8.9,6.7,15.5,15.7,15.5
			c8.1,0,14.6-6.8,14.6-15C297.8,62.9,291,55.9,282.6,55.9z M305.6,94.2c0-0.1,0-0.4-0.1-0.5c-1.7-2.4-3.9-4.6-6.1-6.7
			c-0.9-0.9-1.3,0.6-2,0.9c-0.7,0.4-0.9,1-0.4,1.6c2,2.1,3.8,4.3,5.9,6.2c0.5,0.6,1.3,0.6,2,0.1C305.5,95.5,305.8,94.8,305.6,94.2z"
			/>
		<path class="st13" d="M283.6,62.3c1.1,0,2.7,0.7,3.4,2.4c0.9,1.8,1,3.5-0.2,5.4c-1.1,1.7-3.3,2.6-3.5,4.9c0,0.5-0.9,0.6-1.3,0.5
			c-0.6-0.1-0.7-0.7-0.7-1.2c0.1-1.3,0.7-2.3,1.7-3.3c0.6-0.6,1.3-1.2,1.8-2c1.1-1.5,0.9-3-0.7-3.9c-1.5-0.9-3-0.5-3.9,1.1
			c-0.5,1-1,2.3-2.2,1.5c-1.1-0.7-0.2-2.1,0.2-2.9C279.2,62.9,280.8,62,283.6,62.3z"/>
		<path class="st13" d="M283.7,79.1c0,0.9-0.5,1.3-1.5,1.2s-1.2-0.7-1.2-1.7c0.1-0.9,0.6-1.2,1.5-1.2
			C283.4,77.5,283.8,78,283.7,79.1z"/>
	</g>
	<g>
		<path class="st9" d="M324.1,182.8c1,0.5,2.1,1.7,2.2,3.7s-0.6,3.7-2.3,4.8c-1.7,1.1-4,1-5.2,3c-0.2,0.5-1,0.1-1.5-0.1
			c-0.5-0.4-0.4-1-0.1-1.5c0.6-1.1,1.6-1.8,2.8-2.3c0.9-0.4,1.7-0.6,2.4-1c1.6-1,2-2.4,1-3.9c-1-1.3-2.6-1.6-4-0.5
			c-0.9,0.7-1.8,1.7-2.6,0.4c-0.6-1.1,0.5-2,1.3-2.6C319.8,181.6,321.6,181.6,324.1,182.8z"/>
		<path class="st9" d="M317.3,198.3c-0.4,0.9-1,1-1.8,0.5c-0.9-0.5-0.9-1.2-0.4-2.1c0.4-0.7,1-0.9,1.8-0.5
			C317.7,196.7,317.8,197.3,317.3,198.3z"/>
	</g>
</g>
<g>
	<text transform="matrix(1 0 0 1 481.2601 487.8481)" class="st9 st10 st11">02</text>
	<polyline class="st3" points="468.5,470.7 299.8,470.7 299.8,297.7 578.8,297.7 578.8,470.7 549.5,470.7 	"/>
	<text transform="matrix(1 0 0 1 319.2405 340.3281)" class="st4 st5 st6">提出方案</text>
	<text transform="matrix(1 0 0 1 318.0325 367.3461)" class="st4 st7 st8">根據需求提供量身打造的解決</text>
	<text transform="matrix(1 0 0 1 318.0325 392.9623)" class="st4 st7 st8">方案，包含設計概念、技術規</text>
	<text transform="matrix(1 0 0 1 318.0325 418.5776)" class="st4 st7 st8">劃與時程安排，讓你清楚掌握</text>
	<text transform="matrix(1 0 0 1 318.0325 444.1928)" class="st4 st7 st8">全貌。</text>
	<text transform="matrix(1 0 0 1 480.1175 487.2758)" class="st12 st10 st11">02</text>
	<g>
		<path class="st14" d="M401.7,460.1c-1.3-0.5-2.7-1.1-4-1.6c-1.1-0.4-1.6-1.2-1.1-2.2c0.9-2.1,0.2-3.9-0.4-5.9
			c-2.2-7.3,2.1-14.1,9.4-15c4.9-0.6,10.2,2.6,11.8,7.1c1.8,5.1,0,10.7-4.4,13.5c-2.1,1.3-4.4,2.4-5.4,5.1c-0.2,0.9-1.1,1-2,0.6
			C404.5,461.2,403,460.7,401.7,460.1L401.7,460.1z M410.8,437.9c-3.3-1.2-5.9-1.2-8.3,0c-4.1,2.1-6.1,6.5-5.1,11
			c0.6,2.3,1.8,4.6,0.9,7.2c-0.4,0.9,0.5,1.1,1,1.3c0.9,0.4,1-0.2,1.1-0.9c0.2-0.9,0.6-1.8,0.9-2.7c0.1-0.5,0.1-1,0.9-0.7
			c0.5,0.1,0.7,0.5,0.6,1c-0.2,1-0.6,2-0.9,2.9c-0.1,0.6-0.4,1.1,0.5,1.5c0.7,0.2,1-0.2,1.2-0.7c0.5-0.9,0.9-1.8,1.3-2.7
			c0.2-0.5,0.6-0.7,1.2-0.5c0.6,0.4,0.4,0.9,0.1,1.2c-0.5,0.7-1,1.5-1.3,2.3c-0.2,0.5-0.7,1.1,0.1,1.6c0.7,0.4,1.5,0.6,2-0.4
			c0.9-2.1,2.7-3,4.5-4.1c3.5-2.2,5.6-5.4,5.1-9.6C416.1,441.6,413.7,439.1,410.8,437.9z"/>
		<path class="st14" d="M400.6,462.7c-1.2-0.5-2.4-1-3.7-1.5c-0.5-0.2-1.1-0.5-0.9-1.2c0.2-0.6,0.7-0.5,1.2-0.4c2.6,1,5,2,7.6,2.8
			c0.5,0.2,0.9,0.5,0.6,1.1c-0.2,0.6-0.9,0.5-1.3,0.4C403,463.5,401.8,463,400.6,462.7C400.6,462.5,400.6,462.7,400.6,462.7z"/>
		<path class="st14" d="M399.5,466.2c0.5,0.5,2.3,0.1,1.8,1.5c-0.5,1.2-1.7,0.4-2.7,0.1c-0.2-0.1-0.5-0.1-0.7-0.2
			c-0.7-0.4-1.6-0.9-1.2-1.7c0.4-1,1.2,0,1.7,0C398.7,465.8,399.1,466,399.5,466.2z"/>
		<path class="st9" d="M400.2,429.7c0.6,0.2,2.1,3.5,1.8,4c-0.4,0.5-0.9,0.7-1.2,0.1c-0.6-1-1.1-2.1-1.5-3.2
			C399.1,430.1,399.5,429.6,400.2,429.7z"/>
		<path class="st9" d="M413.1,432.2c-0.1,0.4-0.4,0.9-0.5,1.2c-0.1,0.5-0.5,0.7-1,0.5c-0.5-0.2-0.6-0.6-0.4-1.1
			c0.2-0.7,0.5-1.5,0.7-2.1c0.2-0.5,0.4-1.3,1.2-1c1,0.4,0.4,1,0.2,1.6C413.4,431.6,413.3,431.8,413.1,432.2L413.1,432.2z"/>
		<path class="st9" d="M419.5,441.2c-0.6-0.5-0.9-1-0.1-1.3c0.9-0.5,1.7-0.9,2.7-1.3c0.5-0.2,0.9-0.1,1.1,0.4c0.2,0.5,0,0.9-0.5,1.1
			C421.7,440.5,420.7,441.1,419.5,441.2z"/>
		<path class="st9" d="M423.1,453.3c-1,0-1.8-0.5-2.7-0.9c-0.5-0.1-1-0.5-0.7-1.1c0.2-0.6,0.7-0.7,1.2-0.5c1,0.5,2.3,0.4,2.9,1.6
			c-0.1,0-0.2-0.1-0.4-0.1c-1.1-0.1-2.3-1.6-3-0.5C420.2,452.3,422.3,452.5,423.1,453.3z"/>
		<path class="st9" d="M423.1,453.3c-0.9-0.6-3-1-2.7-1.5c0.7-1.1,2,0.4,3,0.5c0.1,0,0.2,0.1,0.4,0.1
			C424,453,423.9,453.4,423.1,453.3z"/>
		<path class="st9" d="M390.1,440.5c-0.5-0.4-0.4-0.7,0.1-1c1.2,0.5,2.4,0.9,3.7,1.3l0,0C392.4,442.3,391.3,440.5,390.1,440.5z"/>
		<path class="st9" d="M393.9,440.7c-1.2-0.5-2.4-0.9-3.7-1.3C391.7,439,392.8,439.7,393.9,440.7z"/>
		<path class="st9" d="M390.1,440.5c1.2,0,2.4,1.8,3.8,0.2c-0.1,1.1-0.1,1.2-1,1C391.9,441.3,390.8,441.2,390.1,440.5z"/>
		<path class="st14" d="M403.6,464.9c-2.3-0.9-4.6-1.8-7.1-2.7c-0.5-0.2-1.1-0.5-1.5,0.2c-0.4,0.9,0.4,1.1,1,1.3
			c1.2,0.5,2.3,0.9,3.5,1.3l0,0c1.1,0.5,2.2,0.9,3.3,1.3c0.6,0.2,1.3,0.5,1.6-0.4C404.8,465.3,404.1,465.1,403.6,464.9z"/>
		<path class="st9" d="M405.8,441.8c0.6,1.1,1.3,1,2.2,0.2c0.1-0.1,0.9,0.1,0.9,0.2c0,2,2.7,1.2,2.8,2.9c0,0.4-0.1,0.7-0.5,0.9
			c-1,0.4-0.9,0.9-0.2,1.6c0.7,0.9,0.4,2.1-0.9,2.1c-1,0-1.2,0.4-1.2,1.2c0.1,0.7-0.4,1.1-1,1.2c-0.5,0.1-0.7-0.1-1-0.6
			c-0.2-0.6-0.6-0.7-1.1-0.2c-0.1,0.1-0.2,0.4-0.4,0.4c-0.5,0.4-1.3,0-1.3-0.1c0.4-2-3.4-1.3-2.1-3.5c0.4-0.7,0.7-1-0.1-1.6
			c-0.6-0.5-0.1-1.6,0.1-1.6c1.6-0.2,1.6-1.3,2-2.4C404.4,441.9,405.1,441.7,405.8,441.8z M405,446.1c-0.4,1-0.2,2.1,0.9,2.6
			c1.2,0.6,2.1-0.1,2.7-1.1c0.5-1.1,0.1-2.1-0.9-2.6C406.5,444.5,405.5,444.9,405,446.1z"/>
	</g>
	<g>
		<path class="st13" d="M392.6,314.8c0.6,0.4,1.3,3.8,1,4.3c-0.4,0.5-1,0.5-1.2-0.1c-0.4-1.1-0.7-2.3-0.9-3.4
			C391.4,314.8,391.9,314.5,392.6,314.8z"/>
		<path class="st13" d="M404.7,319.6c-0.2,0.4-0.5,0.7-0.7,1.1c-0.2,0.4-0.6,0.6-1.1,0.4c-0.5-0.2-0.5-0.7-0.2-1.1
			c0.4-0.6,0.7-1.3,1.2-2c0.4-0.5,0.6-1.2,1.5-0.7c0.9,0.5,0.2,1.1,0,1.6C405.2,319.1,405,319.3,404.7,319.6
			C404.8,319.6,404.8,319.6,404.7,319.6z"/>
		<path class="st13" d="M409.2,329.8c-0.5-0.6-0.6-1.1,0.1-1.3c1-0.4,2-0.6,2.9-0.7c0.5-0.1,0.9,0.1,1,0.6c0.1,0.5-0.2,0.9-0.6,1
			C411.5,329.5,410.5,329.8,409.2,329.8z"/>
	</g>
</g>
<path class="st2" d="M279.2,380.3c0,0-31.9,9.1-65-25.7c0,0-38.9-28.9-20.1-42.7c3.3-2.4,7.5-3.6,11.6-3.3
	c6.6,0.5,16.2,3.7,13.8,19.2c-0.7-2.8-10.2,45.7-41.9,47.2c-37.7,1.8-59.7,38-59.7,38S80,486.1,179.7,530.7"/>
</svg>
